<mxfile host="app.diagrams.net" modified="2024-06-04T10:57:20.542Z" agent="Mozilla/5.0 (X11; Linux x86_64; rv:126.0) Gecko/20100101 Firefox/126.0" etag="j6XyHuV5734g_MUtkvSL" version="24.4.13" type="github">
  <diagram name="ページ1" id="B70tVJmkDxaqO_uuRcVg">
    <mxGraphModel dx="564" dy="360" grid="1" gridSize="10" guides="1" tooltips="1" connect="1" arrows="1" fold="1" page="1" pageScale="1" pageWidth="827" pageHeight="1169" math="0" shadow="0">
      <root>
        <mxCell id="0" />
        <mxCell id="1" parent="0" />
        <mxCell id="isVZYeZh4vV-a_DudpPx-31" style="edgeStyle=orthogonalEdgeStyle;rounded=0;orthogonalLoop=1;jettySize=auto;html=1;exitX=1;exitY=0.5;exitDx=0;exitDy=0;" parent="1" source="isVZYeZh4vV-a_DudpPx-3" target="isVZYeZh4vV-a_DudpPx-22" edge="1">
          <mxGeometry relative="1" as="geometry" />
        </mxCell>
        <mxCell id="isVZYeZh4vV-a_DudpPx-3" value="" style="shape=image;verticalLabelPosition=bottom;labelBackgroundColor=default;verticalAlign=top;aspect=fixed;imageAspect=0;image=data:image/png,iVBORw0KGgoAAAANSUhEUgAAAj8AAAB+CAYAAADLN3DXAAAMPmlDQ1BJQ0MgUHJvZmlsZQAASImVVwdYU8kWnluSkEBoAQSkhN4EkRpASggt9N5shCRAKCEGgoq9LCq4dlEBG7oqomAFxI7YWRQb9sWCgrIuFuzKmxTQdV/53vm+ufe//5z5z5lz55YBQO0kRyTKRdUByBMWimOD/enJKal0Ug9AAQK0wWjgzOEWiJjR0eEA2tD57/buJvSFds1eqvXP/v9qGjx+ARcAJBridF4BNw/igwDgVVyRuBAAopQ3m1IokmLYgJYYJgjxIinOlOMqKU6X470yn/hYFsStACipcDjiTABUr0CeXsTNhBqq/RA7CnkCIQBqdIh98vLyeRCnQWwNfUQQS/UZ6T/oZP5NM31Yk8PJHMbyuchMKUBQIMrlTPs/y/G/LS9XMhTDEjaVLHFIrHTOsG63cvLDpFgF4j5hemQUxJoQfxDwZP4Qo5QsSUiC3B814BawYM2ADsSOPE5AGMQGEAcJcyPDFXx6hiCIDTFcIehUQSE7HmJdiBfxCwLjFD6bxfmxilhoQ4aYxVTw5zliWVxprAeSnASmQv91Fp+t0MdUi7PikyCmQGxeJEiMhFgVYoeCnLgwhc/Y4ixW5JCPWBIrzd8c4li+MNhfro8VZYiDYhX+pXkFQ/PFNmcJ2JEKvL8wKz5EXh+slcuR5Q/ngl3hC5kJQzr8guTwobnw+AGB8rljPXxhQpxC54Oo0D9WPhaniHKjFf64KT83WMqbQuxSUBSnGIsnFsIFKdfHM0SF0fHyPPHibE5otDwffDkIBywQAOhAAls6yAfZQNDe19gHr+Q9QYADxCAT8IG9ghkakSTrEcJjHCgGf0LEBwXD4/xlvXxQBPmvw6z8aA8yZL1FshE54CnEeSAM5MJriWyUcDhaIngCGcE/onNg48J8c2GT9v97foj9zjAhE65gJEMR6WpDnsRAYgAxhBhEtMH1cR/cCw+HRz/YnHAG7jE0j+/+hKeEDsIjwg1CF+H2JME88U9ZRoAuqB+kqEX6j7XALaGmK+6Pe0N1qIzr4PrAHneBcZi4L4zsClmWIm9pVeg/af9tBj/cDYUf2ZGMkkeQ/cjWP49UtVV1HVaR1vrH+shzTR+uN2u45+f4rB+qz4PnsJ89sUXYAewcdgq7gB3FGgEdO4E1YW3YMSkeXl1PZKtrKFqsLJ8cqCP4R7yhOyutZIFjrWOv4xd5XyF/qvQdDVj5omliQWZWIZ0Jvwh8OlvIdRhFd3J0cgFA+n2Rv77exMi+G4hO23du/h8AeJ8YHBw88p0LPQHAPnf4+B/+zlkz4KdDGYDzh7kScZGcw6UHAnxLqMEnTQ8YATNgDefjBNyAF/ADgSAURIF4kAImwuyz4DoXgylgBpgLSkAZWA7WgAqwCWwFO8EesB80gqPgFDgLLoEr4Aa4C1dPN3gB+sE78BlBEBJCRWiIHmKMWCB2iBPCQHyQQCQciUVSkDQkExEiEmQGMh8pQ1YiFcgWpAbZhxxGTiEXkA7kNvIQ6UVeI59QDFVBtVBD1BIdjTJQJhqGxqMT0Ex0MlqMLkCXouvQanQ32oCeQi+hN9Au9AU6gAFMGdPBTDB7jIGxsCgsFcvAxNgsrBQrx6qxOqwZ3udrWBfWh33EiTgNp+P2cAWH4Ak4F5+Mz8KX4BX4TrwBb8Wv4Q/xfvwbgUowINgRPAlsQjIhkzCFUEIoJ2wnHCKcgc9SN+EdkUjUIVoR3eGzmELMJk4nLiFuINYTTxI7iI+JAyQSSY9kR/ImRZE4pEJSCWk9aTfpBOkqqZv0QUlZyVjJSSlIKVVJqDRPqVxpl9JxpatKz5Q+k9XJFmRPchSZR55GXkbeRm4mXyZ3kz9TNChWFG9KPCWbMpeyjlJHOUO5R3mjrKxsquyhHKMsUJ6jvE55r/J55YfKH1U0VWxVWCrjVSQqS1V2qJxUua3yhkqlWlL9qKnUQupSag31NPUB9YMqTdVBla3KU52tWqnaoHpV9aUaWc1Cjak2Ua1YrVztgNpltT51srqlOkudoz5LvVL9sHqn+oAGTWOMRpRGnsYSjV0aFzR6NEmalpqBmjzNBZpbNU9rPqZhNDMai8alzadto52hdWsRtay02FrZWmVae7Tatfq1NbVdtBO1p2pXah/T7tLBdCx12Dq5Ost09uvc1Pk0wnAEcwR/xOIRdSOujnivO1LXT5evW6pbr3tD95MeXS9QL0dvhV6j3n19XN9WP0Z/iv5G/TP6fSO1RnqN5I4sHbl/5B0D1MDWINZgusFWgzaDAUMjw2BDkeF6w9OGfUY6Rn5G2UarjY4b9RrTjH2MBcarjU8YP6dr05n0XPo6eiu938TAJMREYrLFpN3ks6mVaYLpPNN60/tmFDOGWYbZarMWs35zY/MI8xnmteZ3LMgWDIssi7UW5yzeW1pZJlkutGy07LHStWJbFVvVWt2zplr7Wk+2rra+bkO0Ydjk2GywuWKL2rraZtlW2l62Q+3c7AR2G+w6RhFGeYwSjqoe1WmvYs+0L7KvtX/ooOMQ7jDPodHh5Wjz0amjV4w+N/qbo6tjruM2x7tjNMeEjpk3pnnMaydbJ65TpdN1Z6pzkPNs5ybnVy52LnyXjS63XGmuEa4LXVtcv7q5u4nd6tx63c3d09yr3DsZWoxoxhLGeQ+Ch7/HbI+jHh893TwLPfd7/uVl75XjtcurZ6zVWP7YbWMfe5t6c7y3eHf50H3SfDb7dPma+HJ8q30f+Zn58fy2+z1j2jCzmbuZL/0d/cX+h/zfszxZM1knA7CA4IDSgPZAzcCEwIrAB0GmQZlBtUH9wa7B04NPhhBCwkJWhHSyDdlcdg27P9Q9dGZoa5hKWFxYRdijcNtwcXhzBBoRGrEq4l6kRaQwsjEKRLGjVkXdj7aKnhx9JIYYEx1TGfM0dkzsjNhzcbS4SXG74t7F+8cvi7+bYJ0gSWhJVEscn1iT+D4pIGllUlfy6OSZyZdS9FMEKU2ppNTE1O2pA+MCx60Z1z3edXzJ+JsTrCZMnXBhov7E3InHJqlN4kw6kEZIS0rblfaFE8Wp5gyks9Or0vu5LO5a7gueH281r5fvzV/Jf5bhnbEyoyfTO3NVZm+Wb1Z5Vp+AJagQvMoOyd6U/T4nKmdHzmBuUm59nlJeWt5hoaYwR9iab5Q/Nb9DZCcqEXVN9py8ZnK/OEy8vQApmFDQVKgFf+TbJNaSXyQPi3yKKos+TEmccmCqxlTh1LZpttMWT3tWHFT823R8Ond6ywyTGXNnPJzJnLllFjIrfVbLbLPZC2Z3zwmes3MuZW7O3N/nOc5bOe/t/KT5zQsMF8xZ8PiX4F9qS1RLxCWdC70WblqELxIsal/svHj94m+lvNKLZY5l5WVflnCXXPx1zK/rfh1cmrG0fZnbso3LicuFy2+u8F2xc6XGyuKVj1dFrGpYTV9duvrtmklrLpS7lG9aS1krWdu1Lnxd03rz9cvXf6nIqrhR6V9ZX2VQtbjq/Qbehqsb/TbWbTLcVLbp02bB5ltbgrc0VFtWl28lbi3a+nRb4rZzvzF+q9muv71s+9cdwh1dO2N3tta419TsMti1rBatldT27h6/+8qegD1NdfZ1W+p16sv2gr2Svc/3pe27uT9sf8sBxoG6gxYHqw7RDpU2IA3TGvobsxq7mlKaOg6HHm5p9mo+dMThyI6jJkcrj2kfW3accnzB8cETxScGTopO9p3KPPW4ZVLL3dPJp6+3xrS2nwk7c/5s0NnT55jnTpz3Pn/0gueFwxcZFxsvuV1qaHNtO/S76++H2t3aGy67X2664nGluWNsx/GrvldPXQu4dvY6+/qlG5E3Om4m3LzVOb6z6xbvVs/t3Nuv7hTd+Xx3zj3CvdL76vfLHxg8qP7D5o/6LreuYw8DHrY9int09zH38YsnBU++dC94Sn1a/sz4WU2PU8/R3qDeK8/HPe9+IXrxua/kT40/q15avzz4l99fbf3J/d2vxK8GXy95o/dmx1uXty0D0QMP3uW9+/y+9IPeh50fGR/PfUr69OzzlC+kL+u+2nxt/hb27d5g3uCgiCPmyH4FMNjQjAwAXu8AgJoCAA3uzyjj5Ps/mSHyPasMgf+E5XtEmbkBUAf/32P64N9NJwB7t8HtF9RXGw9ANBWAeA+AOjsPt6G9mmxfKTUi3AdsTvianpcO/o3J95w/5P3zGUhVXcDP538BAEt8i7U6b0IAAABcZVhJZk1NACoAAAAIAAQBBgADAAAAAQACAAABEgADAAAAAQABAAABKAADAAAAAQACAACHaQAEAAAAAQAAAD4AAAAAAAKgAgAEAAAAAQAAAj+gAwAEAAAAAQAAAH4AAAAALcx92wAAArZpVFh0WE1MOmNvbS5hZG9iZS54bXAAAAAAADx4OnhtcG1ldGEgeG1sbnM6eD0iYWRvYmU6bnM6bWV0YS8iIHg6eG1wdGs9IlhNUCBDb3JlIDYuMC4wIj4KICAgPHJkZjpSREYgeG1sbnM6cmRmPSJodHRwOi8vd3d3LnczLm9yZy8xOTk5LzAyLzIyLXJkZi1zeW50YXgtbnMjIj4KICAgICAgPHJkZjpEZXNjcmlwdGlvbiByZGY6YWJvdXQ9IiIKICAgICAgICAgICAgeG1sbnM6dGlmZj0iaHR0cDovL25zLmFkb2JlLmNvbS90aWZmLzEuMC8iCiAgICAgICAgICAgIHhtbG5zOmV4aWY9Imh0dHA6Ly9ucy5hZG9iZS5jb20vZXhpZi8xLjAvIj4KICAgICAgICAgPHRpZmY6UGhvdG9tZXRyaWNJbnRlcnByZXRhdGlvbj4yPC90aWZmOlBob3RvbWV0cmljSW50ZXJwcmV0YXRpb24+CiAgICAgICAgIDx0aWZmOlJlc29sdXRpb25Vbml0PjI8L3RpZmY6UmVzb2x1dGlvblVuaXQ+CiAgICAgICAgIDx0aWZmOkNvbXByZXNzaW9uPjE8L3RpZmY6Q29tcHJlc3Npb24+CiAgICAgICAgIDx0aWZmOk9yaWVudGF0aW9uPjE8L3RpZmY6T3JpZW50YXRpb24+CiAgICAgICAgIDxleGlmOlBpeGVsWURpbWVuc2lvbj4xMjY8L2V4aWY6UGl4ZWxZRGltZW5zaW9uPgogICAgICAgICA8ZXhpZjpQaXhlbFhEaW1lbnNpb24+NTc1PC9leGlmOlBpeGVsWERpbWVuc2lvbj4KICAgICAgPC9yZGY6RGVzY3JpcHRpb24+CiAgIDwvcmRmOlJERj4KPC94OnhtcG1ldGE+CsuCVBMAACQsSURBVHgB7Z0JvNVj/sc/7YtWFUWrtEm0SDupJBVFhRZKMUyMMYY/gxnGjHWsY+xrIVokRUWSVCpaRCWUFm3atO/L//vp6XRvt+7tnHvP8ls+z+t1O7dzfsvzvJ/fPb/P7/t8F0BNBERABERABERABERABERABERABERABERABERABERABERABERABERABERABERABERABERABERABERABERABERABERABERABERABERABERABERABERABERABERABJJKIFcsZytVqtSBypUrx7KLthUBERABERABERCBlBCYOXPmOjtxmYwnz5vxjaz+T+EzY8aMrDbRZyIgAiIgAiIgAiLgCQK5cuVaeqyO5D7Wm3pPBERABERABERABIJKQOInqDMb0nHt3grs3BTSwWvYIiACIiACURGQ+IkKkzbyA4HNK4DnzgAGtgIOHPBDj9VHERABERCBVBCQ+EkFdZ0z7gRo7RnUHti8HFg1C/h5dNxPoQOKgAiIgAgEhIDET0AmMszD2LcbGNIFWDsf6PERULwiMPnhMBPR2EVABERABLIiIPGTFR195nkCXN4a2Q9YPB645FWgmll/mt4B/DoFWDrJ891XB0VABERABFJAQOInBdB1yvgR+Pxe4Lu3gQv+BdTt7Y5bry9Q2LI6yPoTP846kgiIgAgEiYDET5BmM2RjmfGiCZyHgPrXAy3uSRt8vsJA41uBhWPM/2d22vv6TQREQAREQARIQOJH14EvCfw4Ehh9ky1zdQA6PA/kypCrvGF/IH9RYMojvhyeOi0CIiACIpBAAhI/CYSrQyeGwPLpwLCrgHL1ga6DTcEfI095wRJAQxNH84cB639OTD90VBEQAREQAX8SkPjx57yFttcbFgLvdgSKlgO6W2RX/hMyR8Glrzz5zfrzWObb6BMREAEREIHwEZD4Cd+c+3bE29YCb7dzCQx7mj9PkZOzHgo/r9sXmDPA8v9YAkQ1ERABERABESABiR9dB74gsHubs/hsMRHDXD6lqkfX7WYW9n5gPzD1iei211YiIAIiIALBJyDxE/w59v0I9+8F3jcfn5UzgC7vAeUbRz+kEpWBOt2BmS8D29dHv5+2FAEREAERCC4BiZ/gzm0gRsYkhqNvBn4ya0+7/wI1O8U+rGZ3AXvMcvT1s7Hvqz1EQAREQASCR0DiJ3hzGqgRTbZQ9ZkvAc3uBM616K3stJNqAzVMNE038bRrS3aOoH1EQAREQASCREDiJ0izGbCxzHkL+PxuW7bqCbS2ZIY5ac3/Buz83S1/5eQ42lcEREAERMD/BCR+/D+HgRzBL59Zza6+QJVWQKfXLYlhDq/U8o2AyhcA054E9u4KJDINSgREQAREIEoCObylRHkWbSYCMRBYPQcYfDlQuhZwxXCXqyeG3TPdtIVZkbastND3gZluog9EQAREQARCQEDiJwST7KchbloGDLLK7AWKAT1HAwWLx6/3VVoDp5xjSQ8fBRhBpiYCIiACIhBOAhI/4Zx3T456h/nkvHMxsHurCZ8xQLHy8e0m63/R9+f3Ra7sRXyPrqOJgAiIgAj4hYDEj19mKuD9pB/O4MtcHa4rRwAn10nMgGt2tuW0mlYN3qLIGEavJgIiIAIiED4CEj/hm3PPjZgZmEf0BpZOBDq/aU7O5picqEbHaeb9+c38ihaadUlNBERABEQgfAQkfsI3554b8TjL4TPPqrO3MV+cOj0S3z2eo3hFs/48nPhz6QwiIAIiIALeIyDx4705CVWPmHhw6uNAQ0tg2NTqcCWj5ckHNLkdWDbZrE2TknFGnUMEREAERMBLBCR+vDQbIevLDxbGPvZWK1lhfjjtnrFcPuaQnKxWvx9QuEz4rD9r5jnfKlW5T9aVpvOIgAh4kYDEjxdnJQR9WjYFGG6Zm1mk9PJBQO48yR10vsJAoz87v5/V3yb33Kk6277dxtyW/BaMcA7fqeqHzisCIiACqSYg8ZPqGQjh+dctAN671ELZKwDdRwL5CqUGAmuF5S8aHiHwxT/N0fs7oGw9YParwNbfUsNdZxUBERCBVBOQ+En1DITs/FtXu1w+ufMCvcba0lPp1AEoWMJ8jfpbzp+hLsQ+dT1J/JmXT7PkjhbeX7cv0NWcy2kFmvpk4s+rM4iACIiAFwlI/HhxVgLaJyYvHNQB2LYG6PExUPK01A+08a225GYO0FMeS31fEtWDPdtdKgEmjWz3FFCqGlD7CmDG88CODYk6q44rAiIgAt4lIPHj3bkJVM/27QGGdgNYt6ubWVpYZsILrUhZoJ5ZQ+YMAILqBPyZZbVe/5MViH3TlQ0h9+Z3u0za05/1wiyoDyIgAiKQXAISP8nlHcqzMZPyRzeac7Etc3V4AajW3lsYGGLPRItBXAZa/DnwtaUTOPeWI5NHMoN2DfO7mm5Rdru2eGs+1BsREAERSDQBiZ9EE9bxMfEB4NvXgfP+DjS43ntASlax5IrdgZkvAdvXe69/2e3Rrs3Ah9faMld1SyB5jISOLe4Bdlo9tRkvZvcM2k8EREAE/ElA4sef8+abXs820TPxfnO07QO0tGgjrzaWvNizzawkAVoGGvsXW8pbbiVDbEmPof0Z26nnAqe1MYvXEzb2HRk/1f9FQAREILgEJH6CO7cpHxmXuUb9AajaFuj4cnKTGMY6+JNqH1oGsiUiOmb7vf04ylnbKOqYSymzRuvPNgt5p0hVEwEREIGwEJD4CctMJ3mcK2cCQ7q66uzdhgEsKeH11twcg7kMNNOEmp8bl+5G2fLiyWeZte2+rEdS6XygQlPgK4t2o1O6mgiIgAiEgYDETxhmOclj/H2xC2kvXMpC2kdbhFHRJHcgm6ejhaTyBW4ZaO+ubB7EA7uN7u9C2C97y0Rn/qw7xJIitP5sWgZ893bW2+pTERABEQgKAYmfoMykR8ZBq8M7F7skej1t2atoOY90LMpu0PqzZaWFvg+McgePbTb3PWDeEOdfRctPNO10my9mfWaV+/37otlD24iACIiAvwlI/Ph7/jzVezrNsmzFxiWubEWZWp7qXlSdoQNwuQZuGchvQmDLKuBjs/rQgtXMwvejbQetP5b3Z8PPlu3alijVREAERCDoBCR+gj7DSRofhcIHvYBfp1qhUls+qdg8SSeO82koBGj92bDQX0KAuZRGXQfs3emiu1g+JJZW63KgdE2z/jxkOY/sWGoiIAIiEGQCEj9Bnt0kjY03y09uA34YDlz0JHCGOTr7udW67JAQsGUgvwgBRmv9bP5VbR51eX1i5Z/Lvgko+lj49KePYt1b24uACIiAvwhI/PhrvjzZW2ZGZhbhxpZXhrWy/N4oBJrdaUJgjmWlHuP90XCZ8RPjTmdtVqrPbjuzO1CiMjDpQf+IvuyOVfuJgAiEm4DET7jnP8ejnzsYGHe7K5TZ9vEcH84zB6jTAyhWwTkBe6ZTx+gIy3KM6GMf2HJdpzfsJQd/0UxHQNG3YjrAshhqIiACIpAIAlt/S31QSQ6+KhOBRMf0EwEutdDPp2IL52eSkxuv18bNEPGmJuqWTXY/XutfpD8sTLp0olVrf8asNpUi72b/tW4foEg55/uT/aNoTxEQARE4kgD9ERmJOqgj8OSp9tDW2/lWHrlV8v4n8ZM81oE5E60N4y03zMh+ViyzleXyMR+RvAUDM7zDA6lvDsSFS3vX+rNugc3DXUB1+zKhaIlH4zw2+auz/CyfFo8j6hgiIAJhJUCfyWVTLBjjBuDxssCwK4HV39qDpUWj9p8HnHh66sjEGBOSuo7qzN4gQPU+oo8peFvuqm9ZhNs/54/szdmhx3pYjcyXZsK97g+2bN3sHCUx++zf656c8p0AXPJKfEuHnGNfVIz6ou9P91GJ6b+OKgI5IcASNL997/4u6ZvHB4GipwAn1XFZ5flavGJ8/y5y0t+w7ctEt99ZklXmS/t9kastWKsLcPY1zjcxd57UE5H4Sf0c+KYH29dZHp9OFs7+lUUVPeaWhRgaHuRGB+Ipj5oYeATo+p53RjrZ+rTia+uTmZGL2BNVPFv+Ik70ffEPu7nYjaXs2fE8uo4lAtEToOVg86/uOqTIodWArxvshgr7jK1AcYA5xX41C8Pcd917B98vZmLoTCeI0ouiQiXTttFv8SOwa7M9FA810WOCZ+mX7rgMwjjv7wBTaXgt039Mt64GDRocmDFjRvxo6Ui+IbD+J8vc3N6yH68AWDbB7+HssYAfZ07AUx8Hbv4xtWbaSJ95A3jFKrKfYU9SXdJ92Uc+j8frDqtx9nQloNrFJrAGx+OIOoYIZE2AVuW18zMIHUu9wHp7kVayqolxs8CebIKcopyv6S08OzcBa+baj1mFaBniK392bowcwSxE5m9yslmGKIgioqi0iae8BdK20W/REaAF+pfPnIVnwQcuz1ip6sBZZuE5q1d8/BCj60nmW+XKlWumfXpOxi0kfjIS0f+PIkAV/15ngInzuo/Mukr4UTsH4I2tq00IVHYm20teTu2AWHPsFfszZhmR/vYlX+jExPXns785q9dNP1jeoxqJO4+OHD4CjPY5aMkxK07EosOlqwP7HAsuOR8UJhQ5JnYodPj/7FgPaD3iQ1t6McTf19l1vW+3O18uW4bhTTujKCpROWcRlEGdWfLjktb37wBbVwEFSwJnXmXfkb2BU+3BzEsrApmJHy17BfXqjNO4vrOLe2RfoORprkhpySpxOrCPDsNlpXrGYPZrwPn3WQi8PTmmqn1xv3uy7fFxYoUPx9fkL8D0Z0wA2ZIfw+jVRCBWArQM0GpMayWXUCl0+MMHikgrVt5ZcGp0ShM6tPDEyy+EN2Kegz+0ZEbavj2upEt6UbTiGxeRFNmGS8BlaqdZiCKWIgZChK1tW2NiZ5ATPatnu4fharYaQMFTrYP/LGey/ITtCo5yvHxa+vJfwBd2s+e67RXv2822ZJQ7B3AzOvA9W818Yf5sWayfSM0A6Wv1RguL7DIhdqk5OSejjbHxznge+NNCb5iwkzFmnSN7BLi0xAzh6YXOWovo4XIWW+58JiJMSHCpKv2yVeFS7nOv/Ltriy2/Wb/TiyL+vsOsrZHGByIKoYgY4muZM8yxt1Bki2C8cu6Y8X3OAMsgP8ZZ5lj7kIKHlp4Tynh/nJlZfiR+spg7LjHQU50XdZgaTcGjrncKv24foONLFtGVP0wEjj3W4b2ABSOAW5daCHypY2+TqHd3bwNeMvM/n6RvtBtMdsz/2enb5uXAM2b1Y2Rfh+eycwTtE0QCG5cAq2YdsuYcsupssr+LSKNlJOKbExE6rB3n1+8RPgzSWpXRl4g+ShFxxzxnDN2OiCIuFRev5B4aKJb8kgeNY2WaCwoeRvVS1DKSro59/zFaiwLWTy0z8aNlr0xmkWvSjGxittvaV9jT/lPuAshk88C8vWMDMKQLsOQL4AKz/LS4x1vrt6kE3fwut8b99f+Alvcltyef2blZbLX3hOQJH46QSwV8yuOS33n32t9AueSOW2fzHoFJDwOf3+36xRs6fWXKNzaP0hvTLDpMlOklv4+cUuRYeO3zp2rbtKOxoDP/LtOLIi7rsc5hJBqNW1P00TG7ROVDgijyWsm9R3ERazFiHjeejYJ2zlsuWotjymtWLEZp8e+f+dzitQwZzz7n5Fg2pdG3sER7rTVHuEG2lkkBRKX77Zvu4m31b6Bh/9RfpNHPWGxbMnx0kK3dblzsfDxY4kHtSAIUxMz6TOsP/QGS0X4ZD7zVxoWftzMRnuzGL8L/2VNs49uAtv9J9tl1Pi8RmGUieNR17oGwye3OCkDnZLUjCdBSSzHBH1rENtrPJv6fv9vrNru3pG90uC5eIc1SVLyysxhFxBI/S4TVjOHp8993Vh5mimer3NJFazGiN1kW5oMnTtA/mVl+csVyvjCIn8UTzPJhajdPAZe5+JRznLIffROw6FMz5dazZaAXnUd7LOy8vu2vU83Sdak9rOwHrrSlnUotvN7j1PSP5uDXmpgIeMIcgk0MJLoxdPcF8yfgDeaG2anzKRje05b8PkzNkl+iGev40RH4cRQwuDNwmglxJr9MxM04up74fysulW1a5oTQQWF0SBQdFEpLLDptpfsuPjxSu1PTOsQSNhFBdPjV3uPyWrT+RrRWLR7v3Bpoodq7w5brzJ+RD/pnXe3Ocfi8AfhF4ieKSfx2gHuqKWVPuYymSV8rieug84cCY291a78NbgBaPxQMJ2DWW/nALnw+XfQYbWZs+0NQy5zAgAtcBMstvyQ+wuHDa50put9XqRXczJ1CEXbeP2w59J+Zs9EnwSRAZ/uBrc3Sc6Zbek2W1TOYNI8/Kkai0d/usOVoSZoFie8x8SP9/9K3E046tjCKiCSKrYPh6W87cVWwhFnwrrIAit723dIoWMuU6blI/KSnkeF3ChtGNTG6iU813YZZ3oLiGTY69F+aCSfYDeDrZ13dpwsfd8mc/Li+zXEze/H4vwEVmgFXmcUnjCGcx57pzN+lBfDti1xZCdb/SlT7caTzO2txL9DKrs1Ut8GXOV8wLvkVKJbq3uj8ySJAN4A3mrvUCn2nWISP3WTVUkuA1hvm16EQiiyl0WoUsRzxvX27ju4j/YpOv9j58bAmYBgSO0r8HH0dHHyHEV3MY8P8BfX6WUTLC2bOzZfJxuneXmVLEB//0TlEc420/fMuxXq6TTz9K58sPjb/pdmvWshid/Pxed3+EAp6usue6RxF4ysNgV2bgJsWJMYRkKVEnq/tTN3XTffGEsPKGW7crR8Bmt/pmelQRxJIgNaH15q6ZIC0PjLfl5r3CdB9gXl50i+psQ5g7W7hE6+ZiZ/c3p/GxPWQWXLfutAJn1YPuSf5aIQPe1SuHsAvgw7m/8O8Fi+ebRaUu4E92xPX33gdmX4kdGym8KFV4fJ3JHxiYUsrX3OzltEReP6wWPaMbluKKwprhph2HugN4cOe0/+NkS7TnrTrfEd0Y9FW/iXAEidvt3PXYc8xEj5+mklG4TG8vnwj55ze7P8A1imU1S5tFkMrfnjjouMqi0N2ec9EgN3MYl264gXGCtis+VSnuxW/fNg9rTMplFcbnwRetyWuJRMsUZ5Ze7icEuu4vTq2ZParli0B0TeMc06xEs/G4owUVS0fsNBh87PxUmPqAz5RzjLhrBZcAhS3DIBgdmYuh/NhT00EgkQglOKHocqvNraMnRuAa8zr/cwrczalVNOdB5gj4BdmQSkEvHuJRUXYzZEOZl5qXLZ4zcZNU3avT2yZ71ov9c5ffaHwbXanS9W/cGz8+s4oD0YWlm8CNL09fseN15EqnQdUbA589VhaXaR4HVvH8QYBOtIO72EpHcy/h0WMmeNFTQSCRiB04meuWXkYtcAMvddNsy9ys4LEq1U+37Lv2hJYa7MGLDRx8dwZdpN43G4S5l+T6sbMxG/YjYt+Pf2m6gstHvNxVk+XBJDWn3g0WpBGmt8ZM2xTTHs1qRitPxTQTIimFiwCB5dcTXzz+6Ld0zl/MAwWHY0mSARCI374Rz3J/Hre7+6ykVIAMBV5vBtzXzAT8E3zncAYdwfwcn33FBXvc0VzPI576lNmibrcLaH0M8FXplY0e2qb4xHgXDe1+V02ySU+PN72x/t81ismms2K1MasKl5ON1D1IlsGaeAKnmYMtz3eGPW5twlMfMCWNF82q6Z9hzW6xdt9Ve9EICcEQiF+aHkZeZ2lZLcn1rN62ZLPp4mviF2isiUCs1BlJgykgzFDRT+0p3pG8SSr8cY05k/Ap7e5NOUsjVDk5GSdPRznYag70wPk1Prz+y/AJzZPVVpbFnFzdvZyo49Yi7udw/e8oV7uqfoWC4EZLwET73dh0MxhpiYCQSYQePHDiJl3LrYSFebce/59LnommbkNanYyK9APZiEwb/vvBroyAUwRz1DERDZWJmYphm+ec9aJbkNcluBEnjOMx2bmZVZ6/3m0K/KYHQa8FpjMkMtcnd4wB3Qf/FXW7OwK/k62m2Sir+XsMNU+sRHgMtfo/kC19i7qVUEQsfHT1v4j4IOv2exD3bjERTYt/dL5ULS8PzWRTflPAC581JUnKFPbZZF+o4U5y36f/bFltefmFcCb5zm/I4biX/iYP26oWY3Jy581NB8JZryd8kj2ejntaYDXaLv/uizb2TtKcveiQGO4PzM/s+yBmn8JLLVl22FXWSqDhkDXIdHlOfPvaNVzEXAEAit+GMLOiC5Gz1xty1ysW5LqxtTwfSa6p3uGkL5k4aOfWkTP7q3x6xlzDr3ayJYkFrkSHQzFV0ssgUIlLeVBf4BlQphCIZbG7LnMD1XDwoq9cI3G0vcz7YbJpHeTHox/uH8s/dC22SdA8cqQdi7T9/jIRLw9qKmJQBgIBFL8/PCBWT5aumUeOjZXtt+90mhOrtvHZQau19eckZ+wqDBzQGaBOTon56Rx6eV18y3iOfpOtjTm5piqlhwCTf5iy1b5zPrzWPTnoy/aCBPlrJzc8eXUWCWj7+3RWzJVPsP9V34D/PLZ0Z/rHW8TYCoOJjFkeg6mvlBpG2/Pl3oXXwK543u41B6N4uErExNDulj19bNdKHvpmqntU2ZnZ6j9JXbD6/uVc75mn9/tCPy+OLM9sn7/m+ddfqHSNWzc0y2y66yst9en8SXAbKp1zW9nzgBnbYzm6HSSZu4lllTxqyP62b2tBMepzvoTzZi1jTcIMMcZhQ+tzr3GHlnE2Rs9VC9EILEEAiN+GNnE5HDjbgfOMCFxzef+SOVdoQnwh5lA2yed38fzZ7iQfOZ6iaaxwN0nf3Vjr9bBltW+dPWgotlX28SXQDMLe+d1ONXm8nht1SxXSLdOD7teux5va+9+zuABJmNcOjF16Ry8S8ebPWMJnkF80LKl8as+1IOSN2dJvUo0gUCIH0Y2vXspMMOeoGmG7zrYlrzMlOuXxuUDLpswKoyVdhmSz1phiydkPYLd24ChduNkraVzb7Gwelvu05p91swS+Sn9X1gkdsaLLnt4ZufauxP4wJa7mBn84v9ltpV/3q9/vVsyoe+PmrcJUJwPuxJYPs3V9GNiVjURCCMB34sfZppl5NSiT53fRJtH/BvZVKw80G2oOR6a7w4tPwNb2U3yamDrb0dfmltXAwNaWqSN5RJq94zdRO3HqxmBj+59cN9hgss9JkqnP5v5GCfcB6ydZ7XVXrMlz5KZb+eXTyi4G5t4XzgGoEVLzZsE6BYw6gaAtQfbm+j2s8XRm4TVKz8R8LX4iUQ2MUFcTxMMDewJNAit2sXAH+e6iutzzYr1XE3L1/OCLansc6NjhAYjutbOd0kUlYnVO7POiL7qlwBfW9j6saL4WC/pq/8A9f9gDuntvNPvnPakoUW7FSjmlmxzeiztnxgCE/7h8p21uNcSadp8qYlAmAn4VvwcjmyyxHB97YZStW2wppHLdqy4/sfvrZRAfZeAjFXomYWVVdkZKXSt5eeoYTdaNW8RYP4bOpTOfOXIflEMjejtworbPn7kZ37/X8ESdkO92UUtMnxfzVsEGBAx6d9WzPg64IIHvNU39UYEUkHAl+LniMimaa5mVSrgJeOcjN66+jO3Ps/Q1I9vtER4lVxEF0WRmvcI0Im90vkujcHeXWn9G3enOZmalbLzmy68Pe2TYPzW+Fbna5fTUh/BoOGdUcwfZg9PJkyZS6qjWZCVvdk7c6OepI6Ar8TPwcim28IX2cQvK0YF3bzAwuNfdTl8ildI3UWjMx+fAGtfbVlhJU3ectsuGmdWO3v6pm9MpfOOv78ftzihjFvO+36QE3l+HEPQ+rzkC2B4T4CCvMu75hdowRVqIiAC9rfgFwiHI5ueCm9kE5cW6vdzvhV+mbew9vO0C91yJZMebl/vaneVrgW0fjDYRBj2Tsf7WJI9BptI6ka3eo6r71eyqhVZHqXafqmbCZ3ZiwR8IX4U2eTFS0d9yooArXX0/dnws0UjNreIvdXAZQMtm27BrPby/2fFTrUyHX3MsfYNgDXm1FJDYOMSK+jczlJfFHXZmwudmJp+6Kwi4FUCnhc/aywkWJFNXr181K+sCNS8DChVHVhny5Ut7rHCkedktXVwPmtuvk1combpFrXkE9i+zrI3XwQwnxTLVmiJPPlzoDN6n4CnxQ/rBb3e1EU2MXOxIpu8f0Gph2kEuPzD0hVMAnjevWnvB/03Jnus092i3V6yJT+7EasljwDdAwZZpncGR3Cp66TayTu3ziQCfiLgWfEz+3Uz21q+m0hk0ykN/IRVfRUBR6BKK1fDLU++cBHhkh/LKEx7JlzjTuVomf5iaDdXL67Le0BFW25VEwERODYBz4mfA/uB8RYpM9Ice6u0VmTTsadN74qAtwmUsRp1tS63ZI/PAjs3ebuvQejdwezNZmFklu0OLwI1OwVhVBqDCCSOgKfED9eo37eQbuYJYQZcmm2ZNVZNBETAfwSa20PMLhM+zMulllgC483SNmcA0PKfwcl0n1hiOnrYCXhK/AzpAsyzcg5tLDy4oz29hG2pIOwXo8YfLAJcqmYJj2mWnoJLYGqJIcClxSmPmui5wXzL/p6Yc+ioIhA0Ap4SP0wAx8Keze5QFtKgXWgaTzgJMMpt+9qjS32Ek0b8Rz3XfHs+sczajCxs/5y+N+NPWEcMKgFPiZ/T2qjScFAvNI0rnATodMuM1izmmr7URzhpxHfUv4wHPrjGHJtbWPZmy6rN6EI1ERCB6Ah4SvxE12VtJQIi4CcCtP6w1MecgX7qtbf7umo2MNisPaz9131k8JNnens21Ds/EpD48eOsqc8i4CMCLPXBBI9THrHkh3t91HGPdpXFcZkGpFBJoOdYgGVv1ERABGIjIPETGy9tLQIiECMBlvqg9Yc37bkW0KCWfQLb1rjszfstpw+zN7OciJoIiEDsBCR+YmemPURABGIkUONSoIxlG578EMBcXmqxE9i91Sw+7V3NtO4f2ZJXzdiPoT1EQAQcAYkfXQkiIAIJJ5DLvmlaWN6ftfOBBR8m/HSBO8G+3QBTgaz+1iJihwAVmgRuiBqQCCSVgMRPUnHrZCIQXgK1rwBKVgUmPWjWnwPh5RDryGkp+7AvsOhTK5XyClC9Y6xH0PYiIAIZCeTN+Ib+LwIiIAKJIJDbvm2a3wWMsjIMvJGfbpXH1Y4msGcHsOZ7q9E1E1g1C1gx3f2/lYnGetcevb3eEQERiJ2AxE/szLSHCIhANgmcfQ0w0Uow0Poj8QOwCvtvc5zIWXVI7KyZZ5axfQ5woROBcvWt3I8JxnNvziZ07SYCInAUAYmfo5DoDREQgUQRyJMfaGoZ3Mf+GVg6yRIgWoK+sLRdW5zPTkTk8HXdgjQH8MJlLCWAlQSpfokTPOXs9+IVlbU5LNeHxplcAhI/yeWts4lA6AnUvw748t/O+lPJ8tQEse3caNYcS0SYXuis/9lGesjXqUg5J3RqdXWvtO4UtbB1pgVQEwERSDwBiZ/EM9YZREAE0hHIVxhochvASuQrZ7gEiOk+9t2v29cfWrYy/5yI2Pl9UdowilVwAqdOL/datp4JHRM/aiIgAqkjIPGTOvY6swiElkDD/q4S+STL+3PlcP9gYJJBOiHTGXn1oddNS9P6X6KKW7Kq1+/Q0pVZdE6w5Sw1ERABbxGQ+PHWfKg3IhAKAgWKmQPvn2z5618WyWQOvidZAkSvtS2r0iw5EYvO5uVpvTyxGlC+MdDwpkNCxyw6dFBWEwER8D4BiR/vz5F6KAKBJNDInJ6nPmlZnx8GLn87+0NkzqC9O4E92+3VwsT5evgnw/8z+3xvZB9uvw3YsBDYuvpQn8wPhwVEK52f5ohctq7V1Cqe/T5rTxEQgdQSkPhJLX+dXQRCS6BwKaDBDcD0pwGKif0W3p1RnGT8P3PgHBY26cROdiAy8oz+R5GfvIUO/W6vVdua0LFoK/6UPRvIXyQ7Z9A+IiACXiUg8ePVmVG/RCAEBJreDsx6GRh3R9pg8xZMEyQUJodFif1eyARTvkMiJW9EuERES+T/GfY5KG4ybMNj5s6Tdk79JgIiEC4CEj/hmm+NVgQ8RYBRT7etBPbtcoKHwod1wNREQAREIJEEJH4SSVfHFgEROC6BAkVtE/6oiYAIiECSCOgZK0mgdRoREAEREAEREAFvEJD48cY8qBciIAIiIAIiIAJJIhBrMvW11q90Kb2S1EudRgREQAREQAREQARiJ1DJdlGq0di5aQ8REAEREAEREAEREAEREAEREAEREAEREAEREAEREAEREAEREAEREAEREAEREAEREAEREAEREAEREAEREAEREAEREAEREAEREAEREAEREAEREAEREAEREAEREAEREAEREAEREAEREAEREAEREAEREAEREAEREAEREAEREAEREAEREAERyEDg/wHx0wZkLYgOawAAAABJRU5ErkJggg==;" parent="1" vertex="1">
          <mxGeometry x="60" y="70" width="136.9" height="30" as="geometry" />
        </mxCell>
        <mxCell id="isVZYeZh4vV-a_DudpPx-46" style="edgeStyle=orthogonalEdgeStyle;rounded=0;orthogonalLoop=1;jettySize=auto;html=1;exitX=1;exitY=0.5;exitDx=0;exitDy=0;" parent="1" source="isVZYeZh4vV-a_DudpPx-4" target="isVZYeZh4vV-a_DudpPx-38" edge="1">
          <mxGeometry relative="1" as="geometry" />
        </mxCell>
        <mxCell id="isVZYeZh4vV-a_DudpPx-4" value="" style="shape=image;verticalLabelPosition=bottom;labelBackgroundColor=default;verticalAlign=top;aspect=fixed;imageAspect=0;image=data:image/png,iVBORw0KGgoAAAANSUhEUgAAAj8AAAB+CAYAAADLN3DXAAAMPmlDQ1BJQ0MgUHJvZmlsZQAASImVVwdYU8kWnluSkEBoAQSkhN4EkRpASggt9N5shCRAKCEGgoq9LCq4dlEBG7oqomAFxI7YWRQb9sWCgrIuFuzKmxTQdV/53vm+ufe//5z5z5lz55YBQO0kRyTKRdUByBMWimOD/enJKal0Ug9AAQK0wWjgzOEWiJjR0eEA2tD57/buJvSFds1eqvXP/v9qGjx+ARcAJBridF4BNw/igwDgVVyRuBAAopQ3m1IokmLYgJYYJgjxIinOlOMqKU6X470yn/hYFsStACipcDjiTABUr0CeXsTNhBqq/RA7CnkCIQBqdIh98vLyeRCnQWwNfUQQS/UZ6T/oZP5NM31Yk8PJHMbyuchMKUBQIMrlTPs/y/G/LS9XMhTDEjaVLHFIrHTOsG63cvLDpFgF4j5hemQUxJoQfxDwZP4Qo5QsSUiC3B814BawYM2ADsSOPE5AGMQGEAcJcyPDFXx6hiCIDTFcIehUQSE7HmJdiBfxCwLjFD6bxfmxilhoQ4aYxVTw5zliWVxprAeSnASmQv91Fp+t0MdUi7PikyCmQGxeJEiMhFgVYoeCnLgwhc/Y4ixW5JCPWBIrzd8c4li+MNhfro8VZYiDYhX+pXkFQ/PFNmcJ2JEKvL8wKz5EXh+slcuR5Q/ngl3hC5kJQzr8guTwobnw+AGB8rljPXxhQpxC54Oo0D9WPhaniHKjFf64KT83WMqbQuxSUBSnGIsnFsIFKdfHM0SF0fHyPPHibE5otDwffDkIBywQAOhAAls6yAfZQNDe19gHr+Q9QYADxCAT8IG9ghkakSTrEcJjHCgGf0LEBwXD4/xlvXxQBPmvw6z8aA8yZL1FshE54CnEeSAM5MJriWyUcDhaIngCGcE/onNg48J8c2GT9v97foj9zjAhE65gJEMR6WpDnsRAYgAxhBhEtMH1cR/cCw+HRz/YnHAG7jE0j+/+hKeEDsIjwg1CF+H2JME88U9ZRoAuqB+kqEX6j7XALaGmK+6Pe0N1qIzr4PrAHneBcZi4L4zsClmWIm9pVeg/af9tBj/cDYUf2ZGMkkeQ/cjWP49UtVV1HVaR1vrH+shzTR+uN2u45+f4rB+qz4PnsJ89sUXYAewcdgq7gB3FGgEdO4E1YW3YMSkeXl1PZKtrKFqsLJ8cqCP4R7yhOyutZIFjrWOv4xd5XyF/qvQdDVj5omliQWZWIZ0Jvwh8OlvIdRhFd3J0cgFA+n2Rv77exMi+G4hO23du/h8AeJ8YHBw88p0LPQHAPnf4+B/+zlkz4KdDGYDzh7kScZGcw6UHAnxLqMEnTQ8YATNgDefjBNyAF/ADgSAURIF4kAImwuyz4DoXgylgBpgLSkAZWA7WgAqwCWwFO8EesB80gqPgFDgLLoEr4Aa4C1dPN3gB+sE78BlBEBJCRWiIHmKMWCB2iBPCQHyQQCQciUVSkDQkExEiEmQGMh8pQ1YiFcgWpAbZhxxGTiEXkA7kNvIQ6UVeI59QDFVBtVBD1BIdjTJQJhqGxqMT0Ex0MlqMLkCXouvQanQ32oCeQi+hN9Au9AU6gAFMGdPBTDB7jIGxsCgsFcvAxNgsrBQrx6qxOqwZ3udrWBfWh33EiTgNp+P2cAWH4Ak4F5+Mz8KX4BX4TrwBb8Wv4Q/xfvwbgUowINgRPAlsQjIhkzCFUEIoJ2wnHCKcgc9SN+EdkUjUIVoR3eGzmELMJk4nLiFuINYTTxI7iI+JAyQSSY9kR/ImRZE4pEJSCWk9aTfpBOkqqZv0QUlZyVjJSSlIKVVJqDRPqVxpl9JxpatKz5Q+k9XJFmRPchSZR55GXkbeRm4mXyZ3kz9TNChWFG9KPCWbMpeyjlJHOUO5R3mjrKxsquyhHKMsUJ6jvE55r/J55YfKH1U0VWxVWCrjVSQqS1V2qJxUua3yhkqlWlL9qKnUQupSag31NPUB9YMqTdVBla3KU52tWqnaoHpV9aUaWc1Cjak2Ua1YrVztgNpltT51srqlOkudoz5LvVL9sHqn+oAGTWOMRpRGnsYSjV0aFzR6NEmalpqBmjzNBZpbNU9rPqZhNDMai8alzadto52hdWsRtay02FrZWmVae7Tatfq1NbVdtBO1p2pXah/T7tLBdCx12Dq5Ost09uvc1Pk0wnAEcwR/xOIRdSOujnivO1LXT5evW6pbr3tD95MeXS9QL0dvhV6j3n19XN9WP0Z/iv5G/TP6fSO1RnqN5I4sHbl/5B0D1MDWINZgusFWgzaDAUMjw2BDkeF6w9OGfUY6Rn5G2UarjY4b9RrTjH2MBcarjU8YP6dr05n0XPo6eiu938TAJMREYrLFpN3ks6mVaYLpPNN60/tmFDOGWYbZarMWs35zY/MI8xnmteZ3LMgWDIssi7UW5yzeW1pZJlkutGy07LHStWJbFVvVWt2zplr7Wk+2rra+bkO0Ydjk2GywuWKL2rraZtlW2l62Q+3c7AR2G+w6RhFGeYwSjqoe1WmvYs+0L7KvtX/ooOMQ7jDPodHh5Wjz0amjV4w+N/qbo6tjruM2x7tjNMeEjpk3pnnMaydbJ65TpdN1Z6pzkPNs5ybnVy52LnyXjS63XGmuEa4LXVtcv7q5u4nd6tx63c3d09yr3DsZWoxoxhLGeQ+Ch7/HbI+jHh893TwLPfd7/uVl75XjtcurZ6zVWP7YbWMfe5t6c7y3eHf50H3SfDb7dPma+HJ8q30f+Zn58fy2+z1j2jCzmbuZL/0d/cX+h/zfszxZM1knA7CA4IDSgPZAzcCEwIrAB0GmQZlBtUH9wa7B04NPhhBCwkJWhHSyDdlcdg27P9Q9dGZoa5hKWFxYRdijcNtwcXhzBBoRGrEq4l6kRaQwsjEKRLGjVkXdj7aKnhx9JIYYEx1TGfM0dkzsjNhzcbS4SXG74t7F+8cvi7+bYJ0gSWhJVEscn1iT+D4pIGllUlfy6OSZyZdS9FMEKU2ppNTE1O2pA+MCx60Z1z3edXzJ+JsTrCZMnXBhov7E3InHJqlN4kw6kEZIS0rblfaFE8Wp5gyks9Or0vu5LO5a7gueH281r5fvzV/Jf5bhnbEyoyfTO3NVZm+Wb1Z5Vp+AJagQvMoOyd6U/T4nKmdHzmBuUm59nlJeWt5hoaYwR9iab5Q/Nb9DZCcqEXVN9py8ZnK/OEy8vQApmFDQVKgFf+TbJNaSXyQPi3yKKos+TEmccmCqxlTh1LZpttMWT3tWHFT823R8Ond6ywyTGXNnPJzJnLllFjIrfVbLbLPZC2Z3zwmes3MuZW7O3N/nOc5bOe/t/KT5zQsMF8xZ8PiX4F9qS1RLxCWdC70WblqELxIsal/svHj94m+lvNKLZY5l5WVflnCXXPx1zK/rfh1cmrG0fZnbso3LicuFy2+u8F2xc6XGyuKVj1dFrGpYTV9duvrtmklrLpS7lG9aS1krWdu1Lnxd03rz9cvXf6nIqrhR6V9ZX2VQtbjq/Qbehqsb/TbWbTLcVLbp02bB5ltbgrc0VFtWl28lbi3a+nRb4rZzvzF+q9muv71s+9cdwh1dO2N3tta419TsMti1rBatldT27h6/+8qegD1NdfZ1W+p16sv2gr2Svc/3pe27uT9sf8sBxoG6gxYHqw7RDpU2IA3TGvobsxq7mlKaOg6HHm5p9mo+dMThyI6jJkcrj2kfW3accnzB8cETxScGTopO9p3KPPW4ZVLL3dPJp6+3xrS2nwk7c/5s0NnT55jnTpz3Pn/0gueFwxcZFxsvuV1qaHNtO/S76++H2t3aGy67X2664nGluWNsx/GrvldPXQu4dvY6+/qlG5E3Om4m3LzVOb6z6xbvVs/t3Nuv7hTd+Xx3zj3CvdL76vfLHxg8qP7D5o/6LreuYw8DHrY9int09zH38YsnBU++dC94Sn1a/sz4WU2PU8/R3qDeK8/HPe9+IXrxua/kT40/q15avzz4l99fbf3J/d2vxK8GXy95o/dmx1uXty0D0QMP3uW9+/y+9IPeh50fGR/PfUr69OzzlC+kL+u+2nxt/hb27d5g3uCgiCPmyH4FMNjQjAwAXu8AgJoCAA3uzyjj5Ps/mSHyPasMgf+E5XtEmbkBUAf/32P64N9NJwB7t8HtF9RXGw9ANBWAeA+AOjsPt6G9mmxfKTUi3AdsTvianpcO/o3J95w/5P3zGUhVXcDP538BAEt8i7U6b0IAAABcZVhJZk1NACoAAAAIAAQBBgADAAAAAQACAAABEgADAAAAAQABAAABKAADAAAAAQACAACHaQAEAAAAAQAAAD4AAAAAAAKgAgAEAAAAAQAAAj+gAwAEAAAAAQAAAH4AAAAALcx92wAAArZpVFh0WE1MOmNvbS5hZG9iZS54bXAAAAAAADx4OnhtcG1ldGEgeG1sbnM6eD0iYWRvYmU6bnM6bWV0YS8iIHg6eG1wdGs9IlhNUCBDb3JlIDYuMC4wIj4KICAgPHJkZjpSREYgeG1sbnM6cmRmPSJodHRwOi8vd3d3LnczLm9yZy8xOTk5LzAyLzIyLXJkZi1zeW50YXgtbnMjIj4KICAgICAgPHJkZjpEZXNjcmlwdGlvbiByZGY6YWJvdXQ9IiIKICAgICAgICAgICAgeG1sbnM6dGlmZj0iaHR0cDovL25zLmFkb2JlLmNvbS90aWZmLzEuMC8iCiAgICAgICAgICAgIHhtbG5zOmV4aWY9Imh0dHA6Ly9ucy5hZG9iZS5jb20vZXhpZi8xLjAvIj4KICAgICAgICAgPHRpZmY6UGhvdG9tZXRyaWNJbnRlcnByZXRhdGlvbj4yPC90aWZmOlBob3RvbWV0cmljSW50ZXJwcmV0YXRpb24+CiAgICAgICAgIDx0aWZmOlJlc29sdXRpb25Vbml0PjI8L3RpZmY6UmVzb2x1dGlvblVuaXQ+CiAgICAgICAgIDx0aWZmOkNvbXByZXNzaW9uPjE8L3RpZmY6Q29tcHJlc3Npb24+CiAgICAgICAgIDx0aWZmOk9yaWVudGF0aW9uPjE8L3RpZmY6T3JpZW50YXRpb24+CiAgICAgICAgIDxleGlmOlBpeGVsWURpbWVuc2lvbj4xMjY8L2V4aWY6UGl4ZWxZRGltZW5zaW9uPgogICAgICAgICA8ZXhpZjpQaXhlbFhEaW1lbnNpb24+NTc1PC9leGlmOlBpeGVsWERpbWVuc2lvbj4KICAgICAgPC9yZGY6RGVzY3JpcHRpb24+CiAgIDwvcmRmOlJERj4KPC94OnhtcG1ldGE+CsuCVBMAACp9SURBVHgB7Z0HmFXV1f7fQ++9CkFUFEQQEZEiSgfpKoIiYgFrEo0ay//T5EvMp0mMxhhbLNFEYo0FBKWqIHZBBQtiF0UsNOmIwP6v9xxGhmGGmblzyz73vvt5Zm47ZZ/f3uecdfZe612AigiIgAiIgAiIgAiIgAiIgAiIgAiIgAiIgAiIgAiIgAiIgAiIgAiIgAiIgAiIgAiIgAiIgAiIgAiIgAiIgAiIgAiIgAiIgAiIgAiIgAiIgAiIgAiIgAiIgAiIgAiklUBQmr3Vr1/ftWzZsjSraFkREAEREAEREAERyAiBN954Y6XtuGHBnVco+MXePtPwWbBgwd4W0W8iIAIiIAIiIAIi4AWBIAiWFlaRcoV9qe9EQAREQAREQAREIFsJyPjJ1pbVcYmACIiACIiAEdi4weH71U4s8hEo1bRXvvX0VgREQAREQAREwGMCK79zePpRh2efBrZuBbr1dBgxJkDLVqVy9/X4CBOvmoyfxNlpTREQAREQARHwjsCypQ5THnZ48RnA2YDPUX2BOnWBZ54CXp7j0KFzZAS17QCYT4x39U9HhWT8pIOy9iECIiACIiACKSbw4WIzeh5ymP8SUKkyMGAEMOTEAA2bRAbO8ac6zJoCTH/c4Q+XOLQ6GDhuDNCpO1CuXG4ZQaU62k6dOjlFe6W492rzIiACIiACIlBCAs6GdhbNB540o2fxIqB6TeDY4/kXoFbtwm/xW39wmDsDmPpfh+++BvZpAQw/KcDR/YAKFQtfp4TV8W4xG9l6wyp1RMGKleooZfwUxKfPIiACIiACIpB+Atu3O7z6fGT0LP0EqNcAGDoqQN+hQJWqJbu1F9xGfVPD4UhRabaR/iMv3R5l/JSOl5YWAREQAREQAe8IbN3q8DxHbR5x+HbnqM2IkwP0ML+eREdtfho9Mj+hxQtLNnrkHZgiKiTjpwgw+loEREAEREAEfCewycLV6a8zzfx11q4BWrUxf51TgqT76xT0G+o7ZHe/Id85FayfjJ+CRPRZBERABERABDwnsGaVCx2UZ00FNm+ERWohDFdPdaRW/ogxIurex/yCbISpxX4lm1LzBauMH19aQvUQAREQAREQgWIIfPOVRW7Z1NbzM4Ht24GuPc3oMeNjvwPTa3xQK2jaYy4Mk/9hi0WGdYuMr9bt0luPYnAV+bOMnyLR6AcREAEREAER8IPApx9GGj2vzjMfnvJAr2PNkXl0gCbNMmtsrF/rMPNJYMYTDuvXAW3aR0ZQxy5+awXJ+PGjX6sWIiAC+Qjs2OEs3BbocjQyfnHPVy29FYG0EqDD8XvmaMxw9bctd3jV6qbRMxwYPDJAnXqZNXoKgtiy2WHOdOApC5Nf+R3QYv9oOqx7b6B8eb/qyrrL+CnYgvosAiKQcQKvPu/wt6sduhwDXPJ7pRrMeIOoAmklQON//osI1Zg/XgLUNhVmhpr3HwZUq+GfIZEfzrZtDi8/ZwabRYgt+xwmpAgMsxEqjlRVruJP3WX85G+1GL7fYZoO774F+3Oh01mNmv50rhjiVJU9IECNkUsnOCz/wp7OzO65+f4AjZqoX3vQNKpCigls+9HhBUs9wRQUy78EGjc1w8H8eXoONGXmSvE6B2jAvfUqMNlGrT58D6hVJxJYHHgc4MN9qijjR+ktUtzJy7r5b5fT4c3UOM3pbZUNMbJQtvzE06L3+i8CcSUwbxZCw+eMXwaYeLvDjEkOp50frwt/XNmr3pkhsHlTlGSUyUZXr4QlGAV+9dsgHPn0ccqoJJSYFoPpMTp1D7DkHRdO3f33X/RbAvoNdeFIVr2G/p3XMn5K0rppXuaHLQ6vzQPmzIgEp5h37lAT5x53XoDnnjav+6nO9B3MGa6Cfx0qzai0u5gS+NGE2h67z2H/1pEUP58Yn5sGjDrdoWo19euYNquqXQSBdd9Hxv2MycDG9cAhhwHnXRaE13UbmShirfh93aZ9YI7QAZZ+EkWqTXvc8ojZQ80xA2zGwqbE9mnhz7HK+PGkf9Hh7aPFsHwrNo86x/QcNtlQ6D7ASeMD6zhAg0ZRp6lcBbjuymieuFsvTyqvaohAKQkwuzSdJc+9NAizSg85Mco2zXxDg04o5ca0uAh4SmDFNw5P2SgPDfutPwCde0QRUgce7I8RkAp0+x4Q4IIrA7t/2fGbYzSPf+50hyOPjtw2WrXJ/PHL+ElFy5dimxSwmjc7Mnro+0DjhnoOvY4NcPChe4YQHmYCV41sfnjmZIduvTLfgUpxqFpUBEICjBaZ9IBDW3v6bd8pgtLKbgYHtY3E3AZaJupyHkaNqPlEoKQEln/h8IT18ZeejfzZmDB0mCUObb5vbl2z6cM3/sIAI8dFI18zbeTrtXkO7Tq6UKiR53+mRr5k/JS0NydxOTq7vWkOYnPMEl74OrBjB9C6XTQMSsNnb8P+vCkwBPL+Ox2++NRZmGFunUxJbAZtKkMEpk9CKM//66ujUZ+8agy2KJeb/uDwxivRE3Le93oVgTgRoHH/u4scKAg4aGQUvVXfQ5+XdDKtXZejQIEF60Q+TxwNuvZyh5smBmjaPJ012bUvGT+7WKT83RefmeOyGTz08l/3PVC3Pp8GbJRnYOnmQnsPAh75l43+POlw9sUyflLecNpB0ghsWG+6PhbhcnhXGvy7990jTeunYWPgaVOT7dxj99+SVgFtSARSTIBTt7y+X32z+b8U6OMp3rX3m+eD/dBRAEd3Fy+CGT6ZO89l/KS4u2y0ZHQc+qTz8qcfmAiUET/CPON727TWoTaFlYiHf41azOBrRpRNl51ytkN1z/UgUoxYm48RAT7xbdwAnDxhz4sez4WBx9uo5h12rpjK7f4H7blMjA5VVc1BApRvoI8PR/Jl+BTdASpaOD9zlGWymLqGSrIJUPfg7QUON1+zA+eOdLjn7w7bfgRO/0WAOx4NQjG3jl2DhAyfvLoOGBGEw6p8ylARgTgQ+H615Qiy6I+j+gB0iCys9Bkc+b0xc7WKCMSNwKvPAyu+McVj8+9R8ZuARn6S2D7ffU09HtPlMYOEkSzVawK8mPcaFFgyuuQ6dvGpmA6is6e4MDqGWgsqIuAzATo5/7jVwtnPKLqvchSz9yDr11OBsec4mxouelmfj1V1yz0CjNilaOE+LYDDu+Xe8cftiGX8lLHF8jR5GKLO3Cx5mjxjzw1wxFGpVesceHyAW661UaY3AEaBqYiArwQY8kuDhv5qxc3zDzohCKMZZ5lPG50kVUQgDgTeeRP4/OMocEUPo/63mIyfBNoo1OR5P58mz8bCNXkS2HSpVmEyyImWC2aWhb0f1lk3iVLB08JpJfDYRAcOTp4wrvh+yuzVnbpHxtLxY50pmhe/TloPRjsTgUII0JGfQSw9+hbyo77yjoCMn1I0CX0WKMnPqa2vlhavyVOKTSe0KJ3G+g6hZgrAKbdGTXWTSAikVkopga9M8+R5O28Gm3hhnlhncTtkNusFL0VO/X2HFre0fheBzBL47KNoBP6UcwLwuqziPwEZP8W0ETPXMmkbNXneem2XJg+Vabv12rsmTzGbTsrP/YYFmPwgn5Kd+UjopEsKVG0kqQSY56ey5aM77pSS98+2HaK8R3R87jMkuf5yST04bUwEjMDUR5iWBegvQz02/UHGz16a6o1XHO643pVJk2cvm0/KTxTP6twjkg9nXiRNESQFqzaSJAIMWWcEzMhxzPZccuOHqq+DLeXF7X9m5CQyHhabJBzaTBYS4Kj7K3NNzHAUUE2yI7FpYYW6F9FUHy8x9UlTm63XALjijwFuezgwTZ1yXiVmy6v6wOMCbFgHvPRc3jd6FQE/CDxyr0ONWjBhs5IbPnk1794LqG0+bQp7zyOiVx8JUJQzsDvpYHPUV4kPARk/hbQVI1P+cpVDnXrAldcFpkZbNk2eQnaR1K84RdC8ZZTvi87YKiLgA4H3347St4w4OUjoiZi+EzTsmQJm2VL1ax/aVHXYncC6tdGoO3N31cvxFBa7k/H/k4yfAm20yRSZ/2xZ0ylKyBEf5iTxvXCKYKCJHn72EfCRRaGpiECmCdAIf/ieKPpl4HGJ16b/MKBiRY3+JE5Qa6aSwKwno2ztw0b7f59IJYc4blvGT75Wo3PzjVc7fP0lcIklXYxTBt5jBpjzdfUo7D3fIemtCGSEAEdrlrxjoe2nBqhcJfEbA/2Eju6PMMpyvT1lq4iALwSo8TZjkkMnEzRs3jLxPu7L8eRaPWT87GxxPqn+8yaHd0ww8JxfB2jXMV6duUrVAD3NAHrleYAh+SoikCkCTO/CUZ9GTSOF87LWY5CFvVMZ+pmnyrolrS8CySMwdyawfq2lsrBpXZX4EZDxs7PNpjxs4ezT+KRq6Sgs6WgcC/N9cbruOTsOFRHIFIHX5kVKt6NOD1ChYtnPpRb7WRLgTpFP27YfZdhnql21310EmMD0aUvSe1BbhElMd/2id3EhIOPHWuqVuQ4P3u3ChIujzyz7xTpTjd+sRYD2dpN4xjR/eHKqiEC6CbDfUdeHDvjJVLodfGKANauikc10H5P2JwIFCbz+AvDt19GoD30uVeJHIOeNnw/fc7jtTy603s+7PLDcXPHuyIyOWbUCpo4bv86oGsefABXQl5vP3MmWk6tc+eSdSx0sdx0TRk6zsGJFNMa/n8T5CNj/mMC0aXNYGpY4H0lu1z2njZ9vlztc/1vT8mkIXPp/ASpZaG3cS6euTCFgjs+WFFJFBNJJ4MetDo/d53BAa4RJfZO5byaKpI7Kpx9GjtTJ3La2JQKlIfDeWwj74bCTzMBnwjqVWBLIWeNnw/oopH37duD//SlArdrZ0Yn5tN1/eIB37QRd9rkMoFielTGtNB2SV35noz5npWYElRGNFEykqFwulXXfO7vZ5tYx+9y+UyyVBTXgGIWoEl8COWn80Gnyxt85SwZqIz5/CLDPz7LD8Mnrhn0GR9ooGv3JI6LXVBPYspkJdh0OOQxof3hq9saQ+X6WO4lTuhy1zYVCH6prL3f4zS8tmbIliFXJLIHPP3FYNB8YZKOQ2TBTkFmamd17zhk/nK+960aH9xYC510WoG2H7DJ82J2ojdKtN8JM2ps26oKZ2VMsN/Y+/Qlg7Rob9ZmQmlGfPIoU8yxnVy3qq+RCeeq/UeQcZ1fuMSkO+TtlttWZwLRKVUtgOjyz9dDey04g54yfJ+43o8D0GUadYeJp/bLP8MnrEnR83rI5EofL+06vIpAKApxCpgMoxd4OOiS15xRTCHTtZbIU04FsN+yXf+nw6L8djjwaOO3nQfjApvx9qejBJdsm0x69bPkTOfpYXQlMSwbN46Vyyvh58dkoDJdztcwync2lVZsArdqYNoo5PutpMZtbOvPHxqfhzZuAk8an1vDJO9IhFvbO/VGXK1sLhSLv+qtDpcrA+Auj6T46kk+83YEpeFTSTyBMYGpdnLILKvEnkDPGz5J3HP7xF2fTXMC5puAc95D2knS9ATb6s/wLhM7PJVley4hAaQlQTZxTXt37APsekJ6bwgGtA7RpD0y3qa8d5hOTjeXZp4H33wbGnR+gbv1INuCsiwOs+x54xHSUVNJLgKlVKB7bwxKY1lcC0/TCT9HecsL4+XqZww2/dWjYGPj11QGYLToXSrdeQM3akTJuLhyvjjH9BOjkzNQTo20aOZ1lsKW8WPENMD8L9axWrXB44E6HduY43uvYXVT3PyjAAPM1mWnJNBX9tYtLOt7NmgL8sAUYqgSm6cCdln1kvfFDi/06y9IOuzYzpL1GrfRepNPSikXshNEIjPxa8LKFIH+rp8UiMOnrBAnQB2L2VKC39bEmzdJ7XnU+CmjYJPuyvXOK+p9/o0K75Ri8ZM8R6pPMobyWPdDQ+ZlTYyqpJ7D1hyiB6eGmocZUKyrZQSCrjR+Krt3wv85u/JGIYbov0D50kf7DopN1tqW8UBGBZBJ4bKIDo5BGjkv/DYF6VoOOD8LM8Z98kD19++U5wJuvRv5TjffZkysdbcedF+DjJcrhl8y+vLdtMUCG040UNVTJHgJZa/zwCeqOG1x4cTz/CvMRaJebHbdhkyCMwqEPwVYzBlVEIBkEli11oZTCgOMy5wPBEaeq1bJn9Iej1P++NVLIHnxC0a1EvxP6LjIfIQUQVVJHgD5lUy2BaauDgYMPTd1+tOX0E8ha44cy+y8+E+mOHNUnNw2fvO7EsPf1a4FX5+Z9o1cRKBsBJi+tbJFIx43J3LlVrXoQ+sS8YqMlq81PJu7lPovk2rg+0h/bW140BmtM+JVJWVjE2wN3xf+4fW6311+koKYlMLVRn1wIkvG5LZJdt6w0fp6fZTmGJpovwiC7OJ+SbGTx2x4Vd/f5WRT2Hr/aq8a+EaCz7WvzgCGjIkHNTNaPSrs7dsS/by983eGF2dH1qsX+xRuUzVsGGGr8585grjMZQKnog5w9yEtgSh8zlewikHXGz3sLHe606S5GSjA0VNa6+Xrbk+IAU8b9+H0gm/wjsutUjM/RPHKvC3NsDR1V/E061UdFv5gj7MbEvGI/bImnEbB5k8PdpjrfbF/g+LElZ3qC+VoxifE/zfl527Z4Hnuq+0dZtr94Ea+XUYTX3kbiyrIPrZs5Alll/DD3zV/NwblJM+CS3weoUKHkF5LMNUF69txzIEJZ9pmTdZFMD/Hs3MviRQ4LX4+muzjt5ENh2PuGdaZmbiMncSwP/dNh1Qqb7rq0dDIcVaoGOOOCAF9+ZppHprWkklwCHPWpXRdgQl2V7COQNcYPHf+u+x+HChUtpP2PgeTHC/RV3qiobE159nXmWKkiAqUlwGkAjvrUrQ8MNEdnXwodUfc7MHJ8jlv49wfvOswy3R7yTCQ1yBHdAYZgMw0G9YFUkkNg6SeRkX+sRRQqgWlymPq2lawwfhjFdP1vHFavAi67JkCjpn48kfrW2EwK+eOP2Z0WwDfm2VQfjvgseScKba9U2Z9zjNO6THlBNfO3F8SHOK9bjEit3xAYc1ZiPHnsZ9roD/2e7rtNxk+yWp8RXpWrIBSVTNY2tR2/CMTe+OGT3u3XOXy4GLjgygAHHpzYRcSvZklNbX62X4BDDgNmT8netACpIaet8jx7+B6Hxk2jQALfiHTrhXBEivmX4lIm3e9Cg+1sS7fDKaxECx/2Tjg1CJ3Q6TitUjYCFITlCHnfIcgpUdyyUYvf2rE3fhhyy1DXsecE6HJM4heQ+DVdYjVm2PsKE32kkJqKCJSUAKO7Pv8YGGVpLCpU9O88Y53o1M+Rny8/898A4LTKkw8hnIo+rHPZeQ4bDTRtDtx7s5OeV0k7dRHLTXucyaAtmlEJTIsglB1fx9r4mTPdYdIDZqEPpfpmdjRIqo+CkTEcZme2dxURKAmB7Sb0Rl+f5i2Bo/qUZI3MLNNvGCxvn/+ih+TJ6a7qNYHTf152w4e0ma9wvGn/UJOGRpVKYgQ2rHdh5CD7eYPGyWmbxGqitVJNILbGzztvRuGhhx4BjL9QIe0l7SjlLS1A36HRE/Jyi45TEYHiCMybBXy9zARDx0fZxYtbPlO/16odhJE51MvxWfl42uOWmNRCqOmrU9PqnKxyaKcA3Xub8fOgwzdf6dxOhOvsKVECU6WySIRevNaJpfGz7HOHG3/nsE8L4OL/VUh7absc57LLVwBmme+PigjsjQDz4z1qaumt2iDU09nbsj78NthED+nUz4SrPhYaJZyqZ5QW/ZSSXcadz2nJaPqL0XkqJSdAB/TpTzgcdiSw7wHJM0pLXgMtmU4CsTN+vl/t8OcrHSqZtD5D2qtZoj+V0hGoUy8IL7xzLWHfls26QJaOXm4tTfHAVd/ZqI9FI8VBMJTKxx06m2Fv07o03HwqNEYoZsgHD6anSAXPeg0CjD4zwKL5wOsv+HT0/teFI5xr1yiBqf8tlZwaxsr4oYIrQ9qZYfcKM3w0J5t4J2DY++aNCCX1E9+K1sxmAjSMJz1gaukdgfaHx+chY7A5qn6/2jSt5vrVOnOmA+++FQVn1GuYOp7UDGrZCmGSVKpHqxRPgAlMn7Lw9v1bI4yILX4NLRF3ArExfhhqe+ufXCg3fsFVAfY/KHUXj7g3aknqf2DbSBiOjs8aHi8JsdxbhqrBfBI+aUK8zrUO5gfYbF9zfLawd1/69uqVDv/5hwuzsXPaOZWFfn0TLgqweiXABM8qxROY/1Lk16YEpsWzypYlYmP8PHi3C4dxOafd+ah4XYx97CwccmfYO6Xx33/bxxqqTpkkwKgXyvvTN+WgtvE639i3mfKCofm+9G2GoNMX6RzT9ClXLvU82WY0suhc/cWnMoD2di7RQGZfp4ZVl6P3tqR+yyYCsTB+Zk91mPqIScCPgF3Usgl/Zo+F4Zw1alnYu/J9ZbYhPNw7bwabNyH0H/GwesVW6Zj+QE3r2z6IHr42z2H+i5FGUtPmqTd88uBQNbp6jSjxadzSfuQdQzpeaSB/vEQJTNPB2qd9eG/8LJzvcO/fHTp2MU2MX6bGSdCnBklnXZiioPexkWPkauUFSid6r/fFoAJOeXU34ziuUS/s29T9eeNlZDTse8M6h3vs+sXcY0NHpbfZGUY/9twAH7xrSV/NmVelcAJTH3GoVQfoZddCldwh4LXxw+Ham652+Nl+wK9+G4Bz2SrJJdB/eBCqmT7zlIbGk0s2vlt7wtIubN9moz6m5hznQsXncuWBGZMy17f/c4fD+rWWsf2yzFy/eg5kwlTg/judZb7PHAdf+9EXn7lQ7T5MYOpRvjpfeWVTvbw1ftasikLaq1SNIruqVov3hdjXTtN4nyAcVWNI87YfdXH0tZ3SVa/vvokUbnsPBpo0i/c5x7Dv7r0ska9FWW3akP6+/fYbDnNnAMNPZvRVZljSv+gsc37euB546J70M0hXv010P4zwUgLTROnFez0vjR+G2P7lKj6pRIZP/RSGhca7+ZJTezo+M6qH+ZtUcpsAo4PojzvSEmVmQ2HY+5bNwLPT0ns0vIbd9VcX5tsaeVpmWXLqctAJxsAecD56XwZQXk9YZVP9Lz4D9DFDP5lK23nb16vfBLwzfqi3cMsfHT6zSI2LTL15vwMze+Hwu/mSUzumCGnSTPm+kkMzvltZttRh3mwLLDCdmFTq0KSTECUxDj7U+rZNfTGnVroKVZxXfAOce2mASpUyfw078fQAdeqZ8/PfHHiNVcmTQrAgGjOQVXKPgHfGD+fIF5jmwpnm3Hx4V3XKdHRJDo0PMN8fOkZ+9pEujOlg7uM+eMOubMrpI07JrvOO2blXfIsw4iod3Dm6whDz/sNhhpcfLKtVD3D6L6Lw/1lT0kHB731stGlQTvV36w00auJHG/lNLPtq55XxQ8dEXjQYzs6pGJX0EehpkQ6c+1a29/Qx92lPn37owmlPRiQxQWg2lU7dEGq4pCPsnX5zd1rG9noNgFPO9otj154AR3kfvteZAnZuP+QwgSmnQylqqJKbBLwyfr6yLOMUVRt3njpkurtjjZoBevQDXnoWigpJN3wP9vewOcNSF2fIqOw798pZlOixlvD0w/dMzyXFPi+TH0IoHHrWxZZ30EZbfCoUfxx/oSV+3QpwhD1XS14CUxqCmXJEz1X2Ph23V8YPT8yLf8fwVL8uGj41WCrrwnxfW3+w6BiLUFHJHQKLF7kwESanu3y7YSerFXoPAqpWp+Jx6m76X1rYNGUCKB7q65Q9RRZHjEHo6Pvum6ljkax2S8V2XjC/NuZ+G36y7jOp4BuXbXpl/PDJpEJFdchMdR5GhbRpD8y2fF9ShM1UK6R3v5T256hP3fqRgnp6956+vVEqo48ZQK8+b1nqUyDoSSfiOy26q1o14AzzV/S5HDcmCKcBKb6Ya/IWvK5R1JCik0zYq5K7BLwyfnK3Gfw5cvpaffs1sOh1f+qkmqSOwMLXEDq6MxybqsjZXDj1Zfe+MPIr2cc5Y7KFkS+OVOhr1fGbI9v5TBtlX/4lMPXRZJPwe3tU/P56WTTqw4dtldwlIOMnd9u+0CM/sgfCUQA5PheKJ6u+5FMwnV+Z0JHTQtleGNXD/v3M03R2Td6UD4UhOXp22JFAj77xoNixi7GwJJ5P/MeB9c+VMsVGfRpZf+9yTK4csY6zKAIyfooik6Pfc9qx79AAC23k55uvcueimIvNTVFLZj4fdaZNN1fIjadgarpQ7ThZua44bXj3jQ4cRDjbnJzjNJrA0HfW+75bc+M8X/KuC53eh5pTv1Il5eIVb/djlvGzOw99MgL9hgLlrGfMmpIbF8VcbHQK/j1ioz7Mm3dU79wh0NryXO3fOnJ8ToZfG42otxdEYe0NGpslEaPSoFGAE226c4FNBS14KfvP9akPRxGNSmAao06awqrK+Ekh3Lhuum59GxK3YeG5lhPphy3Zf1GMazuVpd7Pz4x8H04an1vRlRyZoegh/T44ulmWQq2c+253aN0uEjQsy7Yyte7gE4HmLYF/2+hPNp/rVC+nkTfw+MD0zOJlpGaqb2T7fmX8ZHsLJ3h8DHvfuMFCYk33RyW7CFDn5LGJDq0ORqirlV1HV/zRdO0Z+bWVNez9X7fQYIhSWFAlPY6F051MfEoF7EkPZO+DDhOYVjL1cqZuUREBEpDxo35QKAGGvLfY36a+LOydfg0q2UPgmakW7v0dMGZCvHxUktUCvOFzBOCdN4AvPk2sb8+3aSKGzY8cF6BZi3gaPnk8mYKj50BgyiMAhWazraxeGeWso1N/tqmXZ1tbpfN4ZPykk3aM9sXpgWMt7J0OsR+YMm5cCv04OLKhsosAeXy73OH9tx1ees6FT/jtDjedk8PjfdPedYSlf9ff/No4EpDI6A/zQt1zkwsfDoafXPp9+7jG2HMCVLH0Nvea9k+2PexMf4K6ZQAdnVVEII9Ahbw3ehWBggSOsrDd+++MdFHatPP7wrFtmwP9WBi6u9JGNarXcKhtWazr2h+zWfOvdr0os3X+72pYSoe4TlnQ0Fu/Fli9ctffmlUu/Lwm33cb1u3esszhNuYsv9tz9xon/1ONWjbaMcBhrqmZjznL+krdkvN44E7LjbUGuOya7ImS4/GPOcuyvptR9/Jz5gQfk5D94nrGJjNUZ9tIZ7eelsC0acnbuLjt6vf4E5DxE/82TNkRVKkamP6Lw4xJAG+qdIT2rVBZ9yW7WD96H0c3EPqx9BkSYO0aJm+MZOw/XhK9FubQWb68GUV1XT4DyQyluvQJiQwlGlDRZyZ+Td/xs640atas2mnYrODrLsMm/N5+275t9xZh6HJtqz8TazZqgtAZt16DINRu4nf8a9DYUj2Y4nGul0EjA7sxRjfHE08rGY1333J41nSCho0GDmidXQz7DrHUNhbkMPEfDh27ANVqxP/4mLl980ZrLyUwLVkHz6GlZPzkUGMncqj9hwdgNmxe8Et6g0hkP6Vdh6Me1Kmh0fPVUiYoBC6/NrCcStiptbLnhZvCdjQa8oyi6HWXkURj47OP7Hd7qne2/YKlarXISKJxwZEkpoQIR5Pyfeb3tWrbaFIR+elorK1bm9+gyWfU7DR0OGpDZ/OCpUrVyHihAdPmUHtv+69rhk1o1DSMfuP+pWFSkFzhn+mrc9iRLvRrG3EyULHSnn0m/5o0SO+yFBaN9zFtpDP2vmz+9eLynn32rIuBK883GYR/OZx5QbyP8Ueb7uW0ZvtOJm9wULyPJS59KE71lPETp9bKQF2ZCJE3iGfsCfm4U5BxMTz6I7z5CsKL89JPgGb7IkyGS7Xa4qavOJLVtDnCv10o97wo5hkoNIJoIK21v8hoiqY7+Jn7XrSAT5V7GkmBedLVqh0ZSjSQKlaK1qdRw+3Q/yB/4fKciuOyTZsBh3Sw9w13GjVm6PB7GjjZmnQ0P4t0v2fY+7WXR6OHxem/5I0u/vav2RsuTSNhwHCHmU/CnKBdrI0GRqryfPv5FXue4+nuZ9qffwRk/PjXJt7VaICFvf/lKof5L9rcea/MVI9GD6NzKMzHaSw+ff/yf4Iwg3ZRoyyJ1pTb4wgK/3BA/q3seRHlaMDanUZSaCDZ+7Wm/5I3urTGDKWtW8yAMeOl2eGREcMpNRoz/I6vnFZL9jHkr7XeF02AowIUeuQIASOeilJo/uQDh6csDxanhtp13LMfFL2H+P1ykkUBvjovcur+v1uLf6jw8Qg5MjzVwts5Isw2VhGBggRk/BQkos97EOhoOYuYD4dh7916pf/CzyglGj3vv23+Ko0iXZVjBmR+FIqg6AdENvzbVdLPaNe+9a40BGjsDB4J3HmDw3sLC8/0TWf6O663kTwzUseem/1tW918fcadB9z6J4fnpkWK76Vh6sOyb71qYftLgQuvyk05Bx/awPc6KNTd9xbyoH4clRhgvj+LFyWui5LIYXz8vrMpiR34/UUuVOQdf2GAmyYG6DM4e6JsEuGidZJLgMlIa9a20R/zbSusTDX9my8+BSb8KrAowuw3fsigRz+g7WHAg3ebj9r3hXMpjJUv3zGBaUNz7O/ay5caqR6+EZDx41uLeFofCoTRdyUd2d4//8Th+t/swFW/cKED8qnnBbj5fhOmM92h4pxSPcWnanlMoFJlGvfAmzZa8PWy3W/0FP2jGnbXnkDnHrlh+LCpOCJGY2/LJuCBu3Zn4nFThlX7wBKYLnkHGKIEpr43VUbrJ+Mno/jjs3PqovAJ+YXZjERKzcWQ+Xdu+sMOXHG2C0eZmHfqlgcCCyvOXgfT+PSA7K4p/drKmewBBfHyCv1GGN1FXaS4Rz7lHVNpXpvvG2DoaMvxNwNmTOziUpptZGLZqTbqQ/0uPrCpiEBRBGT8FEVG3+9BgDcI5jKimGAyyzdfOdz25x24dILDW68BJ5wK3PJgYK+B9GiSCVrbKpJAHRPAPKpPdKPPM+4pjscRhNPOpwN87oz65IfEc5B+dhQ/pO+T74UjdWECU8vhxehOFREoioCMn6LI6Ps9CDAM9qC2keMzn4rLWlZ+Z0/WN+7AJWc4vDLX5OdPNKPHRnpOGl8ONWrqwlVWvlq/dAQY9k7j/tmngJXfOjxo0z2HdmLId+m2k01L04A4w/R+vvwModip78fGBKYVKiJMzeN7XVW/zBJQtFdm+cdu70wIecu1Udh5h86JVf97CwWf/GCkrGsR7Og3DDh+LFWIZfAkRlRrJYNAy1aBOfmaovnkKPKLffPsXyta6IjuCMVDH/03oz2B+qZB5WOhCv08m5bvM9h0tur4WUcfueVqnTTyk6stn+BxdzExQSocz7QbRGnLurXOcoXtwAVjTURtMnBMf+DvFr01/sJyMnxKC1PLp4TAEEt5wYz3C18HTja9m0ZNdBOl8zN9nrZvB+67rfTnfUoaqpCN0l+LdeQInooIFEdAIz/FEdLvuxFgtFXfIcwMDnz3jSvRzYE+FE8/an+PIZxWYBjtiacFaNJMF6nd4OpDxgkwPQpFD6tV59RJxqvjTQWYFJS+eNTbWvi6M9V3v87dTaa0PnuKhbYfA11XvOk1fldExo/f7eNl7foNC6JpqykOY88p+iLIXFrTnwAYfbFxg12YelpOpNMDNG9Z9DpeHrAqlTMEqGl1jaka029Eqtu7NzuTuc6bBdx7s8MN9wKV7EHIl8Lcg5s2KoGpL+0Rh3rI+IlDK3lWR875d+7hMGcajRkH6qTkL1t/sGSR9hT25EMUSAM6dQNGnxmY1Pzuy+VfR+9FwBcCihIqvCU46jvhIuCaS52d2zz3LU+dJerdZlNNO+xv2zZge96ffeYU1E/f7fzM3/kdlw/f73zlsuG69pr3+57r2rQW18+3bN46jBJt19Gy0bTWNabw1tO3BQnI+ClIRJ9LRICCg6/Nc3h5DpCXEJJZlJ+bDky6P8qezkiZ0abVc+DBuiCVCKoWEgHPCbQ/nJIAJvx4n8PjEx3oFJ6uwgTAFUyLqbzdtcrne61gn2vUNGPsDF1n0tUW2bAfGT/Z0IoZOIa2lnm8ecvI8floc1zmcDgvhiu+Bdq0t5w6v7HImQ66GGWgabRLEUgpgfGm/Mxznw875SsEoTFCo4QikTREfjJOdhoo4Xf5jJXwd1uusHW4bFHbKVdO15OUNmyObVzGT441eLIOlxEgA0cA9/zd4UKL3lppETIHtLbQ4EsCHHpE0dmxk7V/bUcERCAzBKjBRednO8szUwHtVQSSQEDGTxIg5uommFn9sYkWGVMDuMxCYTuZHgiNIhUREAEREAER8JmAjB+fW8fzutEx9DZzfGRkjIwezxtL1RMBERABEfiJgIyfn1DoTSIElGU9EWpaRwREQAREIJMEpPCcSfratwiIgAiIgAiIQNoJyPhJO3LtUAREQAREQAREIJMESuudusIquzSTFda+RUAEREAEREAERKCEBPa15RqWcFktJgIiIAIiIAIiIAIiIAIiIAIiIAIiIAIiIAIiIAIiIAIiIAIiIAIiIAIiIAIiIAIiIAIiIAIiIAIiIAIiIAIiIAIiIAIiIAIiIAIiIAIiIAIiIAIiIAIiIAIiIAIiIAIiIAIiIAIiIAIiIAIiIAIiIAIiIAIiIAIiIAIiIAIiIAIiIAIiUCSB/w/3cQ1wlydlcAAAAABJRU5ErkJggg==;" parent="1" vertex="1">
          <mxGeometry x="60" y="110" width="136.9" height="30" as="geometry" />
        </mxCell>
        <mxCell id="isVZYeZh4vV-a_DudpPx-67" style="edgeStyle=orthogonalEdgeStyle;rounded=0;orthogonalLoop=1;jettySize=auto;html=1;exitX=1;exitY=0.5;exitDx=0;exitDy=0;" parent="1" source="isVZYeZh4vV-a_DudpPx-5" target="isVZYeZh4vV-a_DudpPx-59" edge="1">
          <mxGeometry relative="1" as="geometry" />
        </mxCell>
        <mxCell id="isVZYeZh4vV-a_DudpPx-5" value="" style="shape=image;verticalLabelPosition=bottom;labelBackgroundColor=default;verticalAlign=top;aspect=fixed;imageAspect=0;image=data:image/png,iVBORw0KGgoAAAANSUhEUgAAAj8AAAB+CAYAAADLN3DXAAAMPmlDQ1BJQ0MgUHJvZmlsZQAASImVVwdYU8kWnluSkEBoAQSkhN4EkRpASggt9N5shCRAKCEGgoq9LCq4dlEBG7oqomAFxI7YWRQb9sWCgrIuFuzKmxTQdV/53vm+ufe//5z5z5lz55YBQO0kRyTKRdUByBMWimOD/enJKal0Ug9AAQK0wWjgzOEWiJjR0eEA2tD57/buJvSFds1eqvXP/v9qGjx+ARcAJBridF4BNw/igwDgVVyRuBAAopQ3m1IokmLYgJYYJgjxIinOlOMqKU6X470yn/hYFsStACipcDjiTABUr0CeXsTNhBqq/RA7CnkCIQBqdIh98vLyeRCnQWwNfUQQS/UZ6T/oZP5NM31Yk8PJHMbyuchMKUBQIMrlTPs/y/G/LS9XMhTDEjaVLHFIrHTOsG63cvLDpFgF4j5hemQUxJoQfxDwZP4Qo5QsSUiC3B814BawYM2ADsSOPE5AGMQGEAcJcyPDFXx6hiCIDTFcIehUQSE7HmJdiBfxCwLjFD6bxfmxilhoQ4aYxVTw5zliWVxprAeSnASmQv91Fp+t0MdUi7PikyCmQGxeJEiMhFgVYoeCnLgwhc/Y4ixW5JCPWBIrzd8c4li+MNhfro8VZYiDYhX+pXkFQ/PFNmcJ2JEKvL8wKz5EXh+slcuR5Q/ngl3hC5kJQzr8guTwobnw+AGB8rljPXxhQpxC54Oo0D9WPhaniHKjFf64KT83WMqbQuxSUBSnGIsnFsIFKdfHM0SF0fHyPPHibE5otDwffDkIBywQAOhAAls6yAfZQNDe19gHr+Q9QYADxCAT8IG9ghkakSTrEcJjHCgGf0LEBwXD4/xlvXxQBPmvw6z8aA8yZL1FshE54CnEeSAM5MJriWyUcDhaIngCGcE/onNg48J8c2GT9v97foj9zjAhE65gJEMR6WpDnsRAYgAxhBhEtMH1cR/cCw+HRz/YnHAG7jE0j+/+hKeEDsIjwg1CF+H2JME88U9ZRoAuqB+kqEX6j7XALaGmK+6Pe0N1qIzr4PrAHneBcZi4L4zsClmWIm9pVeg/af9tBj/cDYUf2ZGMkkeQ/cjWP49UtVV1HVaR1vrH+shzTR+uN2u45+f4rB+qz4PnsJ89sUXYAewcdgq7gB3FGgEdO4E1YW3YMSkeXl1PZKtrKFqsLJ8cqCP4R7yhOyutZIFjrWOv4xd5XyF/qvQdDVj5omliQWZWIZ0Jvwh8OlvIdRhFd3J0cgFA+n2Rv77exMi+G4hO23du/h8AeJ8YHBw88p0LPQHAPnf4+B/+zlkz4KdDGYDzh7kScZGcw6UHAnxLqMEnTQ8YATNgDefjBNyAF/ADgSAURIF4kAImwuyz4DoXgylgBpgLSkAZWA7WgAqwCWwFO8EesB80gqPgFDgLLoEr4Aa4C1dPN3gB+sE78BlBEBJCRWiIHmKMWCB2iBPCQHyQQCQciUVSkDQkExEiEmQGMh8pQ1YiFcgWpAbZhxxGTiEXkA7kNvIQ6UVeI59QDFVBtVBD1BIdjTJQJhqGxqMT0Ex0MlqMLkCXouvQanQ32oCeQi+hN9Au9AU6gAFMGdPBTDB7jIGxsCgsFcvAxNgsrBQrx6qxOqwZ3udrWBfWh33EiTgNp+P2cAWH4Ak4F5+Mz8KX4BX4TrwBb8Wv4Q/xfvwbgUowINgRPAlsQjIhkzCFUEIoJ2wnHCKcgc9SN+EdkUjUIVoR3eGzmELMJk4nLiFuINYTTxI7iI+JAyQSSY9kR/ImRZE4pEJSCWk9aTfpBOkqqZv0QUlZyVjJSSlIKVVJqDRPqVxpl9JxpatKz5Q+k9XJFmRPchSZR55GXkbeRm4mXyZ3kz9TNChWFG9KPCWbMpeyjlJHOUO5R3mjrKxsquyhHKMsUJ6jvE55r/J55YfKH1U0VWxVWCrjVSQqS1V2qJxUua3yhkqlWlL9qKnUQupSag31NPUB9YMqTdVBla3KU52tWqnaoHpV9aUaWc1Cjak2Ua1YrVztgNpltT51srqlOkudoz5LvVL9sHqn+oAGTWOMRpRGnsYSjV0aFzR6NEmalpqBmjzNBZpbNU9rPqZhNDMai8alzadto52hdWsRtay02FrZWmVae7Tatfq1NbVdtBO1p2pXah/T7tLBdCx12Dq5Ost09uvc1Pk0wnAEcwR/xOIRdSOujnivO1LXT5evW6pbr3tD95MeXS9QL0dvhV6j3n19XN9WP0Z/iv5G/TP6fSO1RnqN5I4sHbl/5B0D1MDWINZgusFWgzaDAUMjw2BDkeF6w9OGfUY6Rn5G2UarjY4b9RrTjH2MBcarjU8YP6dr05n0XPo6eiu938TAJMREYrLFpN3ks6mVaYLpPNN60/tmFDOGWYbZarMWs35zY/MI8xnmteZ3LMgWDIssi7UW5yzeW1pZJlkutGy07LHStWJbFVvVWt2zplr7Wk+2rra+bkO0Ydjk2GywuWKL2rraZtlW2l62Q+3c7AR2G+w6RhFGeYwSjqoe1WmvYs+0L7KvtX/ooOMQ7jDPodHh5Wjz0amjV4w+N/qbo6tjruM2x7tjNMeEjpk3pnnMaydbJ65TpdN1Z6pzkPNs5ybnVy52LnyXjS63XGmuEa4LXVtcv7q5u4nd6tx63c3d09yr3DsZWoxoxhLGeQ+Ch7/HbI+jHh893TwLPfd7/uVl75XjtcurZ6zVWP7YbWMfe5t6c7y3eHf50H3SfDb7dPma+HJ8q30f+Zn58fy2+z1j2jCzmbuZL/0d/cX+h/zfszxZM1knA7CA4IDSgPZAzcCEwIrAB0GmQZlBtUH9wa7B04NPhhBCwkJWhHSyDdlcdg27P9Q9dGZoa5hKWFxYRdijcNtwcXhzBBoRGrEq4l6kRaQwsjEKRLGjVkXdj7aKnhx9JIYYEx1TGfM0dkzsjNhzcbS4SXG74t7F+8cvi7+bYJ0gSWhJVEscn1iT+D4pIGllUlfy6OSZyZdS9FMEKU2ppNTE1O2pA+MCx60Z1z3edXzJ+JsTrCZMnXBhov7E3InHJqlN4kw6kEZIS0rblfaFE8Wp5gyks9Or0vu5LO5a7gueH281r5fvzV/Jf5bhnbEyoyfTO3NVZm+Wb1Z5Vp+AJagQvMoOyd6U/T4nKmdHzmBuUm59nlJeWt5hoaYwR9iab5Q/Nb9DZCcqEXVN9py8ZnK/OEy8vQApmFDQVKgFf+TbJNaSXyQPi3yKKos+TEmccmCqxlTh1LZpttMWT3tWHFT823R8Ond6ywyTGXNnPJzJnLllFjIrfVbLbLPZC2Z3zwmes3MuZW7O3N/nOc5bOe/t/KT5zQsMF8xZ8PiX4F9qS1RLxCWdC70WblqELxIsal/svHj94m+lvNKLZY5l5WVflnCXXPx1zK/rfh1cmrG0fZnbso3LicuFy2+u8F2xc6XGyuKVj1dFrGpYTV9duvrtmklrLpS7lG9aS1krWdu1Lnxd03rz9cvXf6nIqrhR6V9ZX2VQtbjq/Qbehqsb/TbWbTLcVLbp02bB5ltbgrc0VFtWl28lbi3a+nRb4rZzvzF+q9muv71s+9cdwh1dO2N3tta419TsMti1rBatldT27h6/+8qegD1NdfZ1W+p16sv2gr2Svc/3pe27uT9sf8sBxoG6gxYHqw7RDpU2IA3TGvobsxq7mlKaOg6HHm5p9mo+dMThyI6jJkcrj2kfW3accnzB8cETxScGTopO9p3KPPW4ZVLL3dPJp6+3xrS2nwk7c/5s0NnT55jnTpz3Pn/0gueFwxcZFxsvuV1qaHNtO/S76++H2t3aGy67X2664nGluWNsx/GrvldPXQu4dvY6+/qlG5E3Om4m3LzVOb6z6xbvVs/t3Nuv7hTd+Xx3zj3CvdL76vfLHxg8qP7D5o/6LreuYw8DHrY9int09zH38YsnBU++dC94Sn1a/sz4WU2PU8/R3qDeK8/HPe9+IXrxua/kT40/q15avzz4l99fbf3J/d2vxK8GXy95o/dmx1uXty0D0QMP3uW9+/y+9IPeh50fGR/PfUr69OzzlC+kL+u+2nxt/hb27d5g3uCgiCPmyH4FMNjQjAwAXu8AgJoCAA3uzyjj5Ps/mSHyPasMgf+E5XtEmbkBUAf/32P64N9NJwB7t8HtF9RXGw9ANBWAeA+AOjsPt6G9mmxfKTUi3AdsTvianpcO/o3J95w/5P3zGUhVXcDP538BAEt8i7U6b0IAAABcZVhJZk1NACoAAAAIAAQBBgADAAAAAQACAAABEgADAAAAAQABAAABKAADAAAAAQACAACHaQAEAAAAAQAAAD4AAAAAAAKgAgAEAAAAAQAAAj+gAwAEAAAAAQAAAH4AAAAALcx92wAAArZpVFh0WE1MOmNvbS5hZG9iZS54bXAAAAAAADx4OnhtcG1ldGEgeG1sbnM6eD0iYWRvYmU6bnM6bWV0YS8iIHg6eG1wdGs9IlhNUCBDb3JlIDYuMC4wIj4KICAgPHJkZjpSREYgeG1sbnM6cmRmPSJodHRwOi8vd3d3LnczLm9yZy8xOTk5LzAyLzIyLXJkZi1zeW50YXgtbnMjIj4KICAgICAgPHJkZjpEZXNjcmlwdGlvbiByZGY6YWJvdXQ9IiIKICAgICAgICAgICAgeG1sbnM6dGlmZj0iaHR0cDovL25zLmFkb2JlLmNvbS90aWZmLzEuMC8iCiAgICAgICAgICAgIHhtbG5zOmV4aWY9Imh0dHA6Ly9ucy5hZG9iZS5jb20vZXhpZi8xLjAvIj4KICAgICAgICAgPHRpZmY6UGhvdG9tZXRyaWNJbnRlcnByZXRhdGlvbj4yPC90aWZmOlBob3RvbWV0cmljSW50ZXJwcmV0YXRpb24+CiAgICAgICAgIDx0aWZmOlJlc29sdXRpb25Vbml0PjI8L3RpZmY6UmVzb2x1dGlvblVuaXQ+CiAgICAgICAgIDx0aWZmOkNvbXByZXNzaW9uPjE8L3RpZmY6Q29tcHJlc3Npb24+CiAgICAgICAgIDx0aWZmOk9yaWVudGF0aW9uPjE8L3RpZmY6T3JpZW50YXRpb24+CiAgICAgICAgIDxleGlmOlBpeGVsWURpbWVuc2lvbj4xMjY8L2V4aWY6UGl4ZWxZRGltZW5zaW9uPgogICAgICAgICA8ZXhpZjpQaXhlbFhEaW1lbnNpb24+NTc1PC9leGlmOlBpeGVsWERpbWVuc2lvbj4KICAgICAgPC9yZGY6RGVzY3JpcHRpb24+CiAgIDwvcmRmOlJERj4KPC94OnhtcG1ldGE+CsuCVBMAAEAASURBVHgB7V0HmGxFsT7csPeCCAiICRTFgGIAcwKVZ0BFzIiIiojZZ0AE00Mxg+gT81NUghkUxQBiwgwSRBAjIgioRMncu7t37+t/Zv45dWqqw0kzs3D6+3b7THd1dXV1dXV1zrLOdRzoONBxoONAx4GOAx0HOg50HOg40HGg40DHgY4DHQc6DnQc6DjQcaDjQMeBjgMdBzoOdBzoONBxoONAx4GOAx0HOg50HOg40HGg40DHgY4DHQc6DnQc6DjQcaDjQMeBjgMdBzoOdBzoONBxoONAx4GOAx0HOg50HOg40HGg40DHgbFyYJ0yuW2yySZrt9xyyzJJOtiOAx0HOg50HOg40HGg48BEOHD66adf7jK+tc58mQ4I/Ybhc9ppp4VAuriOAx0HOg50HOg40HGg48BUcGCddda5wCJkiRXYhXUc6DjQcaDjQMeBjgMdB26qHOiMn5tqzY6pXFffsDa7cXbtmHJb/NnMzq/N/nP9ZPk1v2ZttnbtZGlY/DV58yrBmoW1Gf4613HgpsKBm5Xxc+GVC9neR8xm16+u14jR2d9QssM/99KF7C+XLATlBvSd8Ps1QZg2I8GXf19djjePPGh19qxPznrJQkdb111yzdrsPm9flf30z5PjTagM2x24KnvHcXMhkGHca78yl+1w8Orhb/nx1d/MZ/+6qj6/JE79Dbnd7p2rs0+eNK+jpvr3GRcsZOddFm4/vgKg0/7QiXPZ5de1y1tf/m2Gv/Pbc9kB30yTvTp07HjI6gx/dd0NTsc86uBV2c/+Mp1tuW75PvmT+do6/HcXxvuKMnR+8eR51+ZXRZP8+m9rMgxmby7uZmX8fORH89kp5y24hldNiVIoHuU6r4e8p5wiePrHZ7NnfsJvJAA3jIg3Ht1XZBBEKOxxut0/M5s97kPlygX6/nGl3WCg4NDR/ulf6fz+yZ/WZGddVIT/4yD90aeFFeZp5y/0jCQYSl86ZXyd+7wj9+unh2ljPf7ir8WyMfzqG9dm7/7ufPbSI8MyQviP/mgue+UX0mCZBv61Ax2o6YXCLWv4Sryx7/d+dy77/C+q18kLPzebPfVjsz3l/OB3r8pQ1zF32M/ns10/tdrJ09rs879ck73t2Oba04IzqMrIdYzWqvFoE8f+Nk32quaBdFde3/+rgwNpz/nX2h4uaXx/+qfzGYyGaXYwnGOD5nMuXsg+4QYV1OFVy7PHYfG+ogzu9x8/n81HRAQD+pce6XTKF8vrlDK0TBPsTdL4Of7sNRmMB7gf/mFNdqZT7HCctV0ncMYNo8T3OEX9z8AI/MbmdGiPLv67QcgdBBEKe5zuvMtsI6YqDT/+Y5/vZzulAHfOPxeyj7hOO+Re8+W57HnOCJNuyaC+YpNIR5+WK9DPGR3tFU6BodOq6mCgwCDFbNbf3ExeozMJA7Ku8CyJrZ4r0v7pn63Jfu4xpELl8612QeE+6dDV2fmXL2R/d39Nuy//xhnzP8jrpyr+3znDGO3vs4P6nXN18cLPrc4wM/TLc9dk/7gip/3QH85nf3Sd7crl/dwu+k+47jHrmjq79N2zF7Jnf2o2+9Ef/W0UuLrlxWJNX35tvw42XDdXwh/98XzPaChCxn/9/K9rsge+a1XUKIljikM85gOrs6d/3D8w/IWjZbdPF/WWhRVy+pu/r+nNvF424IUF10QYjDHwiO7B71nlXbGYHYD9/fJwGyEu6Z/t2iR062Jzi9r4ufg/C9l3z8orl8zf75i5nhWL36//6lz2fKfYoYSu98sukzpDaW32Faeo9ztmNvusGzmi07kpuIOOn8swwhqnmx1YKzPL+oput/+bzT7jOu2yHQKNn4W8XzOLsfEtcoVKgGtXrc2w5Iils0c7BfYpxQN0nikd3p//veAMn/meQXriHxayp7mZvJ3+N0GgSEjEXzJoiZZxAn498N2rnVE+Wn+gv5JzrAJeacDNuab0lI/OZru4P8td6Qwzq71ZsFjCrWNoWjgRRv5QJrBMeMYFa7O3ulmdlx81lz35I6O0o1xwkIWQw4gds0twsX1ZWL6BO+nPtlD+9h8LPVww+qbFYXavjTqJlQ9ydtjP5rOeTAyqIFQXmPmFIRtzH3NG02rXJKp02DHciMdA+JTzcjr+dXUx1a8cjVyKv9Az+80UkBfMSGMG88WHz2WfcDNdb/p6eCDItKk+BmTQU3Qwxl75hTyPG51oX3CF3QaoW9muiCPFx4rBbp9uThem5NkEzKIxfmAtH3dmLogoPEarEKCUzhSd7i/PzQXDx7ylg/7zd84I+rAbOXKE6YOX4ZhtQAPXDtZ+GZdSnjL4APuFk9dkGGE15T78g7leYw7hY6ezfGkRih1YMdT/i4ZBmX6eTfxFn591I7bZjCNO3Vm9/3vzvU7qUmcc+RwUMZYkv3FGX/7WDKoTireJPU3Il2abNTHFsKONpbWrbihS/YxPrM52OCi+vo9UMPIxooXSTHFv+Fq/vcWWx/7q9rY96dDZ7PBfFdtrSh4xGPKC/FqxvP+12m0k9znUE9yMcbHHm78+mz3hf4v8wqwx9mWF9qXcamBo+zpxdoq/H8x69ilI/z/nyoO/ptypbpkQ+vJzibPJq9ygD5vzm3CXX5dlh7otB5AJzr5h+RX7zx7+viLvkR9mfmHIpjpIwH9/aTZ72sea7YAPd7za+4i53uqBRcvLHI2v/lKfzhin/m3ol6YPimBAFtp/iTKs8rCVunVpRYvg384wxKyx5TDj35QsWfirhlUsatXsqqeDtYzRnXRoVHBUiP1f9v/vn5Mr4pB1qyv/mhttfDoUnev/uml9q9HKvHU667c2DjDixqZGKKQmHUYjWBas4lKUqM/4SakvSdOygZRivxZ44XMFvAOwP/978MHeUiVGpwDn68QQd76aCpbLprMN2ZMsVaEMyNw5PSqTU8w0xPqQWfbXS9xpMmUQMU76l16TZb/6W7/sFxijVsiGNsIvu7aP4UZDDjGjwLq5eLBkfHpJo1/S5/smn1gHbK80cKx0Z7pZGLjlHNkIoO+cteCWuEWA+8SsDVzIcOHBBF/9f/YX1dpVL2P37+HvX51t79kYT5gyPg1WzILS6ZkNhsN/kJtp3PkjzRgTUkaPOb3fYKDjMGPDPWgy77LfkAkMav7W8LI9Z0mwelDX6QEg8FGWY7ix+oCtGE1sRpZtFzKB5To41hHbk0UTBgOhmWbMGmMJTLqL3OoMZvzf5waZ0+YWjfETYhwrLgQj46g4EQYl9i0xo7RMzVJgM6vPvfUbs73ZDygUdlpSuJguRh+EUO5RwQZN6WBUYVPj8Q2fBHvXd+Z6y4KYKr1OLAnoTk/Swm9toDFc+uwYZhxPoWjpUtISFv4SUWGv/2p/WeIpH12d7TP4JmwILw1eQUYvGdOILIjO60s7KtTpSgTg6ddO9SsA0qHpA44fDvZOkUYs39FhPxuXYBjWhP+Q967uzRZKXFSMWBbDxnTpsAcJBwGwvCj5A5i93OxbU458Ii/Yg6wO9E846ABndUAWXbnRrkuSQ//ALX3Cca9EHtNfTuRv0svfqT5G6CnL9Kn4yC9JD/YUYmbDt8Skl3lS8wrB0ZA/3y2/HBM5wBDCgzh/7cRSNh8fo8UyvGVdhCj69u/W9GZpfTP30N1y/xBOAPpmpGU7weGWV7hlMWzkZh8FPYlBjN7cjdnQV31xLvtU5JQoZ/ZYnqsHkweY/aHDLPtOH15trpIQZhz+zdP4EZzFOr88BUIFT5CQ8XPc7/oV+pu/5xXLdNKPCTk6dBg4dM//bLGziKVnurI+BRUbrd8mjsuGyhzKA1b/99xmczp2DMvdcsO2B+YdttXBM43l03BB3BWD2T7MxrADstLkplY/ljh03vyt693CyTB2JPjNMuIbG6J9DrMs7/pOXscSDnuOsJEXjvTIeOxhg7MULOT3DYMTgrITuyZAC3HH6lnPCnIGDulpUBAXN1bC+KGj3HJ2jeF1fPKH9cncUoxQGOHSHfFLuz5y40dC29/WSJjlRgrSx9TgU5kRfOjgBXGm+JQdSRtnNi4peb1FSn4+GC6vIP4YYxnXl84K17y1YBiGAQI6bp9RQLgqPgwD33IS8VFe+Rs+ZVmGWd80THzwWOqW1xDgBOBpnllXq5081A10yBfoQQxi9KzfFe60Hxz7jP6v0f9SN47G9kOwb/Bid/jga6fmfYUPts3wRW38kNEUjhCjCAsY+a3TSAWPOI3bmhUBTKghygbP/HCiBnfDwPD6/cWh1Ezh/EQwkSLpEwoRwkiny8zwkI/NfNj4tr/rqLk8xz0LetTja8Q+/Nzz44tneF4ChuQ+6xzLQvIoPWmxlFOeuviFjaN0ci1bjm4YD/9Et+T6/d/naWQcvrHJlhsTOTLWMPjtoxHLNDBU5JLrId+3O/avuLuE6ObyTwYV/UGPiRNUOFElFTz5yQQ0HiE7Oo4wTfi6vmRnHsMv9/ygMzzEbWC3nDR+0Ckce8Z8YeZSprF46JNDGKSo51e7/Smp7gk1N9XDOHv5UbPmEh7lyUdvjEZsNt/X7QNje4/BIz4k37H0mDF4gDvd9Qcxi4A0NOxC6bHn6ONuk/H3z/G3Q50+lS84mStPMt5381GKUnFpGvCbaUex9qGtGTpfu7BWJoCFAyHOsnNLST+HLPuOm31q2rFcTeNNxbeojR82XhgXaIhYCpEjTx8ToJz3O3rWTSWOKj+tuLFcg2UhngiyhAoK/+3fskfnUAz6ThXQhftcEC6X3Hz0jjt8vqacHzDgBTsRTb/FQw0jfxtbNWT08DsV757uxAVdahrCw//SKTmDQkYN07zha3PJd7Gwc2da6VPeZRi+sTyi9yX4NgDLvSg8jafx8TeVLe4uwYkqeZ+TpoXGz/fF0mwbyk3X12UljtjKJe09A0txXK7FMhlOax3wrXnvEo2c+QPfYIQO95mRkQOfHQxnXFR0oz+xBwvLJX+7dG3voAcOPMDJOmH9hmQuRNTBJ8z1jInYvWmyzqyBYCgPxOHEFQZXx7nyoG7KnqDDTBvbrJbbWN5WPJaYsKnf57BtgTMphJE8CIUxTvpMq/smCaO/ZT3LuFnP8jBlk+1YpsE3Dwv58BK+Cf4SV9v+ojZ+2HhhfHzF7afAUsi3xf4dyTzCIgzfx7uRuHV0mILGtBAK7KDnEVhLUSB/CocehsgOgzjhY3d8aScLMUiMmShu6CyNb5AAjUo2LDYEREPpfOInnhbjyRB3q8ARj54ts3joQdULljM/BgvMpLoe5W/UF53b1tv7DDVaCc909DGipDvq17lRxLBG/dTCu0x9SkzSw05e7gOQ8ZSJlYMTVTJO82vpIOCLwjAE/OGepSXEQS5wBPoqdavsUb+e711PABifQ3a4MR2bKVOdnIGkjFppabRjuZa0+TaRk4fEAyP0OYImKXeEgcRhUIXrNHyzhYSt4oOvOAb+lm/MuRN3uXwCV4GegTwVwkpkSPmIJZEdZpWZnyMGpwY5Y0vZS6Ub+4vo1p3hV3Ufe2WeEbmwFv1LzOVUZT0d3t97I0P7GEZDYphdfMlEHPCSt74cjnf3W4WcTk+VZdUV40L42oxb3MbPgHtoUOygUpR+aqMF4ykUrARLppg3YHSF6mU04qniH/BNjMCLwofj19gj9AM34vyyu9V4j8PyvTVWHjyCK+O0YMJowV6DN7ljwHCfPKlkpz5gEvF+WXWIFg8lPfiWs3KapxqWv5kff/t8aXyx7tzLv0NwnNzD7cncRGitkw+BxYfv9mYBUutTK5YQMlGcIZg+dchZC+4pGgIOPtYZSPO6g0sCdbz8bcn5yX9byD54YrHzlWlOc7NJMB7l0yDouA8+YT57rrujBKetYHzLfS+sO/Ci7P0uqTOI3McDY4l89MkseSjLJb9lOkoY5PQSd9oOHcnrv5JuvEm8oe+vur0Un/l5v83qE3fkH9KXkSfmh5u1j1QGFePoow59pyerzPyQh2zfrBPmN6J0hxH9D1nO9RowfqgzVDaFn/19LbmuJu0SiHWB5VDo8H3d3j3d3wCeaWU5JB7rmzzTcb5wliml/9Q45W9dN/q3hPXRImHa/F50xg8aFh0Zi846VnmERdrQhVQCfS8b4mWeOh7h85RiAgm/jMCKZN7Pk9T7VjyGfZE7rvxed5wQ9xOFHO+lkDD/dBse5UgYDRAXIn7XHQOm28UtKZ7q7lrCSLjsxY88rURcFruwWfgDbhqdTs7KFUrEHoSAwpdw8luAjHyyPqVc/dDd2ovbkzF6huMM1kjiGgEyv1Q0gaKPoODavYzY1y2/SadnLWSc/LaMHy3X0vhhW4vxjUbGdcJeZxrsL+IJyDMGR89BE2UHeZSdRSBdsmzW93DmR26Q9ggUy2Dh0WEyf/JP6xedxvcb+15+rE7cEVYewAjNMFOe2AaYPuTj3qwPePaTMR3uj3r4+1a7zbG5/mBc2TpDOk0feUecMV/CzwQsYBja8vBLDG8oHisBO4vLQi3xYbnYDlGnlD2Jm3CQn2N/O99bzpTx1jfT6DhfONud5JVOm/Ib/RGfI/LBy3bggxlH+KIzflhJYA4rClPIVCKxhol0GFn6nBZSmR/SUPnK9BpGxtW1pCUufMtORsZ9xt1Gner05VpvVjeNwpi7zQZUjX2sGGXv5e5a2t49ZLrX4eHRquahpstqgK9xm0CP9C0bxRAOMpB45bfOX/4malmvt9+oX/Z/8RQMgWTCmt+p9MlsyigNtg2ZXn/79gURjjjSlr2YKt0nfjlFz5Ev2g2f+pDGF/kGXsg6S8k1lX/YFA+HtkYauTyakk8MBtj59tyl7u4kzNiWdVhae617CsZyIX0k4cmPsnyUOPCtm8cpg9Ovf/hnP0Ya+nXyYt3H3vjT9MmZIU2rhm1yDyZlWecx8luoWuvEKGkGGGb/sZwZc2d7DtEQl07PPUop/VXIuMHFwLu6Z18Wg1t8xo9YgaHMoEHR+KnLdDYw4tF4dTzg5GiGCoXpqTz5u4ovcWIzHV7/pqMw+y4Lw+hLv0Avj9UTj/RR5s03JndlTP9b30OkIcAj+WyCjsdS3cvchm82OMT/ZdDhaFj8ZhmtOIRhMzpOJIXgrHpD2pAy5kmuBV9iIKjoQrT6UJaRJSkzPnwccfri0Wng7apvG0/IaPwpSlPnQwljHUBOHzx4MBj42K6OdHuA6FgVkFGmY1zMD/HvAvEmmNwjwqW/snkNaTEqGhenynf7MGOLEb00EobpK3xYnS4HTeQf0LIOsQFbPotQl45N1+/XLJeNJQtCfMR9Z9ik7XMSjw/GCpf1LstvwcqwMrAynfVt8dTC/4fBfkmfwW/htsLwfEYZR4NZ8sqXvopxAxnDzBpeapgWt/iMHzmTOtCeqLgqa8lWJegGRgVBWEtgpYFEhU54390ujE/xZZ4YVeH1b7rvGB0T4+A/8cOzPUNDhl0VuQMGylPmKdOmfGOTN55N+BNvV1aJ0DBx7w1HiIgOKUVJi+YvjDtsRu+96aQrT+Trkw/ipi9p4RR0iDaRRalPmZ8vIRSmPEacopiIKwWW5WMay3/dV+ZGbrgGnMYvf+s6svAiTLct3kKMuJ7xM6hPnDSjoyF6gttQmsJDpoMvaZTh+LZG0z38g8KUzYv4c8oZYvu9/Xz/iENDJmLvc0l9xNyweRtOyjL5gU3q8lkEPuPSTxH/r3mz4br9NLwdX8ZbtDGHJ7sbpa16YLzEwzD4MXmT8XEOS8zNfVv5si5IH8p35eD04obrZe5Fg9kMx/uttFUpQxuTF84SD42fKoMY4gj5fAz8k+KSRF99hvA0Gbf4jB9hOLLxYoQYalQpDINVimPysQqhwEqcFBwZhm8oqeEpMBGpZ2JEVKlPPOzKS/9CCfFYq3RsbDJMfqM8xRQytv43NxDLe2ksviInbHrVF+pJCnDFAV3+xZDc98kH86W/3YGrhtcWkM4Q3jyH5r9wLwmeGaDTxgLDLT9Wx0gTM35CONj2mHcdHlnqHTMVVruS7XON/EFCAn4Z/gENysRyyvJZo/hAtslRejnaSnjgt+ez+4kLQwnzXvf8AZfPLFlnOQgP31e/octDC+k9CNiBWvUq0+tv30wkq5ltVKeL/Zb1TlyxNE3HW/liKwH2UJI+yNg1g6fOsFfruDMXsve7B6mbdJhxfKeTIe3e7W771w53OD3vM7n+0fGx35DnP6o7mU47X7akGIZ246fW+MERUNzFo61UqRDZ9hCm4aqwTU59M73uIKyqk8qGgoz0+qIo4sRFgGWcxCnT0ZqWYanfuOQNNztbDkqGI2wrvo0wyUPixwZAnPo5+TxXwQOneSFndEIjVi6hEA99KlTWK2TpysFtpkPjh5FMFPFxWiw2Ok9BqR/y1WUPkZECy7L78IRw6Dh5v5aO8+IfRFgdQ//hy9GUkua1uViMAhohlgFggA2DQBd1jKRRy+oHvz+XHeL+MIAKOeLywaTwzbozDPhw9w2Wz+DmJJN6Ifk/KXe+/GRZ85TpXzw5+ZM/LfQehw2Qk4RU0iwTkE4egZdx8lvWe1uGq8yvzDdOlUq50KfkeocBBgyQ5SiTh4a19KR+3w5pcCFkfIuDr3bcXXqun3v7caOGlqZnUr+n1vjBu024K0FOhYNJcj2bjReNSxpFVZmJRssGRRy8pRi/ccrJashWGF53/7LYm0N88PEeUxmnaUJa7HPBa+VVHR5O9O2z6RkKfpmumqU33Wu+PGvOQsj7UnyJLd5bsL6lPvKWvkzL23utOAknv3Es+zGHrO699ixvgpYwve8Af7HPxjpRJ5XkCD4VwNG3Ci789BmEBArlx7ZH2NgpQ8LRx1FgbKCXTvOZJxl9MKl1z/ToPP7jeRiX+1MICx/4WU5JmzR+wCO8Xs+7aGR6fMt0gSrvJQvxW+MN/Zb0EY4dp6SHZSMMHrnEsesYnYT30cu8sOyN96DK1hPxa1/SLuPk4EiG85v04Hdq2Xb/9OpGLqCFXEHmfLRj9oc0XeUeJObMD2nH3T/kn/dACIEn4PvKBVJ8l1/65Gbc5E+t8cPRAyuejJHHytl4sQHrxogdII9yE5f2j3fvUlEQGSd/Y23cqmxpeHGD5DPdJViHDe7aIC76669Ir37fSMVnuDCPkA++WQqSaTCbYpWT8U362GiJEWKq05xLpfO/v1TsaJkf08PXvOZpKC2DTGv5vJMGR+X3OMwvlFKuNB7ss8GpRco346USZ5jP13yy4OSsmRWv85cw1lF6xqcsm/yPeEsOvHiHuxX85W4UHHOSbyEZtvD84tyFbAf3bpF8A41w1hMBiCMfq+Yr01HWmKf2Q/zGINCamdY48FsOEBlP3JIGlo0weOQSd82UkXemlb6WU5mnhEv9ZnpJF95I457CHw0e/rXw4WkZPF5NR1z8jdm617rBl3a+01IaLvYbb25B5qQcyDSoF0mTrjvc3u5LK/E09c0Teqn4QrTJ+krFN064wTa4cWaZlhcbkGagXIYiDDCG7u5JyzHLcITyWQ+Ql3sUUyJvKaiMhdE0dE6YT3bXsYeWpNZfMYSOfiA/Ki4JrPki49CJ92exbNHUSk+mxTdmBEL4NXyd33KjZRU8vg7QqicLP8sJTmnFwwvsUnEBf+pyIfJlPVl00YiScZYcyHj5nQJbplwSN75D+H1LMxJHQTLdj6+7E4ApTtLMZcmUdIDhACk2lU98vbwGjUXmKwc7hE3xC2U2EoR4iluFU52vTej0Vn54c/COG9cbE2u8UmdrGlJ+k2/0kYZv4cXS42kZ6djeZdiP1eBLHjKQcG19y3Ll80D93FCXsRnaJukqK9uyXaTSIU9TpqZpA66elLdB0QAnDRvNXNmQZCee2uBjJEtB1LDIz2o8eu/MS44oNjiN5xZljB+dePDbooOg5FkIhrCWj3QhPlhpJhXGsur8U+knj4BHd6bEnYoLNGg5lMf5JY17ucvi7vsOf4eGmSO9Ds82IfH4vlOWvXxpU8IDd8WlJC/AlOEv6wsIfBtkC8iNH1JvGNHDIORl8VzX8TBBzQ/oDRgfdZ3VgbHMktdW2ZA35b4sHdg0i4spNV5ZZ2VxFuAl8YWI9B8pKMpuS0jJPchTQdQInKu4xviXQugYYI5xb1pOg5vamR+OHnTFy4ZNGDBShpOx515aQZEIQQQeKYxo1PI385E+lYwM09/9S+NURhpo8NuXny8cyXpKe+AP0BQ8ybdCxODHOJe9rPxDYZr22NIN6kzLkMTPONTGKs/ePMLIdL5vXS++vSCcVt/7iNEpdx/u0FKTToNlEhhey2pYKboTk3noepBxZb81z0LpZV2smk9rQyF8oThgZ3uW+cZkTuKUZZPfEkZ+/+rchezOm9Ybk1rGGesyhYbU2UvKAHHiWQ3LWfRYcN6wQTWXrW3zpJIHSdv3z3iy7RVZxkk5Q2RMf3l5NqYISXvZLOukLZuXBV+vlVkYGwrTjZW/sVHyqR9b3TtNw8aHLK3TXlU2BIcqBPmF4lOLjteiU50vP6u8xEll5JsupUInvPZxUok4dNy0/faVkfRLGbFoJxx830wCYaz0Okx3jLjxNOROOa+EgR6rOJERTmocKvKOnT4TSYefId6F4oYIEj98Mm4ll3Xhe5DVSifDqEtkmPWNvFhOmW/VzjylnGV0g0UzwqyBIMshO1eGSTwoZwqdSENxjMFb9Mg8U79TjTLis5Y3fbTiQdo2nZQfnY+Mk/UDOPDYonn7g1a5Ay+rs8+WuNlf59vIb4s4hxiHNqbdTe3MDxUUhQHT+AuOn3w5GyNnNj4wuakGJgVRVx6UBenRcWV+l1JwHuEK0Uka6Y/QJhk3EukMSZenJ1sDerJB3jIOyIoUdWjkgZ96rZ88pp9SUp8xlpI2BnPxf9Zmx54RNqYkjtRLJGWa1G+2z1T4EFwZ/kpYvUwZykPGWZ2+jJffhJXtoarxk9KoZhrQyKGBkSybrw4ljyV81W+cWKricMcXrrrgbcdN3BHj0xe8kLEKnXXTSO5o3kP+9EEM5IeTYbgjKDa4qktbLL2kXcLi0Ma0u6md+aHSobDyenYyFCdpCIOwqoqQ+Oj7KhPxUBZaOJmujF/G+PHRE1LA5FlVWtGBE0eZck0CNkqnx/rhUXKmB599BrSvDqzy6pkfC6ZO2AHfSjd+ZOfGcpbJ28O6HopQXCwPLMfpzeWxNIyX5aja5lNpR16EZVuC3JxfcV9Oihyh7fkeLCUPYr4lx1JXMr0VhjjJY8LW8eVlpmXw/MLte4MLHR7R+GAonOOMJstgACzrUadr+/dJf/bP8EqatF5HO2m6Pposq6S9SbzjwNXAOKMdMqm4ydxlWCpSxqRsvFWnwDX1IUFDfqF44EpRcMtr7MMgvSE6yDMfDI/jE5f2ceR1r0eWWJvTCMb421dG1gM7L00Syvi5F80M6xN4ljDRAJg/fXlonPitlZcFM64wuem5Cl2yfWmaZVzqTANxXOXetpLOWp6Q8fKbso0wPVMn4YLfPqFQifqn8YqBbzl2LjvRLSmmOklvShpccSBfuU9Jo2Esw5JFlvQwTKeXMDrO+g143A/UtNMD3hT83zlrofdExuO3ma5xfegxUFkuzXucjDrc3co8ra75Wh9fSafe+GHHIxU52SMbb9VRIHENfVWb8ify840ofOmH4eKj1MyPJEDg0I1ERBU6dBnOb9lxMUz7n/vFdDa4cy9dm+E9L7oDxH0xDJO+r6ynnp/j6ME7PvsMhBCvZV749uHQcOP4LTsPtqOm8uXgBPjeI96aS8Ff2WhxyA85MZ/5kic/U/IljNQbDLN8ND3CUgZwCq+Mk833UnfhXczVNXxwMz5vKJd5sR1ICmQdEhbxLCvDLL+nB8kcB4B3uZp2SyrYLzQyfAYqy/bXSxbcYYCmKa6GjzQhtTVz3FjfVo28YKpz/iklKgg6dZFTa/wMG+uAt5bxYzXeuhwOVSXyi3Ui+p4Gi55Sxo+FwIWF6GCcbFQSjdBZMnjRfH/zt7lh5lMMLHtqWXv17ql84kph0LfOzGlLgW8TRnYelIky+bENWmlk2ytbZt63Y+EtE1bZ+EkUCjyfQR5AznAiqA7tu/1f+sm+MnyQsL7BAMshZZlhMj2+U2RFwqDZYA9K087S+bE8YisApPsZ7hJan5M88sGUDffxGuFS7bSRd1lay8Dv+Tk/H8vgmQRsBdt6PGRSue7mNrxhDdxqCD6BqkOhFj75uyeoUlKNjCS8Ed0LKjPiAD6OZiQ+NmIZxm/SEIIh7GL0V6nlz1AZKEchGMSBV3rUVYWP3KcQy28c8UsHDeRqtyRx0PH5jEkTef/Q3ar7oRP7FUE+peIts4cjhLOy8RNCKuJkU8fdJC9Wz3EIUO9nWd54EdWMoL0ny+Rb/pYw33c3JFtXhqC9EGdN0rzJq+wOiF1/IMvmyzgFxpfWFx7SQ3I1YZpmjn1lQTj6pCsGL9CH4EJxk24bUzvzI4XliF/NZ8t7AUWx7D+BUQwLMTslLoQNJITigT8Wj5eXfW+eWPQB35/dGznahQSHRg99nbYNo1Hn0ebvMsaPT0NrYxr8HOVyvxS+8DbL2ARulvHgE+Z6L0SXxRnr3PBC9D6PX14WbVb19I/OyNrYq2Gs36nyD5mQeqgOLivtRMKEMJt8cPFSt+yrbkge0izwDMMa/qD8lkEbm/mRZfPhTYHxpa0SLlnp09lV8LaZBk9Kbbp+mzm0j3tqjR/ZMNebWSe7+KrRtfaYcq7CvpDgg6aYcIbSgx6+vJxMm2wZIpGepRBRQxp9tLTBN5l/2983uhM3MYeyY0TlU4YrlOQDo++Yuo+PMRomHc9lL+upjBTaZBu04Blflj+ljFcr40FY2Y3WRJUq/5AJlpFpy/pxSS2LsRo86YCPI9J/cCN3X9liOg4USJiy9Z9agirGT4psyZkWi5bQ6bT9j6m2zBOSOck/yVeLtmkKu/y6aaKmPC1Tv+yFIvleYvY13vJsyFPoJSYpjDiJ4esgiUHCM6yOT6WlcYSmR/c9ut9AvQZSqCXqjKbwd5KCc3Qf696L8tXHSjdhcaV44RsKSMOS9zp8CllikoRlg8vdJtuq96PEprUpRmX5E5JdsyCewBCe4KWOJNyDl8GQiURQJplan3oLZXrVF2ezlx055wYGlPAi2bIzLsbkv5CyDf2b55CZWx1kvPX9q7+NDpIlHGTVt09Qwvm+v3d2GL8vnY9XWr5YTz48XXhzHJha40cKy7Wr7AJrwbGhyoUefEJxb4RUsLgB+JJrbIXBXC67ll/N+D5FFGok7Ox8aZuhbHJYkowfV00/Ug8WSopxEgoP2dKBV74bZBcrHzFyvuiqsLyy/JZ/cSQt22gZ4+e6Ve6On2r9xwiJsm3qSK/h7wBjS1nEhXpnGRlW1v+X4+Gvzs3lrGz6svA+eskrHMjAiUk4q96ud+OmlPqx0palNQbPmcsYnIyP7QNDncZgJL6mvkN9ldQv4+AryhSb/Wqq3NOMZ2qNH6mg2HA1IyWMjmvqtxbGMie1mqLBwjMX6UCudlPbBx1v7wwONUQrr2kLQwcac1Aouu5kGkzZnnFBzkRg9MEvVkUB46dOXccM+Sq4H/a+1e7Sunj9ybryffv0AuBDg4NUupug8k9uv97LjrLboa9cbYTTGJQdrWUoXe9OrJ93WULJE0DqluOAbxYHonXxIT3I9rXzJvB7cQSETtKzRlaQF1n9CJlnfWyLE8PUGj/yJMK8r6YCAtVUdYQUbFN5hPD4dExsv8OhP5rPcCLHclB6WPZZrO4az0ygLA/4FtIjECk5RT7rHsnUHSZ+X3iluy1WIp7Qt96jlEIGjJ9WBwgV21+d4+Ky3L62efZFC8H7lv5ySVqNQkZa5Z8sTMvflG2UnEZPxerrUQre1EnfcnG96KETQnrBm7BmhOzPJKqr3YWfF7lna+jO/Ef+zbA2fF/baSOvacU5tcaPVDq+ipIwbTFY210cQbWVn8bra6g+njC9Lx3jF7OPo9sxp+stBv9StwfiUz8tjjSxN+BJh85mF7hbViftqiwBnHmhf1NrE+Wp2vn5HpAtS5NveWb3z8yOXFsgcR8r7omS4fobbYiGgo4b5++qG9YljUO9hTIxYvjBgHQfLYK8WUy6BrROgl7yyuIwbpunK6u3mK6s/9VTx7cUW5a2ccFPnfFzortXAreUSmHxKbkabTeZvxwxMYH+zfC2fCgZy8WMnyYeSLTynYYwjJZiDkqkrCL5rWfUlXIzb4yeuvFVDP1/X+3eiWrxdWXZRsuUL7Rna5vbp7fqUBsIxZWhNZ2aMljLwe5xWNrtyXfdzE8t9Rb0CW+R9kPH6TtN35AeTzIVEPsdM5ed8Q97RrxNAuvwug269N7WUB6Lddk/VCbETZ3x8wZ3rwRuQpXK3qfIqirfGFNkvO5AhyMoCdTmt8f68RmEJCW0NwkNcRKjH9JW16ciD+JxfGuqjE3hCdIbiZTtIQJaiI5tWi4Al/xRVaGvdkuMPlemnD69ANyhOF/eOhz17qdUQ4d/B0+fhZNmsb1XkeS9aOotaeAfdXL10f9rvpzPVqTkP00wx03gFvZx9FVt8biJttQWbXXwqttO6qBqNq0UFuuhPuQmYZrNPcdGpcGQpI6XwA34fxmczNCoYnTMBN6tAd+aUuqarmn5jfI1Vcam8NThTZU7T+rk12ba0FHjMst73r2AjvgmFPZB6uRnHZ5oPVIHly9tyEi34prae+WjZ1rDQ/LXFs0W/9vKq2m8i5n2EC+maubnxtm8m5EjQN/JJgkTKmSdOD1iw1HQcbq9Pm9nGJ/5qTouH2fp2sur12BzcaqXUVN4alAxDlkvS15VtvgunkT+ZcoZOrKsZ2zLlq1p+NhgpYn8QmUOxVXNG8uqcFXloJ96/P/rPKxbldrYsxtV8Y4jXeoBgbK0TNqomirj5x3H5VOpNwhDyDfzMw7m6RHb/m7NeBpcbGQbWvaaBvrbpgEKuSml3BSeOmWuOvPTJu1V21+o82nK+AnNCtWph6ppY+21Kl6ZLlQfoTiJo8z3qYN9P4ttT8gkZn6Or3g5Ypn6aAsW72veFN1UGT+4E4Pu9Avyb4Zpv43RjM6jKaVxj9s2OxMTK3vI+Okte8XZq1kxNb9TSEe9NVV3TeGpw8AyRoHMp03aq+JeVTxUJ8l1t/qmt5PQS+JnJOiPQsYt/4jN1DaRPXRCOveayHFx4piE8bM4OdUu1ePYthIqwVQZP2WV6ThGU03lUUKnh+prGBcb2YZejl/sCjJm+JFJvhubGZ/qpxhbqbiqwl1yTbWUTcmvlTs69Cqj/tBR96YU4lnurh+6HbeevJprsx5Yzn9c6d6yU4YlToDdd/PF3uJZwmb8kPw1k0OHJYUDZfv7FJxlYCavFcpQq2DHoVBSO1pF2sjPxo2fyEGN2MzPCIFTGmDNmKU2mqaMltT8ppGFbc84XHl9+VKHjrrjPbImnFwqf+TdJq/mxqGrwLe/X16U+sNfNNMEO4M4ijkGQaciMrTsOhUEdkSMhQOT1wqimGUbUWz2Q6AOfm53R7/GbUppNW38xOgK7RH50ilrJvK+TbASPJGhcniSDIMXs9EyLETNj7Y32pZtsyhO6Kh7UzM/bRt9ZatlUvSAn03xtGyZpxVez45NK50dXe1yYKqMn7I7VJtSKH7Tp/xFeb7qaloBxYyfUJl8NE5jeJ2ZgKaMn6bwTIK/TbURH+1VeBOc+WlII8nnX9psC9ckXLgJ3jU1g+yrB1849E7TAy9fXoslPLRXbLGUoaOzPgcaUjX1CamCQU5tV0k/TBPQjk2NnOvMYAzpFB+xTm1SylaQ2MhnmXtfdIZnXlhlXkJjae7U2Cjm9kN+eW6+96WN3KoYP6E9F0111LH20RQvbkg8CCONsabyTsEDfgbUWwqKDqbjQCscaEY7VydtqowfzYx13eObm9/K33Rjsx+pbPHn4C5L00SlIlVw4575aYo3qhhj/1ln5qcpYm8qhmRT/JB4qjSP0GmvpoyfaZP/cRljsm7w3dNtIQWnE1T5XUUIquTTpblJcQDbLybppsv4UY0IsyXLAhQ2pVBChklTMz91lfrDtioyItYhN8WbSQon8i5z9LktWqetI22rnFXwnndZ+ZmlucDzFk3NkEr5D7XvKmWukmZiMuQMn7q6J1beKrN/MZxdfMeBtjlQ7FHbzq0k/t56dYDCppa91glMDDc187O0pgbe+BZF5knlXozp/5qYsrWIqRFWZ9mrRraFpOBl2x1IIcNF9OOlR5a/9DPUppric1ODlqaqYlLtEfwM6bemylcWT1NGbtl8O/iOA+RAwLQgyPh8NfHTyzikDGMGQCrloTyaGtXU7cQ1jbE9BJNStqk8T4WbhmUvyFno3qTUsnRwfQ6EDBMt51V51pRuqJq/Tjep9ogVr5rjLl2URn53xk+cjfe/U9vrlXEabsoQ02X8KOsHjTbUSBpTKGOQsbpKXSuwUAcCgW2MNxOW/tB9ReMiDbwOyeG46Lip5BMyTOoOEsijUB6EGac/qePV0Dtad1Qt90yDz2B37SleC8vrdhrxLG7WENNl/KiqgE0yjvofg+1TuxxX31BkTky5x+KL2Kb3V5MKt2opsb8qtPesKt6ba7qQYd5Ue58Pra1NgPGXX6dGduOiAcZPQ3n5ZmGrlKxrT/FK6QzEOI/qQEyV8aPv+YnN/NQpuEzb1MhI4tTfdZX6xVcVVUyoA0HesWUxTd+0/m7b+Emt+5Cyfsn2S6eVfVNJV2iz/pLUComULPTieyRpK9GXXlNsv61kYiCF4dMQS714qmwN6Dp2o7JUUMcjxZCGf06X8aMKh4Y7DgGoa5goss2fdRWQptFn/HBvii/eJG6KA1csa2rcahfSN5rV0CE5XG+mXRo1LYv99zguOTzroskYG766uXaVL6bdcOgNrTuq5ujDc9TJ5Y8sb3P7qe56qrKo0XQhnVMno7p9UZ28pyntVEngWjX1g0pK7ZzaYOq2WzTXqdUVZK14fMtaywc16otvg09t4mx7z0/qHpMVy5uThTb5tdhxt6GYp6HmmnqKp2z9NslPX1s577LyhuYhz3aXuE2J0ydpp4Ss1pbaJ9mnSt5utJ78Nf7v6TJ+jDbka3DjYJU2OOrkWReXVmI+44ZwN52Znzpcj6dNVQQrG9zsGafq5guRWh+aQ+975vLsQVtOlTorkHjYz8vPjhQQDH6Ell8t+HWcQqBOsOJ9YZa+ssJ86WPh66+cBpO0T2XdgWmsrFXjOYtfNb0vXRV58OGqE972loYYbVOlLbTtg0qqez9OjAGI9wpDg+3Tm0cKgQ5GKx7fHUc0im4qxk/bDSRVwYTo0HKbWKUdmMGBqu3k1utP93UETbXHKh11FTVmDTq1DjKqb1EGlTUox1XIKnWdQlsdvO95+vTM2KWUNQQzVcaPtRHSaoShAlWJ8ymHJht71REty6NpmfOcZuFGTxpBTL9Y/ZmW9/ykKr6VN502P9WiUEcxV9l4O9XMMIirwp8qxrmlr6oapkYxpiqoqU32TReqSl2n0FCnHu9xW19vmZLzdMFMlfGjlRfYrDv9NtjnE4YmG4Uvj9TyaCPQZ9yQh7741PymBW5Fy8tN6TM//kZft26b5vU+j2uZaU0TLPDVae9VOnmR9aL4TJVXWZjYnWASlt9WPVgGEeEXsz9t7Ze8XGZVAiNr+HXQNmqQTbjBTpXxo2d+IJSNMtsjML5urclGUUfgQLZWPL5lLxaxqWl24puUX2bD85028dWkn/pU+Qrt+UmdPfJT0WxMk3LbLGVxbFXbyYT1aLxgDUHs8dDyhq1nkjhIkSVDVlgQySKJnNZypeqmsmzmALlsOsBXbZ9WXpNus9Nl/Kg3EtGVtSUAsjJ8wp9S0RuuKzH5v+s+0KlpjM3s3FTu+UmpA3J9U7fvo6xLHV2F9vyUobEsfVXgtaxUwdF0mh3unqZqxtHemy7buPBtc/t1sodvlcZHSVOVmR+rHiDnx7xiptEOUNI5qe/yQ6bxUGrVQRM51zE6brNBM9zCCbs6RlgTfCjfkprI1YNDz/zgalI94+FJWivY11mkdGqp91XUnR3QS3Dc26MLzrL4jCPG63TT+jtE7yseXbxcsEqjTl1GCO35aUtJyTp5+1PSR/zNqCeZe/3vx94rTdWktDmLmp4irSIAFrIpDUPxqvBnTYVexsoHOuget12SbbbBlDKoIllWWSuiajRZ3T7DS0yNdlJmJt6bv4sAz0f6+1CCFuLSNFILGVsoNTOgxPVeFytd3bBxdBZ1O0jdQGfn7VKzLL5lr3EYkzZl1UJRntttaKe9xQqW1o5PCU1VMKGN13XrNoXO5SU2focMxpS82oBJnWHTct4ELdPIj6rlqsKfpmZ++E6G1tNVyzIt6aZVPtrSKzVsn0rGt1XP6Ncr2OQWqsph0238uL5tHJ21T/h94ZLbKTCAryvIqflQOfqMn3EYkx/bvXg0ijRJvqV+I62v7COGS4VWnTqSCe35SS1Lm3D7Pn5ZdtfN+sZgHX63RWMqn2vJZ31bOFr81JnCKKIKAOgsfG0hhK6KsWLmM2hfZTqte95uDJUSKnxCnFnWhHRtg9TtM3z0lak/jaMpmqCjKqhrTU6t39Nt/Lii1VKGtVhTbYrZl2VdpZncoQ10jc/4GYcxqXlQR7mE0mrjp0pjSm3MoT0/dZQJeRUqJ2FC/gbuttQQjaG0obgq+6gsfMnGT52+sqQA3PsO5TMrs/xo8aFuWIqcbH6rYrl8uiBEi6UneAN/GXlPoTdExzjiknXrOIgReVh1IKIrf1YxhpkZLs1swuH+vjp0NEHDVBk/ulGBz6vnmihmGIevOn3hYWx27Dn/VLu5bTBvaKrMsSH79vxw6tqb0RRGuDtqTarqGpRAqg0oMyMXGDpy30QjrqvosB+DXKIM+MpSJnyzhjY4phs/LEUZKquNIrW+ScmxpH2VgrIUjFW329+tqMZvq5aJq8inNegkv6rgK1XIMQP7thCMmYyR7FJ1/kjCSMCkZRjkoWyUpwi5rUUXW01r2aQh1o0K6vyHf6xnNKTlbEM1KXyxo+k2BXloKi3sOnyjPcbnmNv/qpNnqNx61qZKY9I4fNzYYN06pcix+srjC89Thr9kp1gXl8ypCk9len6nGqqp9UG8SX4zVZeUVZtAqAurbt++y/Jsl/vlqnzLTfJv0OMdCAWIDd2sX0YmysAGyGk16j83jJoDe29fPEzRKgEe5FZde0BLBU+qTvZ4aM5TtPNJ0UFmFVsJQyfkj2zMm7DSSlHEV14/2nAs9r3h8cV9MBZME2HsBL3Gj8HTne7dshgYeaaW9cIrofFtaH19QFpNZNku2+bl1afo7JyybKP1PES4BNpo9+FA+Et3yBWAhEuRNQmvv2V6yoCGmeTv5YGprVuuzCnTCv81/7Us22+nhJNuqZWfZ9Xbc3CLFSIg5bNCPiloU2BgxFh1q8M0D6t0MubMz4DIMvKeUq5Jw1y7apSCKlcKjGKpF+LXOPXw+vqGeljDqV/32H47fsid+7oXMjtpOcp7gTDtY4nVzGir8mOFeffg/ZKU/C+5Jk0bSgUfy9+KT6EF6aj4rFekpeUt89h2C78YfPoF9Y02rZxl3rHvK67z81cvpaQq+XyBKOdXjI7QfU6p+SIPLePMl/XG39pfG8mkDo91XtbvLTZOlUArdZYt94tYYQSoc8Fy45ab6lA7j7KhYOnWJa/rl9WgZ7O23WKdbL2ZslSkw2OgZXGiV/dWxAB1lc5OytNuD+4b7Cy7T4bTSzJdkDHjGrr7sfcMCHCgOE8RM3IBMDMKOkEOakygRRL4SLc0Kx/ZhXz5Nft4ClWtRluiTQthrENoigydD/WIDrfy++CuadoudE+MhbdqGJWWtcy2/xOXFzqalDwettVSd7cHOZKSYhQmMOgfBVYhq9yRfl/uVRWDrFf5rbIu/Awte7FTKCTw/PDBst6sZKe8NT49IXkRwqXxP2yrJVloUzPpPci9mv7LN8Xp0Pj5WxsKDIcvlaCmHfXjq3+JI/RdJz1mnp50H1tN4qI2Orwof9TeKwplYVzMTzUsr7zeNtY1z3R+VYwf2S6In/VEmdD5LNbfz3/YsmyzW4apl/wIQxZj6/AKxgL7jfc+o/4gtEjZeH+Rf/Qxs1iHN01Qb7fqJjBXwHEHdUqhjtKqkP0wybCCEgh4oFN693I3r8Zc6J6YWFrEU/HEYEm7T+Gl4pH5pG4KlmnkN2mSYanfqwIb3mWHD3ypI1JZW/I7RNOMvVrVS1KGp756YQdj0bDeTJxKmb4MvzFTYS1xaDpgvIQMQA2vf+tZOhkvlaAsB2D0b5luHN8733dp9oi75pUv61rSnWrAWDRvd8d4/SIdDDGLH7r+NLYqz1vIAYvOM7WdWWVdNGFlGlGgUFJeAmBm1C3dWIMHLdBOv/fatIG2iWyMgdYqB2WSPmRq0nI0VcYPGcN6akj+iC7ZZ770kxMGAEOdZyDZMEoq2mGg8UGafZ1sshUlcFsd1x02Wid7zoPyTkGAj3xqI2UEIBAA44dl0mDaKCvLI+DTil3nwd+hMpRpxD4aQ/hJQ8iX5ZDfoTTjjFs3MHAt8EQrgUQi0cnU6WisbB59jyXZrdWMgKRV1vswvAIRchnWogNhB7gbvl+yg8f4cTwL4ViQhPoyUOHSoBrK06BsZYo45IvCX+XnluLtvhc8LE33pOZTpkypOAFXtfy4t+s5brmRMz+og5XLKzaOMgQHYIdyEIBB1I3GgJU6nD7gqvIGaZtwU2X86AKhql/56ITNjjphyd+6EtoQsdC0f0lyg+Ck3XfCo0ojt0a1C45pb3lSsW545FYKOIjVv4MFUJE7bu0XUW38pOp4SY/8VlkXfoYavpafQkL1w0cjlk3quILxRCGog3CQtoq8WNmuG5i9knloPqN+UuqoTB2Qvliaj+4+ky2TUyBMSN4IwlmvIiiJbqB6QsKBg2c/sN/WLF4ESOxRWmXmR9YDv1m2GN8G7GneE3L9xp0C1nTzOY8d4wsfsSzDIQEaPL12MHYqsuxTz8/5bMmeJImHB6wtF4QjDlTlxORoQEw9jcsSteU7Du3+kGYt/BRSWUFNVo41e5JCS1kY0u6d+SmL0MG/bee8ATA5lP0SakUGevyYcvYk6wU/6wFLs488d3n2TOdrV+jwXWRqfQkdmtxB6bwkLchX7wt5xy5Fw5Dw7ED4m/4LHr4s+85r0qe113dT4g8enJwADlkVqSfYkK4Kz5CurNOGqkwvaZDlAAzqStaXTNfEt68+fLglPA0ewFoXAMpy+fB9Ye+Z7M6RDd3/s3MuS2zfEp8O079HTtHKxJ5vWQ9yFgjgstye5MHgZ9x/tC0HE4whMqWuqpABeXnTE/P6K4uDy169NmA0BH2hZVn8MfgNVuaZxnj0tZfNZO96ml1WYqGPfOvKUYz2WPxUGz9gVBu31oIpoU28soJiDEyNDyn/FBwxwSMO0l5HsI56cbETxp4TzuownzL4tTIGjtgGQ+YDxXvXzZZk73B3mWgXOup+99uQEzpVcSbBD1VMZ5WBEFBwer/aLvezFbyvHrGmfyd1PwvxS/9Og6l/KD1fB2WVCaf2nu9bKpA9usyswe+g8RjIJ8T3QDJv1JPvm6u81GJLGlh/MMZlG2C4N2NPBHDH0u76oLxDsQxb8FbSqLOSdOo4329ZX6SPfhV8Mp9XPiYvjwyPfVtyHUuTGn9L0cmnpkmCc0K29e1ymUtKI4C47IX6tcovB0AiWeGzzgnEghwUsI7+uKPTX0/bzq5byid9pE5tf6M5NRNSvVaayT+I5frVa1szfixBAjHyaKKsqCChCZFSiBLAR0BSBYU0+6YeqcBGMhAB295xVCxIP0dtZRQg04ossttu6KsBCVWc0SjGjB4DlWW7Y+BotlQG5JfGrX+HZq/+yx2DlXn30nqK5+ObpEnnLX9v5J4TWEQzAAAfb0lEQVSxgLthtsgbaVxbZdrQXdK4yS08RPVRmv9HymVCxQMlfRpa5iENOsCVpzjHrnEhZrNb5hhlvnmq8NcT77M0e8hdlmQvc/tvZHrWa2o7ZS6gRuJhOP1H3LXYFq0yob5DOKrMAst8IGtwLFsorz5k/p9p8pCi3DKcRj1/W74l14C71aBNWGlkmJxBk+H4/tTziwM+HV/ndy5x5bFI3WmV3wrTuWxn6HMN4/st8y9T7z585EVMZn3pmwwvtqwmMTeA69Jr0cGRXQ0gFCik0Mjv3R+SW66xypa3qgrU5mdTb6KYyEUgy2Ld8wMwSxmJ5N5PNgIu38V4IxGRJhnGy65kmPUdqn6Nlx0Q8Og4nqjBHqJdts1nZUL4JT166l/G3eXWSwqzAL38JYD4ljSK4GzdxM2MhLth1t35IprGjLDOZDjzQH2xDhlWxrdwWul9cKG8pSzp9L3fopxWnr4wjcsHVyYcMwSHvXAmu53b8C/rkmWgn4oTNEo8Mh32CX7ULfnGnKj6IeiXXjKTHfOKfofuwz8ENj5kfdFwZdnoG8lGgiQscVrV+RTPTKlESMNfhuEbbfMxgb2BhL/7bf3d3e1dfbbhqupb0sKbtiEnFoWp+ov4yvqs+1g63x1yTMe2SJ/hsfvLCNeG75eGNnKbIpy6EkgaGyh/p/iygafAA+aJCZscJa7UPG4/mFGpMtqT+elv3cjK4LeU8x7ubo0UFzIaLbzE6atH7K1JadA6PZUQ8Wtf149PvjQc8YROQxEGPo+R3vsOSwrLXssFO3VdIR06QCsccU06S0EDv+anzFN2EJrGlLoCLomDuFkHUoZovPvSMG2KL40K1qtFRwgX+CXxSFjs61q+rMhRzR/Ao5wsK9PfZ/Mlbmm/r97LtFWm1/gYDt9Hr4Sxvof7V4pF6oHKerHSvugRSzN9p9rHn9c3DIEOp0+bdBpbiB9Wvve/Ux8D5KIqv4CXgy5gs2iw5EHTY6XTML7foXYr09zr9mFTQvOTaevwhjiq+mGKq2JdBOl8QoPKThYWX41Gyo9ZiOeKGaYIeC86Ral+4NnLM95O7VN4d9usGtFsBORNGaE19ylUI6PAKioGBrIDwu9tVGNkdoCRdS+/iQc+y8swlpu/ta/5wfxicLgj6sO7Lc/WW+FLUcSwrhvMY0SPSwclTfIqBQsT6NNlKmK2f6XInZ2yH8qj4jg19RLxXpIcxct6k2UCBl3HvrwkDsJYxvEKYUykLjUSn/ZlnkM+DT80dPnfEj9TW/IqjTvCSV/LpozzfceMfV86hj/7gUuzsw8U75a4CBo/FotiRu6u7lqNTdcvSvZtBo/uWjwhHZPyn/vg/mgEZcXJ2KqOZfPVoW4vVj5FrlkQ/rCUU8o4kBKbuSOd2veVy09RczE3GeMHo6SYO+F1+bquTyCkwqwusjFKwmv08dQ2xE73Xppxdz6Pur9T7b6/tdjzQCwpbZONkHzTQosLuLiUpUdhZgdGRCSigq/pljTdVRt5g/xQpywLsmRj1NlrZQzDITS1K/MO4dVwt3Jvhv3XPfNlOGxglEaCpgu/MaKHsSTLIQ8GWGXC8xwS3sLbRJhuMye8bkV22tv6jVNudP3GK/MGK9NoscCytw7z0anlgdck3Ot2OQZ2wMChZxJ8eC1+AlbWpfz24THDHWm+tJIvTOujJS/hqEz7BkLEaflSVkgH+Uu+WukYdsBT+rMyuASWbsVgBc96RR3PH4ScLB/hyAv6DG/ar4s/hf/QL1rnoBysB8iIxQPGh8qcAuNLHzOCMcP1mK1z/eXDQ9q1b07Z+pA0HB6WuIYzi6Fj44jBWfE/3z9XplY8wuSozyfQEELusOdGPx8+hvtwMV77UCJUKDrO+zsxAQ0NNDhMJT9d7b6v2hA4a8D0WmFvsfGS7AUPX5r9YJ8V2VbudBYdZjWYhmHwrTAZn/JNA4+wkkWyTpAXGx1gZZwMJx74esQDHC9+pFhbksDumx0Dg32jcS5LEk6n++yeM9nebjNtipPlCO35+Yo7grrlpksqzfyk0BGCwc3mKwb7mSS9bGNIK3lAWOK0OgTGxfzHb7M0O/1/VmR3u00uj9Qxu7qZCc4cWHhSliFlG2AZpAy+86nLsre7ywlDDvInZ+0kLHHKMMlDGR76lnRKuIOf5d9PJMuh02OG+UdviOtb5LXvE/Lyv8k9r4MnQTYRz4IABgMn7JsLOV97QhrqplD6ScWhDjX/LFogb1rnAI5ls3CAlykPsFaRGdTxfTd3Aw+fgmQhpKAwLOATH32rXIHkjUaFJa7RrOLIOHMQhxyFIDNHY+wQCpWORThPxcRebE8fk+pcyv9OlTHOXOnTQMwxFQ/h6ZO/9C2FDQWlT3FhFohpiAt+E8bPyP0lonCy4yjk5SLkK84WbaBvZa6z8XOohHo/jH9PcB1tittZbey0Gj+uFsCSwcd2X54dFOigWNfIN7Tnh0uABT6kEFsBRvJdJ5f5y28Jp5eiYMz76kimw7eGQ1r9rAxnfmbX6NT577u5axJ+ul/euT9iK1tNWkvIsvx4F+9Zg8sJc+zFL9Q/jghzuboYO/rLx7dRyDzEN/OAk2v7PE4J+iCZtVTD5gWebjZYcspzsb9wUR9ngjHD+dP9Vg6NYaYATMxZEAxL1sMsgCczKT/y2wMeDJbpffyXCDBQteqWeEZ0nUsMXm5c4QSnzNf3jVWEL75khUmTTBNh6RCU5cjrrB9l6b9hopY/7FbdcqY+9Og8f/3mXOn44KxwMtWKY5isKB/8MieBmwzWllcb13QTVxmfpy6YBm/0lHVUqrEXrjnzA/yr3aOg2hGPDo/91tOfcuQeSguht3Sbj/8hXDpO31wrG5L8Bg1sfMAhOy0ZLvHrGQjASfmRsPjG9QB6j4OGwe+N3PKTdCGcj7rHUnd5ot+okrRLY9THW0u5Slqs76ryYuGSo3dJu4TVMy5lZn40rVZ5bzHYW+Ub/IAWGGDyRupbeTqYT79gZngJK+VN1ifz8F14ibx4JYV1AII4AUfn45sM99U/cODZBOl898TIvDVfZXrre4e7F7uVo90eNbnlQKexNjtrHLJ8TM8w+GVpJA7pf/u/820RdfFR9oBH4vIdy4esUF4kTdSdvfowKpY8kGn0dwqMTsPfMu3tN2Jo7m/klu1TnB6EMI1sLwwbl1+U0nHlGshn/bYum3J5SiEsrIMIemA83G7DLHvZo5ZmH3qOf1oY98js9Uh/xyRQDk9dMOxBd15apIURwseeFdBAhxtkYUR9QV1AyHj6bCz8rf0CD3Rk4DeNKqbnketAkmGUbEAMtMJCFxMynfTXSA3tIvDzcy+ayY4TSgzwfcWSN1KcoOEryVRSEi++OUPA8BhfCRfzsVfn/uIhS/Izls5SEpKHsgOR4RIv6xBh2yQ8xivT+nAS5o1ueWM39xZRqvPxXRodwAW4vOb82C0jyepMcCcTnszxzXggh5T8AAfFT+PBqkeWEaNon+PSrZVnCKcPXyz8KeKaB8Bu404NjuyPc+FW3laYzg9y9fHn5UYE4nE9wB1u5e9qpOwSn8UPxmnfqmcN0/sdQRq66PCpim8mfhHIrNBuOUjDW3G+G5mx5EV5EWiGG/6VqhuCyHZptQEAkpZhosDHj/ddUXhAVeI/6sWjExPveqq/j5TZ8FJb4qOfIlMST5PffolsMpcx4CIzU7OyBA1p0ZAwQn31jsuD69Dffe2KYHyMDqszk2mw5goa6CAk2Oi6YcTSlh0c00o/lq+Eld/s/LkPqtTMjyFlFv/L3rVxO3VRIsqGN7Lu7Pa3yEaFvN79tOW9Ufr971QkxqcYzr20yKkYXyWv9Df2l0h3hFMiOLoLZy0vSNjQt+RhbMMz8PDOLNxyvPf2+QyALCnW+eWbbXu6N4bgyGsete8Fin+4QuCtT87lVUSZnz6+65mflI7tv3dclj30Lqj3PlbqAqszAw9e4W4YHr5QLws/oJTpTcI9geyctNwBPIRveB+XwZCnbVeUmx4uT/73c/WW4tKgPMZPQgYGO6OpTONHEWrxkCBWXDRTA0AaDxrnDncfrQsDxUgQ5IFLVpDljynDkAkgl5asU+/6ls7IA+Cx+IhwXRaE+RwOxGD/Jp3UMXqp88y3r4j2R8DzcjeI56yvpoXthvmN089LOc5cS+a11a1lFfcT480vPqSGEDK3JOoRcNkARiI9AVLheUBKB0uhQ+JUpaLT6YxThQ3GFzbK0rHzJ8854mW8z0fNWTTpRuBL7wvf022uxnMQoOdhWw3EWDBJlhNKBXuR3vyk5UMDgHhT6YASGpVCYgn7+xtv+2w/UKapsmPlTdo32yA3bECJxW8ZTmVsUX3WRWsL1zBgxIvlPBoS33NGfxNO0sgLKIGXRhbzkHAM0/5LH+VeO3eA++20LPs/94zHFu7pD7gNiietdTLvb4vXPuAQfWwzIRgue1l57u/Ko50P19Pde1k8jUi50GnxOxQn4WX74XeKrKbAyHzwbXXa0pgHjMUfhMMhTjT9XliVf1L3b33bdTJc0wBj/8OBFQBfPuQz6OLMD+oOe3RopMu0yNsyfihDrAOm+e7gHUApD9aGacCHeEd8Pj+UloMpX9pN1s8y3Kr9KjGI1/iqyIsvv7Lhi8L4+earRxUuOrKT31JOu8kG4tvPI4WpLDNLwUdqnY1HLn2l4I/Rb2Wr36VCPpiq50ZZ/H7iYOoebxph+e31no2SgJUO5cCoXDuWT4en/n7eQ/sdA2SAJ2rkLIpUFqG8QnGSFighKT8yLvatGzzgWU9WfVj4rLx5evENjy/OuFj5ASeVK5SxLHcqDcARW+O3ZAnptJP5f8KNhr/+ypneySzMbMpnCAAnYTUe+Rv7tB7uNhnj9ms47u+RMEnfBgM/75ZTrUcbSZuUN+bBUTvrmuHSHy57GXlaDwczP+LgwBCDP9+SCmF9Pi7M1E6WR35ruCZ+Uy4lrv13Wj405hCuy40w0gX+4iqHqLMakUgkjQfIzo/3XZn96s0rM2xTqOPu5y6chMMjzXBWeRFmyQllCEv8NM6wPQCb5OEkX3T6B27ZFyoJgzS8ewvf6F8w2+tz6+bj3yHI8e7KGJzQi7mT3rgyk+/SAV7TUkb3xPIrGz8q9WUxtACP49FwL07cU5NKgmT0VTfaqShgduz4QinID7lLuYZnNSxJteQBw3FPwxF7hYUZy0WYAcAjo1h+w6V1KQ5Q1gZvlk/iAG07lbz5Guk56+fTbRapUnFKGnzfFr0+WB2uGzziiY906DQpv7F59QXusdLH3avYjK38Cnm6axDacpCjQxOeZJA0Yp/f3d1xdG6KhMIczuZVIHSLwbtutxwdM41gi91MywS4r8Z6tJGtwGpXrGNZVuKjz+UM4mG4zydOxJ9xwIrhExb4bdGAcOmsfN725NEZpoJc+hqWRDz4TqFBJ2P7leG3cse493dH4+ksukkjBiZ7umVXyzgNdezETb8N3Q9+YNYZuvPhd+3rcsrDZ16Yl88/89MvOWZrYZAdsutyN7tp62qt+znDy/xYTty99fht+jpDLnExXvor3YDirU4+Pujypdvc7d+KpSOs9nU9lhAtjar276LWrI2uGQQ4EgnL8nWPyxmegvmze6bDX3GdzXYtQFSkKfmXgbFyh0W+wWAEQyW38eDRPnQOdNgX4XsI0FIkTAcfm+4sB+MGS0hsFBZMlTA0PBhKuMlYuuKvfgx4grtHfufWkss48koqXrl3hFPHEifflLHoABxG0a99bN4pMA+Jw/pGOrmMAxitfHphg8RU4IOfpTzMkrzRjZD1UWErPyCmbNfJE3i++Spb+SIOd+fsmHDpWYyfrEvUj6+OkJ/lDt1tJvu/56fdmr2POv0EfGXyI6+t9ky5C5WV7Rh4cG9LzDE/wKHerUGIph9L2NKhA5Vh+mQjYMn/3vcgsQwbBI14dWWLCHUZrEohPeAvDhJYxmmI98yLvjXTxriyvqwnnZY04bFhOrRNaxmJAzcuneFKDXnTNXEBj/zGb9ZFngtC+9c/cKkRaUK0An43d1s17sxqxA2IYZ6ksRHcJZHYPWFJJG2Ap1qWuFqbd2Q82E1PPsddg647H4s+btzVcVRYDL+Hm2Jsw7HhStyYZr2la8TS4cLAI90Jr/3EZWG/fsuK7Fuv9ndAMr3+Dp3IwRJS6q23Gm/s9+Fu2eCkN+ZGDYVfpgNPYLxVVUKSp5g5wKkeOK0UEMZRkS8vjMTkpuCYUQmccDhphiUS6az8rfLLNL7v0J0mxCnzkyM2hkPhcO+WdeO3L2+Gy0ssv/bymeGyI+NT/FR+Wp0e8G+7RbGdyDxxNJ2jbBlufUvDkYY/+WjB6zDyVMoeYRhHn+H00a4xkwoHfuDelpgrQxtxYQmby0Iw0tCBhk6gIZ3slOQ3ccJnByrDdr5vQ52kROq+Wdu4gwkb3OFIl4+/gNH6HGFNOt8BANIbkgvSD3qgb/BkjXakn/pKx0t5ICxgcF0D8UsYpic+8C7EP8I35ZMv226xpHftQurBmabyl3jyoa0MXUTf+mrtt+3cF6BtD1yVcUq5THFoaTONFhxsApZ7YQjXlI8j7XBSILdzd8hIZ40QZHzoO7nTCSERceDH3y/v0yyCh5/kH44wy/Vjiw4/liE684O8kumBH6dlPnHSfIGXRHDj4A4nX+N7rttQX8XJzpTprbKSZioowsZ8ykcIjgoGMHLExpkf7DPBhaIYNDzeLZn96I+BG/9CGbm4e95uSe8vAlYvmkI0wHKqey4DHe+2B66uh9eTOmRg6iRYDoOhjc3W2rGOrfoHbJUN2cSp88JvKf86niy0OmMNi99SLrmXTuP//utXZDsektcBDNI9B6cYLZxlwkgv0/B34VmUAUGMI6z0U8sr05T5xp6g+7x91UiSEE2sQ0kb2iYeo9WOsLI+JIy8kkP2Xae8dWX2vM/kdSPT4Jv4kO873XH1j/9kPnuv0wdNOBj1F1xhr62TL9g6EXsPrAlaQjhGuR2CXkRxZLIkGctK93Tv/GBJhK/uIl7C+mYC0LCx0Tdk+Lzi0dU6TEkjhdKnMCVs6jf2YBztRuhtOPAjNNqTHXHd/GVDl7h8CmLNQLuw05dpbpzt/9I3ChPmuSXurGGaMj5HaU3yh/lLeWYYfPIJbIF84SSXvldHwk/yW3e0khYYPnUGABKX/GZd+PgnYfmNPRG47NB6nsGSO6ar6rMOQ+lD9If4CpycySi0tUEi2VkDFrOGX3zJTPaGwdIhZKkpvcW6QD5w+jfCqCtDPPENgFP2pSEPn8P2AXkalnBf2Hsmk3uoLH6zfkg/0srN1sQFnzN2vkGaPB2p+673u5kkzPRbfRbzBi14+uYDz55xt8RbXJbUpH1jsG4tQSI1c9CylIa5WahFafykKBXdILB5Ggrzay9fkf3mbSuzlw7eT8JelP3cvgmfwzIa3CG7zoxcVqjTyFG/PLFCOOxDOHCX0REi4+FTKDX9Eobfu2y7pIcPl5S9z5gyJRz2YGztRuiTcGzoVt66QccaxDfciSC6At5Bi9Lp+dtSyDfM9dWSvKzxrHfIZTk2U+bYn0rOf9X7uqc7Svt8t1n5YLUfI4Y1ZVaiwBuBkG9ZyYc+RXTvU+6bkwMEDTep309wGzVT2kYV+nCjdpPOkjuJ3+oYZbz1HcNppUHYqDTbkBwUSOMHBh46e8tguK+brbjL4CqSFL0sc/20u5bgAM/bZ5RhbkLmb5meujJUNmn8SH4/yt1CfT83oN3UHceu4jBzSqPiEXfNdev93HLOc9weGdJEHSTzoPySfsTdZ3DiDrMm8iQV+ikcbPDNkmDP1xPv088fMz+YgTx8cHgFW0dw9xZpkTSQL3K2SMa39c16lHXRVl4xvOGeOJZ6QvFsEKHsZYXjRl29efoRbuf92QfGlR1OW6XAgRaugWPT67PdxXbv+k7xfQm5D8FX+WwsFJJQGd/z9L4x8IwH2NVY5qRDKJ86cbIeNJ5TnRFqTRkD7ofu4cQbB0eWmQ7HO3FT6KXXMqTvMw/yjrGhBk4lH1uKIy74OG0B5fSCzw6mjWSk51sbeATDKC1kdBOO/pKBQKR0MFSuTEsfD3xiBlDf6AsFedAJc07pYjmpz01pCDL9WP1BAwE1rF8YYxiEtOXYETK/NvL5+POWZ0f+ek12ynkLQ33RVD5a/i28IZjbuPui2LZg8HAhDVXx0d39fOdx/RS9LGnC22eWQ+dPIw8HQK683j0DYqyisCwhXQkDA3oQ91fBYfb+qhvW9gbCX9g7H+xYdOgwPLnxs7/0CZF5ftTNrN//XcUlJhqEuFFcO7ZP0P/LN63IzrxwYfhAqd7igM3oLxxcNKrx8Pe+7qqL489e7W7rxoBqtC/ol5zQfZ+GF2egi7Ht/WLb4oGT9nKKYx7lVDzNRCBwEgKNAO6x6mhvP7T4nwKGUOum1CJ0vV/9u0/Wutej+1V7byeEbLw+zGy4jOcMEzYjfuHkNdn65dol0fR8LNGdeeFa96Kyf0arkKDFH1JJxLKRJ9H6sxRsKuGUrGvdyPnbmlLmnh95KszKBR3i5dflMVBO2NT81d+syXZ0ig2PkPocOjrew4KlgYfcZVQR+tLqcLz9dM7FS7NXutuJfY4yBYrwKOpP/jzaY1gzgI+911LXpoodUUx+fTS0Gs4KHWSCJex/XqUCPQRsf7cl2c//OsoPCU7D0mewStiq37jk7gPuRONJf1nTu6SzKp7XlnwfkO3Qx62fuGcNMBDAHh4cBnmYk9VfntvnFztKH63DQUZ18e6hhtGD9sS3FRH4Lncz+4dOnM82NPaCky7Wm0UfLhTc2u0vOeui+d4FmvrhZSuNL+xD7pTcQSfMZ0eftiaTp4Wt5SLMuvzmrSsyS5awD+/MC/v04KbxqrdHk07cvIzltnu42WTLPdLJ/gdPLMaQd9Sdxdj2fvFkYRvL1mWp9mvSsphahsdJCM4SpLwnwsYOsp5+/3gxMSL4wz/DytFXRKytnvD7NT3r/SsvnXHv2PSFEBe3zRUnf3wohkfc933CMncd+LLeLIMXOBJBY8y3nyWSvJFo7B2Qr6fHkEJRyKl2H/zm7g6XS69dWxg1s67ZoJn2Tg4W9+DsOli6ZDj8vdzGzHMuXuhtCNYzdBLu6FesyC65pthl4PmMNz0prumlUuMzERJ3mW/cgfOWyPMRrHcoQ9x+3fQyThl668JiAHHK3/v7SlYNNqfrCxaxhJ3qYIjSOLTSwEB+oLvu4SU7LHXPoMT1hYUjJQyzIziN9vTtwnlYnSbx+x7Q5ck9q4PHvjzMOPl0wqZu/w7cRu5qDRg/O7kHdTFAwEbYEN+QpinjxzrhizYk2xHyo2N7Z/tH+Cf2WJ6d+Y+F3vHs8y9f6L1dhgEOLmcdPmlCBCV9dNyvc9dfXHn9WtenFAcLWHoiH4jWt58ON3E/06XH8fymHJbbfA4nCiEz7D8Bx1WKsrN1vjxSw8E/DOyr3OeWmkcqXLgFpmIZM5xlaWsSMDt03Jnpxgx2n+OvisNojgoTU4908m4ehtHvTyvzV+aWc/rpYBFvOLjbJ48t94XR0onnrHEXx+W0SAyYgcC0O9xt3SOubbgHuI7kJDfzMGsYf9brwD5FoWnDHS5nOOUGntPxRfN7iLuQEIelJdyDYzksocGwgcPIUSsupsGdGvJeDYZPo/82d5X82W56H4ZP2+6n+60Y7k8rkxful5HLbrzXSuN4tTvOjOPYUNyYIscmUnTIVR1msmQnKfH8YJ++4Q15ec1/2fIi4UPfuIICs1G+WT7f6FzjBE1lHTqUlcuXO2NhtP4x8/gKd/VDaKYS+X1yD3fb9ulresvLW7m9hHAwiEIOs2q4Tdi6zDSUrm4cl07k7MX2d1ua4Q/u1rfM5cUnZ2VpgAH1YaeDtDv4WaNhGoa/IYvrla9eJq/sP9bNVP/wj329j1PRd9x4vtZlolUIAf/2UTfSV8HTRJq8B0nA9oAHPGDtaaedlgDZDsg5bmYGx0OtEYLOcc7dCnXa+Qu9S8Dw2OW0OTRcTJ8+0Sl0GCI7bu02cspW3CLBq91m3+vd6O4/bgSDKWY9om4i6+tXr81+8Ic1I7v+z7pooXeBII0XHLO+o5uhwX6UOu70CxZ6xh7foCqD699Xr+1NY+OF6y+ePJ/9zq3BH+xOP3SuOgcwq3b+FWuzJwfufTnlvP7SjzVTUT3n6UyJUTdmB2Kd5IsPn81+8/eF3kh90iWBjjr2jDXZzvdbOrx9e9I0yfyh4w/45lzPqONzDzK+yvc+X53tXSD72sfWM4Kr5N2laYcDztg83WF+oMa+qIwfTXz3u+NAx4GOA4uBAwtujQYzT1O5l2oxMLCjseNARQ74jJ9FuexVkQddso4DHQc6DkyEA+Oa1Z1I4bpMOw4sQg7UW2tYhAXuSO440HGg40DHgY4DHQdu3hzojJ+bd/13pe840HGg40DHgY4DNzsOlNrz47hzmfu74GbHpa7AHQc6DnQc6DjQcaDjwGLkwJ0c0bdejIR3NHcc6DjQcaDjQMeBjgMdBzoOdBzoONBxoONAx4GOAx0HOg50HOg40HGg40DHgY4DHQc6DnQc6DjQcaDjQMeBjgMdBzoOdBzoONBxoONAx4GOAx0HOg50HOg40HGg40DHgY4DHQc6DnQc6DjQcaDjQMeBjgMdBzoOdBzoONBxoONAx4GOAx0HOg50HOg40HGg40DHgY4DHQc6DnQc6DjQcaDjQMeBjgMdBzoOdBzoONBxoONAx4GOAx0HposD/w/Cua6ulMaF9QAAAABJRU5ErkJggg==;" parent="1" vertex="1">
          <mxGeometry x="60" y="150" width="136.9" height="30" as="geometry" />
        </mxCell>
        <mxCell id="isVZYeZh4vV-a_DudpPx-94" style="edgeStyle=orthogonalEdgeStyle;rounded=0;orthogonalLoop=1;jettySize=auto;html=1;exitX=1;exitY=0.5;exitDx=0;exitDy=0;" parent="1" source="isVZYeZh4vV-a_DudpPx-11" target="isVZYeZh4vV-a_DudpPx-86" edge="1">
          <mxGeometry relative="1" as="geometry" />
        </mxCell>
        <mxCell id="isVZYeZh4vV-a_DudpPx-11" value="" style="shape=image;verticalLabelPosition=bottom;labelBackgroundColor=default;verticalAlign=top;aspect=fixed;imageAspect=0;image=data:image/png,iVBORw0KGgoAAAANSUhEUgAAAj8AAAB+CAYAAADLN3DXAAAMPmlDQ1BJQ0MgUHJvZmlsZQAASImVVwdYU8kWnluSkEBoAQSkhN4EkRpASggt9N5shCRAKCEGgoq9LCq4dlEBG7oqomAFxI7YWRQb9sWCgrIuFuzKmxTQdV/53vm+ufe//5z5z5lz55YBQO0kRyTKRdUByBMWimOD/enJKal0Ug9AAQK0wWjgzOEWiJjR0eEA2tD57/buJvSFds1eqvXP/v9qGjx+ARcAJBridF4BNw/igwDgVVyRuBAAopQ3m1IokmLYgJYYJgjxIinOlOMqKU6X470yn/hYFsStACipcDjiTABUr0CeXsTNhBqq/RA7CnkCIQBqdIh98vLyeRCnQWwNfUQQS/UZ6T/oZP5NM31Yk8PJHMbyuchMKUBQIMrlTPs/y/G/LS9XMhTDEjaVLHFIrHTOsG63cvLDpFgF4j5hemQUxJoQfxDwZP4Qo5QsSUiC3B814BawYM2ADsSOPE5AGMQGEAcJcyPDFXx6hiCIDTFcIehUQSE7HmJdiBfxCwLjFD6bxfmxilhoQ4aYxVTw5zliWVxprAeSnASmQv91Fp+t0MdUi7PikyCmQGxeJEiMhFgVYoeCnLgwhc/Y4ixW5JCPWBIrzd8c4li+MNhfro8VZYiDYhX+pXkFQ/PFNmcJ2JEKvL8wKz5EXh+slcuR5Q/ngl3hC5kJQzr8guTwobnw+AGB8rljPXxhQpxC54Oo0D9WPhaniHKjFf64KT83WMqbQuxSUBSnGIsnFsIFKdfHM0SF0fHyPPHibE5otDwffDkIBywQAOhAAls6yAfZQNDe19gHr+Q9QYADxCAT8IG9ghkakSTrEcJjHCgGf0LEBwXD4/xlvXxQBPmvw6z8aA8yZL1FshE54CnEeSAM5MJriWyUcDhaIngCGcE/onNg48J8c2GT9v97foj9zjAhE65gJEMR6WpDnsRAYgAxhBhEtMH1cR/cCw+HRz/YnHAG7jE0j+/+hKeEDsIjwg1CF+H2JME88U9ZRoAuqB+kqEX6j7XALaGmK+6Pe0N1qIzr4PrAHneBcZi4L4zsClmWIm9pVeg/af9tBj/cDYUf2ZGMkkeQ/cjWP49UtVV1HVaR1vrH+shzTR+uN2u45+f4rB+qz4PnsJ89sUXYAewcdgq7gB3FGgEdO4E1YW3YMSkeXl1PZKtrKFqsLJ8cqCP4R7yhOyutZIFjrWOv4xd5XyF/qvQdDVj5omliQWZWIZ0Jvwh8OlvIdRhFd3J0cgFA+n2Rv77exMi+G4hO23du/h8AeJ8YHBw88p0LPQHAPnf4+B/+zlkz4KdDGYDzh7kScZGcw6UHAnxLqMEnTQ8YATNgDefjBNyAF/ADgSAURIF4kAImwuyz4DoXgylgBpgLSkAZWA7WgAqwCWwFO8EesB80gqPgFDgLLoEr4Aa4C1dPN3gB+sE78BlBEBJCRWiIHmKMWCB2iBPCQHyQQCQciUVSkDQkExEiEmQGMh8pQ1YiFcgWpAbZhxxGTiEXkA7kNvIQ6UVeI59QDFVBtVBD1BIdjTJQJhqGxqMT0Ex0MlqMLkCXouvQanQ32oCeQi+hN9Au9AU6gAFMGdPBTDB7jIGxsCgsFcvAxNgsrBQrx6qxOqwZ3udrWBfWh33EiTgNp+P2cAWH4Ak4F5+Mz8KX4BX4TrwBb8Wv4Q/xfvwbgUowINgRPAlsQjIhkzCFUEIoJ2wnHCKcgc9SN+EdkUjUIVoR3eGzmELMJk4nLiFuINYTTxI7iI+JAyQSSY9kR/ImRZE4pEJSCWk9aTfpBOkqqZv0QUlZyVjJSSlIKVVJqDRPqVxpl9JxpatKz5Q+k9XJFmRPchSZR55GXkbeRm4mXyZ3kz9TNChWFG9KPCWbMpeyjlJHOUO5R3mjrKxsquyhHKMsUJ6jvE55r/J55YfKH1U0VWxVWCrjVSQqS1V2qJxUua3yhkqlWlL9qKnUQupSag31NPUB9YMqTdVBla3KU52tWqnaoHpV9aUaWc1Cjak2Ua1YrVztgNpltT51srqlOkudoz5LvVL9sHqn+oAGTWOMRpRGnsYSjV0aFzR6NEmalpqBmjzNBZpbNU9rPqZhNDMai8alzadto52hdWsRtay02FrZWmVae7Tatfq1NbVdtBO1p2pXah/T7tLBdCx12Dq5Ost09uvc1Pk0wnAEcwR/xOIRdSOujnivO1LXT5evW6pbr3tD95MeXS9QL0dvhV6j3n19XN9WP0Z/iv5G/TP6fSO1RnqN5I4sHbl/5B0D1MDWINZgusFWgzaDAUMjw2BDkeF6w9OGfUY6Rn5G2UarjY4b9RrTjH2MBcarjU8YP6dr05n0XPo6eiu938TAJMREYrLFpN3ks6mVaYLpPNN60/tmFDOGWYbZarMWs35zY/MI8xnmteZ3LMgWDIssi7UW5yzeW1pZJlkutGy07LHStWJbFVvVWt2zplr7Wk+2rra+bkO0Ydjk2GywuWKL2rraZtlW2l62Q+3c7AR2G+w6RhFGeYwSjqoe1WmvYs+0L7KvtX/ooOMQ7jDPodHh5Wjz0amjV4w+N/qbo6tjruM2x7tjNMeEjpk3pnnMaydbJ65TpdN1Z6pzkPNs5ybnVy52LnyXjS63XGmuEa4LXVtcv7q5u4nd6tx63c3d09yr3DsZWoxoxhLGeQ+Ch7/HbI+jHh893TwLPfd7/uVl75XjtcurZ6zVWP7YbWMfe5t6c7y3eHf50H3SfDb7dPma+HJ8q30f+Zn58fy2+z1j2jCzmbuZL/0d/cX+h/zfszxZM1knA7CA4IDSgPZAzcCEwIrAB0GmQZlBtUH9wa7B04NPhhBCwkJWhHSyDdlcdg27P9Q9dGZoa5hKWFxYRdijcNtwcXhzBBoRGrEq4l6kRaQwsjEKRLGjVkXdj7aKnhx9JIYYEx1TGfM0dkzsjNhzcbS4SXG74t7F+8cvi7+bYJ0gSWhJVEscn1iT+D4pIGllUlfy6OSZyZdS9FMEKU2ppNTE1O2pA+MCx60Z1z3edXzJ+JsTrCZMnXBhov7E3InHJqlN4kw6kEZIS0rblfaFE8Wp5gyks9Or0vu5LO5a7gueH281r5fvzV/Jf5bhnbEyoyfTO3NVZm+Wb1Z5Vp+AJagQvMoOyd6U/T4nKmdHzmBuUm59nlJeWt5hoaYwR9iab5Q/Nb9DZCcqEXVN9py8ZnK/OEy8vQApmFDQVKgFf+TbJNaSXyQPi3yKKos+TEmccmCqxlTh1LZpttMWT3tWHFT823R8Ond6ywyTGXNnPJzJnLllFjIrfVbLbLPZC2Z3zwmes3MuZW7O3N/nOc5bOe/t/KT5zQsMF8xZ8PiX4F9qS1RLxCWdC70WblqELxIsal/svHj94m+lvNKLZY5l5WVflnCXXPx1zK/rfh1cmrG0fZnbso3LicuFy2+u8F2xc6XGyuKVj1dFrGpYTV9duvrtmklrLpS7lG9aS1krWdu1Lnxd03rz9cvXf6nIqrhR6V9ZX2VQtbjq/Qbehqsb/TbWbTLcVLbp02bB5ltbgrc0VFtWl28lbi3a+nRb4rZzvzF+q9muv71s+9cdwh1dO2N3tta419TsMti1rBatldT27h6/+8qegD1NdfZ1W+p16sv2gr2Svc/3pe27uT9sf8sBxoG6gxYHqw7RDpU2IA3TGvobsxq7mlKaOg6HHm5p9mo+dMThyI6jJkcrj2kfW3accnzB8cETxScGTopO9p3KPPW4ZVLL3dPJp6+3xrS2nwk7c/5s0NnT55jnTpz3Pn/0gueFwxcZFxsvuV1qaHNtO/S76++H2t3aGy67X2664nGluWNsx/GrvldPXQu4dvY6+/qlG5E3Om4m3LzVOb6z6xbvVs/t3Nuv7hTd+Xx3zj3CvdL76vfLHxg8qP7D5o/6LreuYw8DHrY9int09zH38YsnBU++dC94Sn1a/sz4WU2PU8/R3qDeK8/HPe9+IXrxua/kT40/q15avzz4l99fbf3J/d2vxK8GXy95o/dmx1uXty0D0QMP3uW9+/y+9IPeh50fGR/PfUr69OzzlC+kL+u+2nxt/hb27d5g3uCgiCPmyH4FMNjQjAwAXu8AgJoCAA3uzyjj5Ps/mSHyPasMgf+E5XtEmbkBUAf/32P64N9NJwB7t8HtF9RXGw9ANBWAeA+AOjsPt6G9mmxfKTUi3AdsTvianpcO/o3J95w/5P3zGUhVXcDP538BAEt8i7U6b0IAAABcZVhJZk1NACoAAAAIAAQBBgADAAAAAQACAAABEgADAAAAAQABAAABKAADAAAAAQACAACHaQAEAAAAAQAAAD4AAAAAAAKgAgAEAAAAAQAAAj+gAwAEAAAAAQAAAH4AAAAALcx92wAAArZpVFh0WE1MOmNvbS5hZG9iZS54bXAAAAAAADx4OnhtcG1ldGEgeG1sbnM6eD0iYWRvYmU6bnM6bWV0YS8iIHg6eG1wdGs9IlhNUCBDb3JlIDYuMC4wIj4KICAgPHJkZjpSREYgeG1sbnM6cmRmPSJodHRwOi8vd3d3LnczLm9yZy8xOTk5LzAyLzIyLXJkZi1zeW50YXgtbnMjIj4KICAgICAgPHJkZjpEZXNjcmlwdGlvbiByZGY6YWJvdXQ9IiIKICAgICAgICAgICAgeG1sbnM6dGlmZj0iaHR0cDovL25zLmFkb2JlLmNvbS90aWZmLzEuMC8iCiAgICAgICAgICAgIHhtbG5zOmV4aWY9Imh0dHA6Ly9ucy5hZG9iZS5jb20vZXhpZi8xLjAvIj4KICAgICAgICAgPHRpZmY6UGhvdG9tZXRyaWNJbnRlcnByZXRhdGlvbj4yPC90aWZmOlBob3RvbWV0cmljSW50ZXJwcmV0YXRpb24+CiAgICAgICAgIDx0aWZmOlJlc29sdXRpb25Vbml0PjI8L3RpZmY6UmVzb2x1dGlvblVuaXQ+CiAgICAgICAgIDx0aWZmOkNvbXByZXNzaW9uPjE8L3RpZmY6Q29tcHJlc3Npb24+CiAgICAgICAgIDx0aWZmOk9yaWVudGF0aW9uPjE8L3RpZmY6T3JpZW50YXRpb24+CiAgICAgICAgIDxleGlmOlBpeGVsWURpbWVuc2lvbj4xMjY8L2V4aWY6UGl4ZWxZRGltZW5zaW9uPgogICAgICAgICA8ZXhpZjpQaXhlbFhEaW1lbnNpb24+NTc1PC9leGlmOlBpeGVsWERpbWVuc2lvbj4KICAgICAgPC9yZGY6RGVzY3JpcHRpb24+CiAgIDwvcmRmOlJERj4KPC94OnhtcG1ldGE+CsuCVBMAAEAASURBVHgB7Z0JtH9dWdcPZvMc2Wh5oVIJUxLRUsRXBURIQCNEBJlMlisI0UALzKgFTsm4ArRQkqBFhkwFAaIvBij1kjihNr42WzbPo/0/7D7e5+7/3vvsc37n/O7v3v/ea917zu/s+dnP8N3P3mefaRphUGBQYFBgUGBQYFBgUGBQYFBgUGBQYFBgUGBQYFBgUGBQYFBgUGBQYFBgUGBQYFBgUGBQYFBgUGBQYFBgUGBQYFBgUGBQYFBgUGBQYFBgUGBQYFBgUGBQYFBgUGBQYFBgUGBQYFBgUGBQYFBgUGBQYFBgUGBQYFBgUOCoFLjLktruete7/tzZ2dmSLCPtoMCgwKDAoMCgwKDAoMClUOD973//z96o+CPyyj88f9D6DfC54447WklG3KDAoMCgwKDAoMCgwKDASVDgLne5y0+XGvJhpYfj2aDAoMCgwKDAoMCgwKDAdaXAAD/XdWRHvwYFbgUK/Mf/OE3/4T/cCj0dfRwUGBTYkAID/GxIzJMs6r/9t2n6mZ85yaaNRg0KHEyBJz1pmh71qIOLubIF/K//NU0f+7HT9MY3XtkujIYPClwGBQb4uQyqH7PO5z53mu51r2n6v//3mLWOugYFjkOBf/bPpunv/t3j1HWKtfz7fz9NP/VT0/SjP3qKrRttGhQ4WQoM8HOyQ7NRw/75P5+mf/kvp+nHf3yjAkcxgwInRAE8m//iX0zTz/3cCTXqiE35L/8lVfZf/+s+lf7v/z1NL37xNP33/75P+Xmpj3vcNL31rfnT8XtQYHMKDPCzOUlPrECMA+Hd707X8X9Q4DpRAKMPj/+n/3SdetXfF8GPct6fsy/l7bdP09OeNk1vf3tf+kNS/Z//M03f+Z3T9M53HlLK9c2L934vkHsMqn3bt03TG95wjJq66hjgp4tMVziRwvI3/+YV7sRo+qBAhQLyN96fWzHY/73Az0/+ZKLqv/k3+1NXIGef9q/xatXwildME+fs4Y27iuH5z58m+nAiYYCfExmI3ZqhIhmen2Uk/nf/bpqe/eyrPdNa1uOrmVr+Zmn3VgwChr3Aj/up/u2/3Z+6//k/pzoc094a/8f/mKa3vKU39dVN94EPTNO//tfT5Jjv2RO8TK973bZ7RWn3Xny6ghYD/Kwg2pXKIrP9k38yTf/4H1+ppl9qY5mlsFn8e77nUpsxKp+hgIbyVvX8aAiV8xlyLY5mMzXhGODHvjimqeb5/y960TQ95CHTdOed82mvcgr2bxKkU/q1z/93vWuaHvGIbfUf4Hbp2O7Tuw+VOsDPjsQ9iaJhtt/6W1NThvenb0gwJC97WUo7Nor30ewyUjE7dSPure752cuoHBP8rPX8vOY1ifuu6nlPf+/vTdOP/Mi8BPFmI+EY4Oef/tNU19//++m6xX/avRdIX9G+AX5WEG3TLB/84DTxhgPndewRUIqf8inT9Ct/5dj03EvfV71qmtjj8At/4XhLrpdml5EuKtLr4PkBcD/zmcsoqSGMtFhWQj01ZeotPobnZw34QX/+8A+nPuwFAOsU2iaGDeU9Z1UdE/x4Ntw/+kfb9PF//s9k405ojAb42WZo15fC4WS84bAlwo6tgdl+1a+apt//+68f+EHpIVRbBrwJL3zhNH3iJ07TZ3/2NP3Yj21Z+ihrSwpERXodPD/f9V1pn8USGu0JfvBIeITAMcCPfYnjOkeLv/yXz1MsyXee6/LvABjsrWrpMjY5y+PSac+WW9dWS4m2+YTGaICfPRmop2z24hCcYaVf2/1n9vbLftk03fe+yZCzkfc6BGYmAJS/8le27c3b3jZNP/ET0/T0p0/Tx33cNPG2y1V9u2JbypxeaVGRXgfPDzog9qmH4hqVPTw/bnb+Lb/lOHt+lnp+AGYsef2G35AotZR2PfTdOw19YNx5zR+wWQv/6l+dbz4+Rj8FP1t5fhzbPfi0RrOZ5wP8zBCoGf2e90zTAx5wvu+gmbgSKfjxWkm2+jGC8kt/aQI/CNoP/MDqok4qIy5gvDQohS3DC14wTb/5N0/TIx+ZwA9vkvyDf7BlDaOsrSgQFanKequyj10OvIwOEMz01m/6SIvevHPp3O/z+37faYKfv/23p+kf/sO0bYC+HAMUzNFsaTyTUdvNEl4tuORFvGNeS7vFc+VpK/Bjm+3rFm08sIwBfg4hIBuIeRvofe9bX4qgZw/PD2AHZsPzw76fD//wabou5/0IerYUJpa43vGOaXrqU6fpF/2iabrnPdO4jk3P6/l7z5yOPWD1qnt+8GSy7EGfkNvesKdRAfx85EdO02/7bccBP0v7gtfnF//iafriL07Ukh96aXcK6aLex+NcC8cGP+75YbmTjwcfGqLnZwl/H1pvI/8APw3izEbJFN///bNJqwlkfkFQNeGKCLwWBMAPf/e+9/XZ9yP4UWGmnh72/6UvTV6yJz85lXOPe0zTXe4y9v0cRtX9cmvsfsfvmKaf/dn9XhqY6wF6gMPb3vSmuZT1ePUAyx+tvR95CdJgL8/PR3/0NP26X5cM4F4vZdgnDaR98nnpCp1e+9r0ijvgl7AHDVLJ+/2Per/l+fE1d1qypc6r9QzPz13vmmK32PcT2+wbmrW6j/R8gJ9DCH0o+IEh3IOj8jukPXlelQjLXgT2/fytv3XYMl0q6fL/C37s4xYt4uOQ97lPUvaU98t/+TTd7W7jja8taLtHGY793e+eSne2ukddpTLf+9605PKbftM0femXTtMXfdG5PJfSt55F+bdfrfTGaVS2NvzMztnz8zEfcy4PfER1z7AE/Nx+e9oADM2Z2BGW0C3luPz/jjv7F0/F8wPIZTLBcidhi6Uvx5byTmScBvhhMNYGvyfEPpo1syJRP69UKwRr21LKJ5OpHAA/zCrf//5S6qv1TPCj8t+i9YzBR33UxZLY9Dze+LpIk1P5JX/j+SG4TyH92vc/RyEgT3yr6Eu+ZJo4HoH2/Pk/v67eKP9LeNq0gJ8tlxM4SRiwE8HP3m982Rd06Zw+5S0vju/gcEMnd/LDuhG4nFyMO/r/ttumiWVGPFqlwLLXb/yNKUY6ldJt8UzdyhvChC3AT2zziYzTrQt+7rhjmp74xDqzpWFv/9fzw8D+0A+105ZiBT+gfu63VF7UJ5MJfjDkhOuwgRflTIhClZ6s+88bXSiY3/7bL+Zn38/ca6gXc4xfx6KA/K3n55j7fjgEDnlluevlL5+mxzxmmj7rs6bpJS+ZN9wl+kTwY79K6fJn8j8bppcsl+Xl5L/d7HxM8BO9A3OeLPTtp31aAj6/4BekPXpL6Jb397J+o/fZU4VuZptCDWiw7MV3vdi36Zjv1WYnEeg+vN9bLHstGdu9+pWVe+uCH9bnv+M7EtrOiNL9E/Cj4l2z70fwgxDD+Br07gbMJFSBCH5+/a9PGXBpXvXg7GQrhYfhZNaVe35QAAAjX/u96nTbo/0sFzJLfN7zpumYS0+OvTKo0t6jj3mZ8p+zceI5HgFQ9Ff/ap56/vdP//R5miXGLaZV3s9LWn932eDHsa31AM/bR3zEeSw6bi7PeerTuQP0MuFifyGhtu+HiRkn9QNG4pinXNv+V4bZS8Wyfw2QLak1tvlExunWBT9uIPs7f2fJEF5MC/hhQyB/a8APjM+GWtdWBUMXa1n/SybTLfyrf/U0MUu6TuAnCtV6Sp0vO+aeH71lp/7GFwDtC75g22/x9NKTNwh/8Aen6VnPSrNY9mHEt1N6y1maTv5GQROOCX40EBH8PPjBSRdwXMJSLy66gDeXCPYr/Wr/j/y/JfgB7NMe5IENz4RjLXtR1xwNaIsbckl/VcGPnh/BT23fD/LEeUuAnznaQI9DgnLEXratwE/0/Ozd/s6+D/BzCPhhzw+nJ3/6p6e3qHA9LwkwPgzmnoXo+l5STi2tTKbnB6CF94dZ09qAUme93bLXlIMg8Or9Ia/dO/M+pB2x7dI+Bz+4/T/shpic+r6f22+fpte/fpq+93tjr45z70ZYTtz+I38kteNrv3b/uh37X/NrkiE85rKX/OcBe/QWPuFTBZw/w2boJQH+YxJFiIAmPan/j2m3BD94fn7n70yTpUPBD3ruEz6hvaGXHvYaSJb30L1XHfzEpXYmpoCbkueHMea7Zcfy/Ah+APZnZ8nzsxTM5xy7F5/m9Sz4PcDPIeAHzw+b7u53v/SWx1LvgKhfg6sBXjCAzaQqQ8EPiVEYh3h+WOJ49KMPO1kZAeets2c/u9n8aiSCqPGJQlXN0BEh7Vl/j+GX/JJp+l2/6/Tf+OK1X4L70NKv4/znjUW8ix//8dOE14NNqO9853Lvx9LWyt+MEZMIlfbSctakx/PDWVAYrRj4Tt+v/bWJDvF56x4eZkLi7F9Q18pjHHl/xa9Iv6SHcYdcAT8AfwJ9ZOK01vPDvig+3PmBD6Tyav97wY/tEJRRHjpuy/7X2rjk+VOekl7Hr+VxqV2d87t/dxn8uEoB+KGfW+m8WruQI8YcucLzw7hI81qeuee9YztXzobxA/ywcW6px8YBwNDo+eHZ0qUvwQ+ABOPB7y2DSjSCHzw/h4Af977ceef6lpoXeq05IBJB8qyIrRQB4AdlqiGJvWPfzyl7fngz5ru/O7X4Mr5sjecH74uBjb/Qk9N39wzwN7yNYT72QYeAb7w+1B0DyxKcE4UXzi9jx/jSvXIv+FnC09DAvXzKe6mOJc/gJ16KEPywVM74rjGA6Na/+BdT7b4dW2sL/QY4Elp90XN96p6fb//29rfaHHcnv4Aflr1yL4tLyC57LeGPRM1l/wH2TCYILikfuu8ntrk1tqnWo/z/sKPUcsxKEDbcia2A25TNxTAdAGaNkmZzLEYY8HN2lk5CXQJ+YHDBDwoU9K/3odX2JXEymXt+yHvospcfYD2krYIfvGbf/M1LepTSujGcPQn2cXkpF3PQH5XQxZj0JgbG4NRmlraTU8YxTPDRZXl+Ivjhg7CEvZfgGHuB/WV4fuJ+n9Tj9P9zPidNqFrfaorplSXBzxKexqgIfrbiTwwdOlTwQ1uZGKwBP+961/nbQnO8iT51GbHVF9txyuCHMaQPApw43t477uodxp/xzPMIfo657LU1+GFseaWf0BrblOIo/68f+PnKr5ymBz6wTTzd43/gD6R0a5a+GEwC4Aejw9IXe1hy1J5S3fyfpQIYXZcnApAz/c25lj1RiWogyH2o52cr8MMMD7cwHgvL7O2dS168mRVnFL35S+la4AfPD6Caj5yeYmDJCzf1J39y2htw7Dbi+XHGTt0YTTwxxwQ/en565e9QGun5KZXjUlivF04j+LEfm0rr5WkAChM533rayqjo3XUPEq1aC35e+cpzHbkE/Ki7EkUu/tfzky97tfJcLGH/X7axpdON0wbg+SHkm57jstcx3vbCPgp+zs4+1KSD3/iCp+XTExmn6wd+mG2xlNJSgjITHyUFja4BP7pw8V4Q2PTMGm7vGTo54+/h+VEZRvDDbAnBbNEn9aj8X6Ciwi6naj+9887kLfujfzTR//nPb6fPYwU/CCZClfcFo/OMZ5wvjeX5S79b4GfvN77wIj7hCemNqVLbWs84IoGD9h7+8KRc5gxMq6y1cQD56PlhMsDSF+AnH5u1dZTyoUTlbZQ1tOgFHKXyljxjaaDm+VkKfnjNnc3S7C0j9IIf023t+YmvuacWrQM/6Ehe+3/Uo9LeyDne7DWQAovo+cG7fSJG9UMks43YhNpKBDoHXmECTdDzl296xvPDcjy25ljgR96mfUxs0NmHhOjVO5Fxun7gByJD3Na+FsEPxvP3/J514EdBlnHx/BB6l74EP7o8uSIoWx5UJpPly14Io+1Pre7/L7ij/WsNG8oe2mOwOB2X85YEND0tMS1lABzy02DZbPtn/2z/fiJogffCscjbgFECJO+17wdl98pXTtN3fVde8/zvt789Gfwv/MKkRNeO63xN9RS554eULH0xTktfAqjXcnMM/C1v4/khIEN7B/ievrlEk9enTugdC4wgSxr0hf01ym1ebv47Bz+9+fJy8t94fgAW0bOyxvMD8KFNj3/8PG+ik9jHJ01bfbkKy17aHzzG2puczuhQvT7E4RkByOaeH8AP/EHYG/wwYYZv9fxQJ/t+ttjzszVIp20HhOsHflQIrcGSGdlAxunKeH6WGnIVm4oOlzUz3la9caAEPzI/hpc22LaYdu09CgSjzamgBhlQ4fR5zxXBYBMnQoqiWlMGfWQWAXAhfNVXpbL+3J9Lv3v+R/BDesfcvHrletunF6sGfqAhH4V94xvXb463baUrn0chuNyQfvX9Z8kLw3T/+6dZ5LE8H7F1ueeHODw/hD2XvuDv6PmhPpe0ud8rQGMmKc6O83rUCb1jodcR/bHEuMn3yrSe3rw9S3+jwzx+w7xrwA+AnqUzzjGDJupMy4xX+9IDfvCqIJPQygAftACT6Y511fNDfer6vG7HPT7H+5N7frAJEfzs2U/Pr9oa/OCUwIvEG5J7tj/Scub+dMEPRvZBD1p+WJp7cVogBGYCEKA0AD8wao1BawRUkFV0uK2571V41EcbVKCCIA1xrd4lz1GGGgfz6SruBQbm4+rG8M/8zPR0TVupF+YX/AAa8Zq99a2xpvY9G55xAduXXJgEP26Mbpd2vtG8Bn7Iz/k17Pl529vmSlse75kwvRtkrYHxBZBxuCHGYM7AmG/LKzNbeD7u+aF89mNhQPHC9QSA30Mf2jaQeTmMu/x9TM+P4FtDnbcLBc9rwuqIPD7/HY3gEiMuYNga/MTJiW0F/AByGe+egIcYLzheH0AdvKlclvLbl559IehrZJ9yDdBtK/BnmYdco36tvfUXx926fN09Tsbx/DBRJwiOY3yK2ea/k4cc/OCtP6RO7DJtX8Lf2/SoWsrpgh9OjMXQfMu3VBtfjFCI5sAPyhLAAvghLN33oyC754cy2PfAEkBPAPyA5nFzEzS8S0FYyl3+H42DKVSUUTiNm7u638dZ/Rrwg2IlxM9IAAB7DQV5XXJw5ueYE0dwbHr7aD8cg1TKxf+PfGTaxMs5NlsHPT+Ay9r+gFKdyAdKhSUvAjMrPBIeA5Ce7vsfWmMQ454fa4RPbr+9r0/veMc0vfnN08S1N0T+VlmrvHvLWJPO2bETl1IZjEXPRAjaIfPynsatVGb+TL5Xprcw/rTHZelYH+AH49fTJ/K9+tVJv7KsTZgD5k5aAdFMCvMJTSol/WfZy4mPzzWqhxhoy9riOuf5oX+kcdJrnYAfQKYAm/HIPT/0cS8ZV34ibzNRpT7jbOuSK7zKviWWdrfg0yV1V9KeLvhxXZevJPcCCjqpEM2BH5E0B7MBQJaCH401Qm1YAn4wuJHxvdcQW+YhVwTMPRGWo6KMwmnc3HUL8INiJSBQBgCk4+az1hXFwAxxDvws8fygcDWgpbqZzfN2GsZ5y70/jANeD5YH2LskfUptyJ+5MdWvL8uL8maefo/fymbu+aEuwA9t6ZEtZ8e9niLKR4li9AiADY4+OMaeHw1TzfNje3qAAkCKcRf8aMQ/1KmZf4IfgcAWRgUDB4CO8kkzAD8E9XL6Vf+Pl/RudztfrkHGW3yp/GMg52iAzNhnW0AeQAGb3k8hMPGCJ+l3aULrM8fdNjsZ18NMX+EPl73kd8fefFtdBThRFzKOhJZNTSnq/xnf4fmp0+dCjEIG0b7t2y5ENX/IFK2BQkEKfgAHrLP2KOhYsYKswSGud7ZH2jjb4zdMjUBvDX4UFuogqDR6vSIpV/qPKxsjx7H30G1NW0ueHxSe3ppYX+1ez499y2eJltXbR/rxkR957oWr1cvhdfT7hS+spVj+HA8nwRnykqUvFCMGXzrIiz1GN9V6+H9mqYSS58fl0Z59P4KfnrSpxuQdsO8sgeDNVXmbZo9rj+eHsVBHtNog2NUTusTzI99TF8ue/m7VNxenfB4KfnLvzBw91Ns9BhK+F4zZH/lgjgbIG95IPsWC3PPCxB5BgMakVqAT6/GZk17j+Mg19uglL0lgzjN+tFe1CZ/5D73C28iSy4+Udyj4wZsNKB2en87RQami2Hlr5EUv6nsLihmLb/4oxKXqcCPKTMS76bmUtvZMxbZm2QtXJso+Z/yaoJTa8JrXzL8dFGfGlgFAw9PVCwzMxxXPD8AH4WDGshb8YCijsdTz0+uyFvzUFIGzyCWen3wGFvvtPcARkPKX/tK5W9q4tVeWvBgPPhlCWAJ+NDCMB4GxJcib6de+/1ueH1znHBPQA2gEP3izVPhzLcfQafRIy2z1WJ4faK4XtdTO3omQMiT/wdNzBtz6ImAAlG/h+VFvnp1ZS7oKNpyUXoy9+VcOUObAjzK71vND/wkt2gE08ZICyu91r7T0zkd49wj0H/6o6fR83G0DfIWH+Y470tuqyoKen5rOM/+hVyYPtBswbZAX5A2f914jnyKvrTHqLXODdB+2QRn7FIGQIXCc1wJY4WOac0EiIwgwOiAjD6xdUrYbJIkH/KA0lyhODAybGiOT9C57YbwBaTn46QUUgISnPz0ZTD6iWAu5cSCdShvhXBoEP+TrbWteBwLkLNc4FB5j1aO8SQdwY8lBRZAL0xrPj8bHNtWuX/EVaRbz8pfXUix7Dvjho48oGEDgkje+SgaG2o8JflqeH9rC+Vc9nzAB/HiicA9Youycv4/p+QEIs1RaC2vBD8ZBPVYr2+emQw7I1yM/5q1dc0+U6daAH73MlAH4cX+YZcZrL/hB9wn6Y35BcK4LYhoB9jd8Qzp/6FM/dZr4vNEeAR1F/1vgB10sqIltYIIFvfD+YPsIplPnOfYpdrv/gJ+45EXJ2FMmMq3VlFYLbGsPsG2Vs3HcaYMfllg4rZmzeDi3Zc4zoACxaQwvkIwTiSbAyT0/pFkiCAgyDBpDr8KruTwxwMbFcvN7ZscAKIAAB4jVljlQBM6IYhkg+6WeH+iJYsTzQzgE/GDoY9B75vjFuPweTwNuVMCPCk/hMq3gp8fzg9sbpdgLfng77XM/d5pe+tLDXeb0gw+8MhtFEbLvZ4nnB/ATDYyenxo/SJ8try3PD/WgtAFjrQ2ayDVj8OAHpwlPD/hh3HClywPUdUzPT2u/D22Z83SQhoAHgLSOHcatZcBTrvRfvicPcr4F+GFyEmXL+rYAP4yzbbZcrz4XyNVowHPG3faYXz6o5SOdOo/Dbf/gH5wmwA98N2dXrGPJNXp+WErK9yKh5+FX9hLmAZDAoaec+/X+9yfdICA5BviJm51tG/bS5V6f9V7V6/RrKz7trbuR7rTBDwyOUfhjfyxtMuVAt1ZQgDyRt4RUBUQR/ACuCEsOZEOh5+AHzw/PSx6nVEP6r8sz9/zwG2MyN3PnezkEDgcEkLAXpSTAKEOVQsqR/mMwVQTxeesepUi/IvhhlpALdasM2kh7z84upkIoCApJ+lX+D+gj9G54LtEllZD+A4YxpL3gh1yf93lJEaxVBtbPxmn6jBImcJjiEs9PPgOWH+f4J9W2zf85z49LQy1PI/0AHDEGLEn0fBFeQx/BPZ4fylrCk1CB/R+A0N7AuJcMRMzfOxFCF0TeQ17VY7G80r3ptgY/uXxStxvaoe9cwKsND0ZgLm86McnLUPbnvAPyUSybstRz8kVePr/VefIk+ha+s8yYBz3TAuwxbemeumijOt7lK9Pm4+5zryx9MTni46iAUVcYBD8tkGcZa64lzw/lYIt7xr5UZ+RTxmmvtpfqbjw7ffBD4/FuMIP8uq9rAwsFaCn4QVHx2vuSGTPCrUBLYMAPxnbO+OjdUTDMrxI03uf5FfCDon/sY6fpz/yZaeKgu1e8Ik9187KAKRD+ksAbX7p6srOHn9lWXcmlPPkzhIcxypWrnp+aYozlCH5QCDVFYDkYQQUvlhHvBaL2J8bV7gXOehFr6eae+4q7b2sBfgCHeNl6AmMYjYD8uISPe+pppQGsM0Gx7jythkbDk8fzWx5i0zl7/OB/+a2UnmcqUI0ez5wdLwGl8AceJ85Kmpu0UAcBHuzx/MCHc2XmRhCetm+ptvp/2o5R5A8Q2JuvXuJ04QDSmI46kNMeA2iayJvKeE03qrvnwE+pbNopH7RoIA/Kk/AboaRvOdT0T/7JFL/0P3qH/lCPOj6vg9/GlcpnkomHOb7pRTp13pxeK5U59wzbhewoRzH9IeCnd2xjfUe4vxrgB9fgc5+b9g5wfkQtyBB8iJKAtyIPJc+PynuJ0SiBH13Xc+XA+CirqBxop8KQC0rsAwwK+PmMz0hG56u/Op3uy3eyXIIwPYpApeAzrgiliiA+b937mnv0/JC+1da8PMcjBz9rPD/RNe+4Wx9GhzElzC19HQJ+5KVU0/L/gB88CNKDZS+MpYdJtkqEDwA/0f0vAKkZmFZ5a+Pw/Dh5KJWhoWnxm7NijJFnSM0tfWnkIn/f7W6pBR4BUGpP/ozvyjGOtKG1fy7m6/X8MEYq/pg/3gN2I/CmPzk/x/TxnnQawy2WE+C9kmfWOuE1PX0+K10FKEt4k74gs+yjhAaOb16+k7ZYNmnkg1o+0sCD0Mm0NX1LHwHkfKh6TbCN0fMT9SR8kYPeUj1PfWp66n4ffjnevTxSKrf2DL2J52xr8GNbafsWfFpr/8LnVwP80Cm8HPe5zzRh7GsKxecwHbPz2rIXYCoXnl43tQSGUZzN+Mw3mHIQYrxXBAHB00D7XCWoQfZ5vAJCUNaAHwIeqz/8hxPTakRSTFIgMFseoA8CihAa9CbV9pxQLyDFGW9PWy3bq+An3/AsHaHpXIieH8aRTacKl3kpR8XWMrqkl9b2xzJaVzfLb+H5cb8P9flhy56lL3idWWEE0Lwdyd8xwQ+87pJIiWY94Cd6fgCAyO7ceT8aOQ0ZdaMfkCmPDyi1Jz7Dxf+N35j2FcJH3/3dMbZ8z1II9FUOyqnO9/C0JkIADYBC5D0MBJ4/ljzmAnxv/7m2lnzmyiIeUIfXIpdP86IzBTY+K12j8Td+DpjDz+gXxo++OL7m91oqmzjpUMtHGnSB/MhvdYT8xzOCdoPl0J5xSLnO/9tG6ip5l5iQMVbWf57z4h37XVkSd1mc2D3BD/JAKC3pOvbRZqTU8/+1y3NevfmSNk1xmuAHAYSJI0DByL/4xemNrK//+jIRNIIwCLNAmTimBjigXHPgAfhZYjRIq0BbvuCnpfBIK/gxn1eMKv3MhdF4ru73EfzwzHpz0IWAqRRIZ0AoEerYX46ih/mf+UxTXbz6ppd0U6gFDxdTl3+h7AlnZx+6/Py/JZ4fPTkqsZKiBPzoBTD9z1eW3dB+jLcALIsu/kQ5QIdDPD+0C5q65EVFgp8aAI2N0QhF8EP8UhAfy1xzzyxZ/ivl97yQFgiF3+F7ZpzQlaWv7/u+9pKRhj7yN33nZQeXE0vtic9Y1kDX8F05PE6AnznlLvguGYhYtrohyliMZ58ZEzp43xO6ibc/LSNuOeg7jeEWM2onJ7l8Wp8G0N+1q8Y/8uYcPQQ/lFmSaeuq8b2TvBbdcvADgGU5L3plqEe7AY9xWOPSIK/Tf8YH/RLr8HM2LK21AjLxnvdM09d8zXkq+UNbdx5z+J3gp+b5wWYIZJbUZluhRWtsl5S5Qdob1D3BoGs1gh+ayQfyUBh88qK0NODAoFDmwE/ebYRzDrTEPCXwg/Il5CAkPT3/j8fAfSPnT5MXgz63DDbgB6HlrSODxifWi1cAZlVYTMtV4KCQ8sylgje8IR0CxrMY2IPhfh+e457GACwBPyhX6Gx7LV/g0ev5gUa+ZoxAKVyUhzGj73e/eyo99tH64pX2x5l3jKvdozAx6od4fvROxFkd/UJh9oAfDUwuI9C3ZnBr/Tnk+Zznx/a1eBrwA/B3TAEipG+dpK2Ry/kbHQFt50AMZbNPjm+2sZTLnh/A6NxLD4KfQz0/LOOzrMJbg/Iq4yCYsX+tsSGN6TH+PXla5V0m+IlArmUga3wvH7RokIMfwAVLSvlkUzpAK962Whpso3oWD08EPyzpMl6f/MlLSz7X51HnLS+lnMO9cjXwQy5tc7mE8tNol+k3dgkdfcnhxuifYBDdqzhjE/H6oCR5AywPMgQKgdkLTJ0TWc9PnndLz08EIXk9KOXWngGMas1QkBfww4dAmSEbBBOxXpWAMyLTcnVGFoEBSy33vW9yxX7lV16cdTNLBWy638eyEOql4IdxiW2nrCWen3yzKWNtXylLALXE87MU/FAP4PUQzw8udYLH2adf/W98qWAdS/MvBfHmW3ud8/wgq8x8I6/ldSGnehKJc99Pa+nLMdfoWSaeNNo0t3SIhxNafe3XppwPe1jiy7mlLw3EnOfHiVBpQvXud0/Tc54zTY95TJrM2Xau9kddFuPy+wgYkHO9YXm63t8a/T2XvZTPvE0lz08JwML3yDzLuzFIN/kixnmfgx+ew3cRmPAMzw+8QT1LT/4nv7yubObgB68mujbvA3nnAoCNse7hj7my8vg5zw/ptc153tZv2wo9HadDebVVX2fc1QM/IHVma69//UWjR4cjwsT4sYEvN8418LPEaOBdYF1ej4XEFoSUFJ5pmJWzb6CErknDbEHhMY9XlBOCGpe8iLPeCH5kLpnNMrg6I9GAomTw/HDYHgeAcd7Rq151noM6AZE5+AE05PQ9z3XzHe0vKVbpWFOMsaQc/NA/hYt0lgGf4KGp0dIy13h+yIun4hDPD540AFQ+Pix99Xh+VEIqWPuzFMSbb+11zvNDuS2eJj4HP/AV3hCXeEmTB41cTj88PwQ9a+nXxf8Yt7e+NR2gKv2QR7xwc+Cn1/ODPiHkXjiA2Rd/cZqcsdyWBwwEwf6lX+X/EfxAB2Xe1Mg1SyxMXnoC8hmPkMjzMBmF70qgJKYlDaDXSQ1xynhOD/Pl4AfdXXrrEZ3lmJmXq5O8nAYxTQn85MCE9PAH/Mcp0Id4fmxnrAPwjNdRgB/b13sPj/TwR295pgP8MG4lp4PP1Dvm6bkytkx4GSPHaY/297QlpDlt8FPbSOmsPhp7OoUyABmDqE2DQBuIR/hKS04YjRZosQyuGlgVnHHO9vJ2Gc91bubY8vxoDHLwU6pX5sqNA20Q/AgMaBN04YRdjnv/lE+Zpj/xJ85BBcsBhBr4mVOG5CUNY4HnJw9uXBa85vHxdw5+UAQl8MPY0M+aF40yGUeMEcppaTjU84MnLS4jWj8bfgEDjp/P86vAVQVrPP2uGRjTbHmF1wXftXKXgh/KgcdZFsIIloL0UZmahu8iQYMW+HE5zW+PmZelLzxypSV10yi/a5e9WGoDcHNifa4/qEN5jTxt3fmVNIIl6JAbfs4u4ltRz352nrP8uyafpkYfMwmaa5sAJXp4kXH0co03KVOwJA0cY+vnivHNeZ7nfCKG8kt5iKfd8Kq6j2cEZB95izoM8IP9wCvLRLAXPKYS04SLvtAeAnXQbtp2++0fenQw+Jkbg1TLsv+AH/gaG5oHbfEa8ENbGVPKdWxzXs3rO8LvQi+PUOtcFRJYtJmn19jnYMXZA0In+IGRDc7Ua+CnJJjMPngjJB54ZbpceeFpYHD3BD8Ivq/y2y+EDOUX61UJyGym5aoCEPy4RAD4gXa+/ovw87qlnxbJjTUzdBgbADEXaBtgowR+qJOZoaCyVRZgJhqefBZkGZQ3Z3TttxuNW/XmcXh+MIRLFaPl4PmJez18blsEnD7Pr4IflZLxS0C8edZekQ34LG9DXl5rHJAlxiwue5Ef8IMeEKjkZdb4GwULeG9tev6Jn0ilAZRi+PzPT7/wKtcC4BueE3TU0qkbch2FF5W42n4Py7V/tfJ5juyZXvATjbjLGHhz3/jGVkkp7s47y/JpTvWx+tnn+VXwkz+n3+rOPA7dbV/UWSUaULbtyMsgXykP6Wyzus+88B187CTJSRr2gw3JlKeeMM/clTbGepxcMfYseaGb8uXuuTJjPHTaA/zwQoptjfVxL82lYx7f+q1dJk1rbFtl7BB3vcBPVAYwNbOBCH7co1ECPwgmQhBBDgRn9slu+3e845z8CrAK7jwmzYJzhRfjVUitZS+EpzTjdb9PCZkz+y6Bn3xmTFtoN+5N6iG42RmvAwH3/ytfmRQhJ4zyx0wmnjdBOvfK9Cx9oVgJJfDDc8qf8/ywUY424x0zIExREUTw0/Kikb9mBC27dYWHGCOXQVpp8zh4jGMJcjBJOsHP3NIXdECJMqOOoWVgYrot7uW3Qzw/zLoJJfDDc72d3MegkVOZxjj2/fzoj9b56YMfTMuWebsxeL/397aXvgC8c/t9aAv8jJyqK2xf7rn0uVf7E3nauPwa9Z1yHvWXkxJkju9FtQA1Rh85rskndfcaQHiz5J1p8WavgayVTfugnXzB7xic6EVQQrzGHmBCYHzwSkAH38ZauvRFXbH/1gGvs9kZYI/+XRv2Aj/wh/onb1vv2Of5+F3i09o4lfLv9Ox0wQ+KowQuIMSc54c0MBfGuQR+mLXnwTJzZSXSVUmTzzQYnzxQjkYhj+O3bvOaAsVgY1RVXJZB/fQlX/IyPgc/uhVVpqbjiqcF4VQhAH7wHglmSPO4x03T296W+sK+AYQ2B12m3wL8QEuBC/WXgu3NPT/RUFgG5fWAH/gkX84r1Z0/k4f0Jubxrd/yZMvzMzfbhC+jgrU+DUz0ABi39VUe7fX8lNqkXOXgB+MDf60BP+z7QYZqhxYCenklvhTw/sDv+ZlZpp0DL6ZDxhiLfCI0B570fvQYh5JRUe5ph3qIfUzwOd+zqpVLuwBO0L0Weg1gDaDIm6Xy6QuAkaDOKrW1xvfmK+UhTt2Rgx/5Tj5UNgHCvFELqFwKfuh/rEfwgzeSSc0h+33oyx7gh32s6PGaLoQOvOGrPaQdvaEEbCOf9pazcbrTBT8o1NzY2nmBSq5YojIgLQwsM/N7zvNDmrxMFbzCQRoNbAmc5SCE9DGgZOhXyXCRTq+Gbljzagz9DpnPveb1qgRUJKbzinCqECgbxF+iN0t5zKQ5QC4Pgh9nTXl8/K3np7ThmXQ9nh+9LBH85LM9xwbwE/sY2+I9RhBhp49Lg95DeWpJfveUlMAP7cYr2OP50RjFupENluIc/xg3d08+XibgbaSeoHHNPSh5Xnga5RpBqmmUK42Qz7kC9Dl/qgSa6B8Aw30VMR/LXoTSvh/KYtzzJa+UY5oe/ehUbmkzMmmQ38h/5itdS8Z+DjwpryVaxTroBzQwvddoVNRdH//x08TJ+HjD8ADlb8BSrvK5BfjBQJZ4E3oon7Ev3GMgBX72JedhAG2tbMrAQOd5eE5Q10VQwnOBiTpMe4HtADDyEsjSN76oK+p3Pebf+Z3UeDj4gT5z/JFq6v9Pv+GpGvihJMZ0DfiJdrk2tv0t3SzlaYIfhLYkPHa7Bn4iwiQtgiwz8xtDhYCYn2cGn+Xgx8FWOEiv56cGfvIyrIOrm8pYkisFwY/Caho9DBpdn3tdCn4QTmYoBDw/7PdZGmgrxqfH8/PX/3oy6rVx7fH8lMBPPguCBwh6fuClkrInDUYwnpfEs96g5+cQ8FNa9qJ+gGgP+IkK1nbLk/Koz3uuGEjOnWnteYnlaFx7PD/kywE9zwQ/Jb4G/JCHccoDRh5FCgDKAzwGP5f2/eDRwQDXPD+MCRufX/aysqGGB2te27wd6JRcF8yBHwFAzYhbB/3HWJkevUaI4AdwShvQNQ96UDof7XWvS4cqssQfw1bghzbVPD/IZIkvWc4GHM95fqAlAKjE9/QFfqjRTX2agx90GEvH8qF0cJLG0hebnqm3N+SeHzwm1INM0/baBLa3/Fzn9eZrpVPf7AF+ol2WT2vj1GrjxnGnCX5a6B4C1IBKRJikA70zU1MhYKhQsiWFaZm5cKrgFQ7KNY2GhmcGynFG7LN4pT0t5alw5oZC8KPRjWVyn4Mf+yyz5en1igAM8ESsAT94ipg5zYEfli44s+UZzyjTnrb1eH6kSZx5owiiIDmzpDxpKYCNNKDfrHHXPAAxbenePVuOSylN7RmbnWm3QDdPh0cogvY8nt/0qWQE5OPc6JbKiM9Y8vDMG3k+xpfu5fM5z4/joAGKZSFXyEO+d4k0LvGWlr4Yc2eRsTzva4cdst+H0Bp3+JS+/YW/kNL6H88YPBj5z7jSFf0QxwEjDw1a8m+f5mb28nwL/DCOcWye/vRpetGLErgF4MX9QbnRL/XHiYvyxFI4nxuKm/5pF0CmxJvQQ90Zy7evc+DHektlUx60U+/F8rmX9/K86DA8M05ukTvk0rYAftApgoO83Pw3eoUxz+vRw3TbbWUPe15O6/ce4Mf9YHuAn2iX5e/aOLX6vXHcjZE/wQCTK2il5sGYAJioWEgXESa/AT+EP/2n05fPmUGWZpikEcjkZSpwveAnByGUHcMc+NEgaujNi5EFyNhOn3vN61U5ymym8yr4QdhRym52Nr73ynJFpE2ej5kgRhXQ9uVfnsee/17i+ZFG5KZ/KBz+CCgqlrHwSJkupyXpEHb63TKCpKsF6qD8tZ4fPAwlEE59GFeUNbSrBWaXJRmRP0pGplYWz/H4AGLhMXm+lZ44QVKv50cDFMuFd0pLXqSBRvDNGvDDUi3j7hKjdQp+ap4f0rFsxkGiL3jBOV/xHLrgAWiBF9IZAKJxHBgzxrQFnpysCAgsK78an4Mf5Z70ALh8bPgA8stfPk14Yh/60HPvFuAHnWB5eX38pm14MRjH5z1vmh7wgGn6pm+6+DYUfSTkxp9nNfCjt9a61VmxL+RvlU08+fI8PCfQZnRMaZkUYBLBj3aDfL6V1bv0pewI+CmDIPg5dL8PZUGnWj+JXxPQh9iQkk6xPOKUeZ/1XKNdro1tTzkbp7ma4Ae0jiDlQCUiTAjF7A+ww6uej3rUNH3gA2kprEREZ8xRWZHOwUZJa4xIg+FSWGN5MBDtMm2M455lL70GeRy/FZrcUAB+MAQ1gyn4sV6FQ2bL60I5oUz8ds0azw9lUo4Cn9fBbzw+vDHHuUEq9lI6AK1KsBTPM5YMcOFHhe4YaAwAPyg5Qo2WxLmUshb8UAa8tdbzU9rvQ5kEQFVtjwzxzLThy5qBIU0uGzyrBdLyuQU+pMgr2K3xjGVs5fmpgR94vbbvB/6u8TZtrB12yLhDN4Fx7E+85wRoDOJrX3v+lIkLoQVeUor0H50Sx6G0bBvTc0+fW0bc9PK7/K9sxRk144NeyMOTn5ze4MRzwzlAvOIM+Dk7y1Pe/BsDyH6oZz3r/HX9CDBbAGUO/OhtcVzVYbbCsmsGukU39Kn6wPK8xgkck8EIfgDJAKbeTc/q7Vw2twY/jr99OPQK+GG5vWZfKB+69+qG2J5ol0t8GtMe8f50wU80cCWC5IqFNBFh8puZI2v8gBU2+/21v5ZmKsTlwRlzVFakcbBRKgIhDWyJUWgXXoiohKwLYDLn+WFmhRLIvRUY2ZrXivJRcngyVBheZTbb4BVFQPo77khP1np+GCfpYtle6S9eHwSfL8+3Qo/nB+WHAMaN2Sp/++vYUJcGLqclcYKftXt+KAMwutTzA00wFi3wo5IutZt64VHKyRUscTUQT1wtMHuHz5kkLFFwjDv8yl8r2B8NQ0zb8vyQDvAD7+uWNy/jXeNt0nzcxyU5AnjHgOcHwFuS3Zjucz837QuCNtCaIHjp9fzkEzTB01x+eHrOuBkv/wsYot5hfGp69AlPmKa3vCV5+wC8eDZ6wA8TN8D3S15yvjcsLtG2AAr0ANTn+43syxz4UReX+J7xWQt+0E/wIfoQ72ekAx5eNj3XwM+b33wRINt/eZ52Ef7QH5qmL/uyddsLUgnn/xlz6BiXG89j190hX60lL0pdohtiK6Jdlk/V1zHdke9PD/wwoMxYIHQrlMBPRJgxL4YVZfiQh9S9LhqNHPygQDS2CAgBMCVYSk/O/zvTclZ8HpPywbRzyg+jnRs+jCzGthbyelGCtLu0l4IyFE6+Gsz9HL1r9bYEgk8I8MYNJ8yW3M2xTBQfexBQQLWAYskVn8KkAo3gxz6WjC7gB6Wnwq3V2Xq+xvOD549+AsxrodVu8qhgc1oQJ1/mHkziSgG+YnmHt5w446YFZvP8Nc9Cng7ZwmOXjwNjhnzVPD+UU9v3g/J07PP6+E19eLLe9KbzzaqAGMBPa8nLspAd9v4waXrlK5PBFrws8fzEcRA8zeVvGXHbJ78LfgSCEfzMjQ/0QT7Rj+ibaPStJ79CCzYAP+UpSY/R1gh+WgBF3kRGY9Dja18c19xAtvie8lp0g/eUq1g39+gBJqysDHCNnh/iWfoCHJY2PeMBe9rTzgGyPJ7LJsuo3/qt86Cb+uaCdJIH5tLPxQNG8fz1gB/GJO4VmysbmpHHNmMHmHjkYztXzg7xpwd+BA1zxjgHP4AmBmWtMQPho0CisoLgCLNMsQT85CCKsuYOOCQNAfCjEKUnafa7BPzAXCgDGK0UVATve99hsxGMJYAuKl3rY68VioRZ5lxwqaol0CXwo1ApTCXwkwNJ2gL4OWTJizIYD8Z0yQyMzc6EludHj1XOAynnOfgpyUgNxJs3v77hDWns3OzcArN53pZnIaYFSGAM8v54lk4L/OCZAyzk+37k71hPfs+ZPXiN+MwDAT5AnnvHHUCI7D/xiQkU+pmIuclLqi154ZAN/giCn7n88HRLDijLePlf8KMckIbxcVLE71KAvugATnJ/7GNLKS4+400lT5hHt5ydXdxX1QIoyniuYwU/6u5SX2gFZVNnrU/ki/2PLYf31HnxOffyH8cqEHLwwx4w2uxhsClVWmn48R9P3ny3D9j/Wl3mPeTqmMsDh5RFXpY9ASnauVp56hv4qjc4Ho4t48c4lexFb5kbpbuhlU4sOHOQ0LXm5eBHRpAxavlaz5mZ5KCFgeacDEIEPwpyijn/r/ERxJ3HJCHh95zyQ3CiwaZvGPU14CfWH++dmVD22iUvynOcHDfrYJaNqxh3L8ByLigc+aww5iuBH2eJjn8EP9TLeORGF0FHWfUawdiGeI/nh7LiWMX40r37I1rgR8VZK1cF6xjGeuTL3MDENPEecAA48WRXxpNJRI9ymvMsxHpKgF550vjE9N6jLJk1a5h83gN+8PRyVgsAj+BSZ4/nh/R4TeFhXv1/0pPS8h4e5NpSEnli0NPhWOA5oj01423elgfDNPK7+k7A4LjhwSBNT1vhoxe/+FzPWUfPFT6Onp8Wb+b0sHz7og6AH1lK1XCajrKhHV69UpBuLlPGNC3wg+eH4BJpDn5q+8eiN+j22z9UxM/rmpJsphSH/3fMpRslooeWTMJiK1xSngM/8lKu62NZ+b3A1jYT7zjlaY/8+/TAj6hSo1ojSA5+JLICVMvXek6ZKirSoUAwpihLBFJlzTMFOS9PxXYI+MmXvTBQhKXgR4WYcl/8r4Hl6drNzuStCQQ0YglLLwZpW0Gj7TiW0qLAcqWiUKkIIvihjJyWPGMjK4r1UPDjeCzZ94PnB4N+dkZLysGxyUGbqVU+OS2Ix7hCkxzEmze/4rnCs6JBUe6sI08ffyOrjn98XrrPAT1plKcW+CEdkw/2YuhB4VkP+KFtt92WwItLXuTtBT+kRc4f/vAEDpjlswyGLugJToQcCzw/0JrxbwXGT36upTNe8K+sC37UP+qjWjmHPgcoAH4EHAAUdHBpuV2dGXUs9SvzyjLPSgYSnizxPOkJ0iLyCc8B89ShXPEsBvkP8MPYeHiraZgcQsf80Ew9isiM4If+0w7HwzK2vNpPeYCyWXpjn9qa0At+lugG22Ebo12GNjmwNf0Rr51SfMQWqXQldK3qHPyUiFzLW3uOcKqoSKMCwYBi6HwdEuFVkPOyVDaxHNOsXfYS/MxteI5tRgkqJNYfr1ERHAJ+HCdBq3W0ZoCmiVeFA/BSCihXysyVnwpTYeoBP3oADgU/jofjU2p3/gzPDzPNknEwLbwNiKmBH2kr7c3nFd7MDYxx+ZW2x7cPBTP5eOb5+L3E8wO/5f0R/HgCbqkOnkln5Ydnc/xNGgJLX5xgzpiz3weQPVdfynn4f3WEugDwM+f1pVbkVn6utcJ4+V9Zz8GP41kr59DngB94Tb1dklHrkB45bwp+1AGkL9GAsms8bx6u0oZ7gvISdV6KSf/R7+xFIR28lu9PBOyWPpYL+KH/eBgBP+io0gQt1rXFvWOuzaNMPuXywz+8rnTOMEIu5iaq0t6x7qnNsbXN5GFs5dOeMnZKc/XBjzOOEpGXEi0HVBoAFAizA5V1C/w42xM4xTbg9maGnRvwmIZ7hBTmkLk1rnoa8vT8FnRZLwpAhVhKjyLCwBIOWfZSueYCMadwUs3n/1V8juN5TLqjP8zocgVmH6VVDn5KRtf1+UPBj+OxxPMD+Gltdqa3zD5pd2vZC4XsmOe0WgJ+ABT2g3KWKLilnp8c/LDnB1mYmyULfiKd5/hbmjzsYemOpS/3ec15Xsx76FVdoLFH/uc2O1MnhkJ+rrXBeI2Kb9xpVNRdNR6plbv0Ocaf4NIXekAeSjHn/2vgx76oA8hRAz8t3akuyMGPfJfrDlsGP+j9sT/GeWXp68d+7PxcJJ4DfnhT7rbb0n4u+Au9V6vHsg69Ouaxn3hG0RetF0Zq9fqm15xcOK65rq+Vy/PesW2VsVPc1QY/DLTCXiLyUqKhrFRU5HWQGXRm6xH8uEyT16GyEYTEeJQf6HrObS4C1/ip9KORiuVyr6K13jnjAKOjSGjLnDHO64q/FQiVrXEqnJayMi1X6Vnz/Aim8vJUBIw/QDgHP9BSOlofSopypLPPl171mAhOe/Kz7NXa72MZJdBmHHwJ6KzxEbygt8E8tSvgx36QxvGU92v5oDW8Jr/X0vmc/jCG7E0wIE8aHZ+VroeAH7w8zNrZt+Nr7qU69nimTDoWLnvN1VUy/Hke9Z3AEV7AY6FBVA84Ocnzb/VbXhb8MMa5jFqX4CeXcSY8tt+0JRrAk7WyybcW/JBXPjw749fNgUMz4Xk/losuZ6Ow4Icc3/d9l+P5YVKIDqJ9bqq/uQf1J4Af9/zVU/XrhliGk1n1NHFj2StSKNyrdOeENlcsJSKHYrtuEU4VFRk06LQF4WDZSwOrIOcFM7BstI3lmCY3ND7PrxplAQSMzTKJhilPz28UH3Wr9ACFKsZSep5hkBD23M1bS1967jg5bqapgRXj86uzPscxj6+Vp1Ch9OkzxlUgRRmCCMbNoAfA32uvjAnlC07nysFgoTQ1GK30JdBm+paBIQ28GUG8+fIrtKI9a8APBoz8jn9edv4bOpFe/iQeMNJDixz8MOnh9dw5/rYN7NnhPCvkaMl+H/Ovvaoj0AUapp5lL3hacFOrm3iMfQTA0MPJoLqrF5zW6pl7rqfEjfwt3lQuc95E5pH/6HkogZ9W2bTzEPDjpmf7k/cbkENw348giOfkYZ8QS1+0EV7fM6jz5BHfmqTOuDTc0wZkCeA6t9mZshg/Vi5yXd+qxzaq30nLOMmnrbw7x52m5wciuyRTI0AOfkpEruWtPafMKJgOMqAD8EMdGDoUmYotLwsBppyo5E2DoelRfgqPHguUNgYqKgfLjFcUnfXOeX7Ix4yYI+oPCdABgVDZWhZKgNCaqaUU6b+KMZ8VmqZWngqPsTGvZZEXEIGhNI5nW4EfysIwMz49QQPR42mDBwS/ednQogWE4b8S+C6Vg/KLHkXLzcczzyuf9RpXedo+UT4zzvvcJy/55t/wEBMKQaaK07G/OcfFJ+z7MRwT/Kij0CkYeNrds+xFv/Tg2O78Cr9rBI2L4Mfx6QWnlrH0iqwxPj2eH9qLDos6lvroSzSOPMtpwMsn5JM/SZMH+SGnnTwnD+b5+K3npwZ+oCPHAgh+WPJC73E2Fn267bYEftDZvTqv1I6eZ447dCOw5GVYCn7Iiw7oAT/0E/rP6QbbwtXJrG3mWT62PLuEcJrgp8XgEknFopIvEdm0vVceDyzEAAAhG0lEQVQMuTNa8jjIML7CwWyVUAM/xEUQwm8DjNkDfvT8RPATDZTl5ddYbw/4ecUr0nd+8nKW/EYgqFegaF4MNHG9ylfl5zhajtca+MH7ghKivwKcCH5UeCpArvwdut/HdjEuGmWf1a6Cnx5vxxz4aSlYeDM3MKU2qSij5wfa9czuomyUys6f5ePgt5I+6ZPylDf/xrtBG6Wzxk1jd3OOi0/Y0O94e72YYp9f6gh0lMsRPeAHQ0Ef8ZQZeBPJvWo8K4Ef6CEwdHx6wan1rLnCz4AfXrWm3hpvMo7wV86byHw0jrQhN5D2p1Y2efQEyh88Iyj7Lbsy5/mhHPb9/MAPpMkv4IdjD2z3Z35mqgfQKa+TZ49gnYIfX8ShLmW6t97eN70sDxrmut640tU2qt9JwzjlY1TKu/Oz0wM/MHmLSSVIDn5KRDZt75UyXdYij4NcAj/RwOblo3AEZcZRbr7EYFx+FfwotHgWdP3naePvHPyoDGKaPe4ZL5WT5dN26IYh7QkKtAAmz1MDPwAs8jL+5o1jIy0Fknh9CFsZwSWen54DDlPrkscK/iud3cHzlhE4BPwIWOV925Nf9Sz0GlcNgjztskEP+KFu6LwW/JD/MY9JAOrsjF/HCQBzNiJH8NMz+RHUxZN0aT/fGzPA78qMz3LPD/UfQwfgLQHY00/0XEt/l3gT8BONI/3JwY980+J76SYAlC7qotZqwmd/dvLe4MmpBcAPZSHHbnY27W23edeWzfNU6+8cd21e9Pz0eqGtfWvww/4j9TB1OJm1zTxjnPIx4vmRw+mBH5RuS3gkUA5+SkQ2be/VMp2ZYNAxpAjNEs8P5WgcrBvFwPJLj/JDQeDm12DD0Es9PzCXysA27HUF5OTGErDSUlR5WwBJtNdxzOMFPyXeIF8N/ORGlyPsCVuBH8aF2VYJpKSazv9jIOCNUh/OU6U72o0hyelKLLRolUEdKKDoOcjL57eKMnp+eE7ZpXqJMwh2ez17OQhlDw7Lf735I8h01riEv7/ma9IyWy8Yt5+HXhkL9AkTH0Kv54e0GjeWJdgcLu8aFw0Kz+KMGv0DMAXM7h0AP2z+VV+15L4EfujnHPjRu6EeLvVJfpA/TANgUQ/4LL/iHWTDMuNVCx52+OpXp8me+4BIf3aW/rifq4s0hwRALTZJ/gD8IF+M9xrPD3TLdUCtfXO64au+apo+9VPPc9vGyKuRT89THv3u+oAfiIygHzLTQTAJem0wACpnjBzl6zkwbcpx8X/0wBgjU/aAH+pBgFAmzP5ox1LwgwJQGdiGva4IhMbQOpaCH/IBNOOswbK4Uh7xCH4eECz6K3CqeX5uv32aMIIc0a+bOy9r6W+MMsDHmWkrP+CHJQLGdy4IFvJyAdD0c87AAJykR60ueTLnrdJ45mUI7g/x/PR6faj7UM8PSy5RAef92es3eiJ6fnrAj3KrEcfjBZAFAAhK0Xd5f9B9zqiRR3XXXn2zXHiaPTk/8iPpSYs3SzIOn+Z9gQb2n1LvvDOVfXaWrqX/Od1M0wN+TNu6usz1spelVBH88OS229LzVv9TisP/01eBBeCHDdcAGGW6twbO+GG/T49Oosw58AOA5EgAl3kZW/gyTjryse1t68bpbmiEEwsINwSeCyJ0gQpEhqgoubXBMqPnx7ZgdAEunPJKmAM/tiulPp/59SJsjB/gR2bODZTlxqugC2OM+1FlENPscY+SVSlbPmBl6QyI2V/NYLcUmIpA4BTBj23gVecHPzjNzt7xjsP4xD5ydVxckolx8R7Qwgche14pJZ/tdjZtWdK5pWDl45wHLcMrvIXRyWfdpfE0j1fBbq+BZYxYAmIcUYwo7J7NztYH+KFOjLsG/lj8bRvWXBkL9InGoAf8CASicbNuD7IrTW4i+NHzY749r3h+CHjzCC3eRG+qX1PqJPM5DzK2OfjBG668mTde5YeYj/iW7oj55+4x4AAevHjUlW+ev//9Uwnw6t4BHrGfgh9ooze3t36WvXo2O1teSzfAr+5Lc1m7BNKhHTLMBO0SwwFIYYdW6+YXcLSqwMCBVlXwEDkXoFb+UpyAxjLz2RMuV42PaUvloPCcGRuv27vH80MejB9CKzO3hN46BD8ah0O8YJbZc2W8NIamp+0tJWi6eC3NCo1veZJQBIx/CfxQJsCVr3szQ2Vm0jsG1t26qugcp1ra17wmAdmej7xShuAHOsYAHQgtGZE3cyOTcp7/p80lME7Z8vl56ot38DfyZ10XY2/+RVp5WiO51PNDqbRZpa+xu7m203mCLkCfIP/IZ8lzmbdW8GM/XfIhneCnZVRIl+sunu0VDgU/Jd3N2OL1dukWzw/e2uhByPsjP0g347cCP5Tn0te9733zG8lf9EVJv+Ah2juo87CZgp+lnh8myXijeydk9AndAD+zFJsHlmUdL/ZEEZjM5nZZuxT3tKXUR/1/WuAHQkHUlmKXPL45IFAhr0rDNEuv+YwZAxDbEpdKonchrwclhwDiCjbowSkZG9PEq54fjapGNqbJ76kX+mkwVQZ5uq1/MxtA2cr4lN8CK7X6EZKa56dVHuMOvUvgB6N7dpaWugA+PTPvWvtKzwWlLc8PdPmmb5qmT/iEafqczymVcvOz2rKX4KcFLAUkc+AHnrT9sQU94IfxRl6WeFoj+GFcPvETY63te/kfOmvcVKLtnJcby1igo/D89PKecgsoIGDcCNC7BX6gh7Q5pueHJRf4gI/AEqLOTE/O/0OPnC9LulsaaCDZU4Qct4L8IA1ICzjYA/zkS17UBQ1uu427/YPgh3GGfmuWvfhOHR7pJWDNsc0n9/TY8cfGCX5qIJ30cZz4feRwY7ROKDjblMBzTXNWRbrS7GEufx4v+FE489lT3GyngcnL4DcghCAw456ZH7OW3r7l4KdkpCg3BuvVEKtAYpo97ukTSka6obBgbL0XvXWu9fzQT8Zf8JPPNN71rml63/sOP9G51A/HJR40lqd785vTXjH2G2H0e4LgJl/26gE/8nHkv1KdgJ8SGGc8ydvaxL3GuEbww5kprQlE3t4S+DkWf+dtWfKbsUAuAD+9HkcncRoHwA8TDM7lmgM/en1z3bWkzUvT4s1CN8IzAAD1UKmcGvjJZTYHMnh+5sAPdcdTrqkfGqKPluqiUtt59umfnjwlD31oLcVxngt+BMaCH/RgbQKZt+yd70xPeE2/N2i/tNUxH+AHHudbZ4AfbAJtycdWuZVXYxlHvD9N8NO7jyCCn9LsYSkhBTQajdzzI/hB2FunImt8IjoG/DDzQ0B7AsJKfpgb0KQnoJVXpXNs8ON4KRA9BrrUjy08P+wryV9pxcCrTEv1HvIMXkDga+AHBfD1X5+W3B7xiP6a6Af00ItnTmksOPJ5vMrHgtEYF+9r4MfxjPwb83G/xrjC04A59gMs2e9DfVcV/DAW6BPln77MBY0DhozAshdeZzyH7DnEo0ycICmlSjzuXoo14NRy1lxd+oJ3WjoOejBJQS4I9AXvQ81ACl7wgH/UR6U8rf/QLhpV5Wcr8EP/+FDu/e7XasX+cSXw40TM1YK5Vnzv904Tb7kt+dDvHPhhORCQjp5iSa3Gp7RNcD/Xzp3iOy3xTrXnxaJQCRI4/ar/j+AHIucCVM9ZjiE/M3OMBgLEpmENATkEPxqXcinnMx9BFOlqhqZWhmCHnfMY15ZCsQzBj8y/l8G3Pq+Ol+OnwmkZaPPGa83zw1IetKyVpyJAqS7xJsS6D7mHL+K+jFjW939/8jo94xk3g7KYrnQPD0hL4wWW0tzn8Sr4jvwX47mHvzGQNc8PaQRa3OeBsZbf8rjabwwQM3hkYcl+H8pDDplwxGUvQUKtvlN4zljAl/T5EM8PM3vAD0ABncC1Bn7QhchM1F1704L9dISajKbYJJ8AH9pI8Jr3xbHFQCpbc54fyiNfNKrKz1bghzpOIajzcs8PbYPX5gKgE93E+UZLgnpHXW9expE3oQE/Lgni/Wl5fuI4Wc4Rr6cFflS2EniOEBH8bOH5Afg4Uyu1RfAzZ2A1CnHmzMyvV/nRb8EPr4+K6OfoYb3XzfPjWNQUKwoP4btM8ONHb/Mx+oZvSOP++MfnMfO/9ZTElIAfvE25sYhpBOctzw/8SCjxlvIn3VPKi/8BMRjkJQGediltKfhBNmkrwF6lqYFc0oZjp0VHYewxFmv3/ETPD+3nlGFCzgPQgwmb46Y+SKn3/a/npyaj1p7zJnqbkE9cHVvGGl4jDPCT6MD/CH7QB/CWE5ke8IP3Fdp/1medl9lzV9MNLMeytxHwc897Ji8k4Ae9XOJT6ooeup66N05zvcBPLkBriCWgEtnG2ZPgRwGulU8ZhEPAjzMVjKou/1Rq/b/K7tjgR4GQZnon7EO9xRdj9PzoEjfW8mqKFeFCSZ4a+OG1z7/xN6bpK74iveZtf3qv0M+Zq3kwbNABMFAL0YNZS6OCVGHGdPl4xjjuoTXLfEveEiGf/MAy7r3uxZNlATnQ84MnFKV/6iHqil7wo7HAcGCgGHOAJksU9Pm97029Np000NOr5zfqLtPsdRX8yDu1eqSHwJw+EnLdXQI/vctegmPKVX7kPZ5dh8DYQzs8PyyJIg/KsrLd6idLXuiQ225rpbo5zvEVYJvCzc5Math2wMsMNc+PfBrHyXKOeL1BsRMKElQCzzVNoEK6EsKcy1+Kp0wEs9QWQYgCXMrPM0GIyw4Yc2baMmctX3yu54dnpdl5TOu99ar8VCDG73VVyUqzObBSawcKkNmDb3iYbq48+skyAOBrzitnmVteAcUAXWexls25PoTP+7x0Xfq/tuw1Jx8oQugg/5XqlUdKPJmPZ56ftXzCkvNBSK8B4u0SFSDPe0MEP4x5CwD2lrl3OidC1NPr+VVuMQ4u+WDgOOeGWfUc+HHyoz7Yu4+U37vspe4U/CgzOZCLNOBNLwBzz94U8kWjel3Bj/0E/OiBZVIE8FC2W+POZmcmILUJZS2vPKWuN52bnbWRLH3x/T7GuTa2w/Mj9W5cISgbPXsVo+AHcIEQ5bOHUHT3LcKJ0dCLoSGgANqGQVKAa4XKIHp+uGKce5Uf5a4BPypalV8vHWv96H0ujaSZCmepYAlcVIjWb3kaT597VbgAmJZh3DGuegTzTc9+6brHXV9qJ/0tve3VQ1d4VANTKtvZYQlYC65yBWc5nApLWAt+lm52TrWdn/KM0tQ4GneqV2WS9vV6fjD07G9iQif40cCx70e+ymmgvGv8lMtj0EbPzxxvqjvlTWU91932DSDDshfgL3+RodQvQYFx6A4mA+pkn1/1q54fgKG8QT+xMcp2rY/IDwB66ZIX5cGb0DLXDYAflryckAB+fOs3H1v5NILUWlt3fH6DWicUIKiKt6dZKBY2bjGYEFIj2JO3loYyEUwHN2/PF37hND3gAbXc6TkGGCYQ/Li/Ygn4iUqkZKBKLUBhwliCHxVIKe2Wz6gTYCjN8NTA8EuXJRQSlq9imPP8OO6XDX7yfT8YKQye7Yt96rkH/MDXUUkwtj1GFD7W8wMo/eZvvuiZQkHCoxFk2yaNpuPpc69+DJFvcy0J8v8h4AfZ5LXxY/H2kv6V0mrsiesZN8vQiMcNrcQBfgw5X2lUlP9jGnw8iBjTubegpIfgp3fZq2fJC7pAgygveCnxGAEMrlNg7PGSM+ES/NA/xmEO/LznPWkyvnSzs/TDJkbdAL0/+MEEfkzjpmd+53yq7MZxMt8Rrzd8ZCcUIGgONlrNc1blTEfj2cozF4dw8iqjXgwNgfle8hLv6lcEjXI0Pt/+7Skt35TqDcxyqJt29IIfykbhSQ+ZrLfOQ9IxbtIMsFLz0rTq0GvjbNC0c+DHfqJQLcO8x7jq+SmBH2fEa9ohMKH/9BH5AHg88YnzpcF/0ANA+MAHpu8uIR9f/uUpLwqS8kuzaZZXoKPjmddGGxjfpcaVzwG89rXTtPaMFF3qfFVbQ5+37dR+q6Nol+Cvp40YDD0/gFT7HvdK1YyK8r90fHraVUtDGz03ppaG58qn4EdZr/UFA4l3o9dQIydxOYU345bo3VbbTyku0isHP7kHOm83+32Qe84sWhNy8BM3O1seeo8JPLort8vq6zhO5jvi9bTg8OMfP03PfGZ/91UsDnZkiP5SLqZ0xoziB8QorBdTzf9C8eD5gTGe//xp+tIvXS6EGr+l4MfWHdNAANScDeBqjp4r2zN3VUhKnh+8SLXxjc/Xjtdc21rx7kXYGvwIIF36YgMhwSP206/yf8APnidm4ixTMT7ROGEgS/t9LC1XcD7nuvR7QObFQD7ykes2f1OGAID6VaCWfapXxoEA/3qfnrT/0z8MP54f+g0gJSzx/KgfU87T+C8NlHE/hppPMh1fdCj6/eysr/3SjdSsCvDSwZITjPtqufxUUedF8IOtmPP8oAc4i0d9u7Q3UdeT183OLHsZkHW9P7GtxGuXLtnzc1rghxnhYx8r+eavCrdu3rWDGWuiTGYlGHIGea27lHIo48lPTt6sb/zGWEvfveBHpd+TK872WIo6Vsg9P2vAj8DF2aBtZ/ZAeQhUKUThsoxSur2eIcy0L4IfzllhxnqI50fw456nH/zBxI89r4nDf3hIUIRvf/s0Pexh6btDuMoJPG+B6lzBpVzp/1rwE8tYc68c4BHROK4p55h51FEsedX4t9QeeFrPD/tdDIyLvyPfE69RQR8iByWvnuVc1lX5RMdyLgzLsQBix9Z2Ob4/9VPpqIDeZa8IfgD97LW81Tw/LAt7pIT09MpqBN/WW7PfxzLyiRHgB/52Emg6wU9ul+XTAX6k1IqrimVLzw8zE87KwDigaNYGQMjb3pYOuHvBC5Yt51knxg+FucRdLviBwdYCN+tfco3GUrCyJD9pFRJnheafK09FSXqVq3mPdWXpK4If7lFAh4Afwa+eH8APs9iePp6dJUCGi/u+903LBoBxP48Af6/x/LCJkU24Szc7bzEOEazFMd+i7L3KgKeXyjBt0YjHt3lso96fGvjBq3eI7rKePa7sS+QPz/qTnpRk/sUvvrkm0kA3ABIBfu4J0o20LHkRrrvnRzBMX5FpJjhOmHgWA5/6Ib53GTHm9b4EfuJmZ9PhXSJop9Ov5MXEkzmWvaTIiqtE3drzQ1PuvHMdYLEbgBDcrve//zQ9+tE+XXZF4JnxLJnBCX6ObRxyz49eiyU91qjXPD+1sqIRsIxa2r2e5+DHN3IOAT/SEEWGwmLZS4Uy14/nPS95nnRFO9PD5c3bkWvBD/0i/9Izfuba2xOPvDtrPDZ/97SvlAYDzoRqyWZnyoGnkQMPOIxlu+/HyYJx0gSwrB4w7pSu0OOVr0yHNb7wheXJHXSjP2ykJSz1/MCjgB8mgHxH7roFdR4eZ+/poxMa933l/f7Wb03AuGfpPM/rb8EP3yrkPB8+kFp6iYGPOL/qVdNU+nYYcjw8P1J0xVXws6XnxzIBP4fMnpi1M3t56UuXubsjGZ7znGm6/fb4ZP5epaeRmM+xTQo9Pyz3sE6/ZtlLZb7U8xOF/7LAD7Ov6PkR/Hj+yRoqQ1OUN+AHFz6z5V6lxSupkS4sK9zjHmnfDx4ggHn0pOTti2A2xq19zT2WsfYeg+jyiIZ+bVnHzHd2thws0j+8Pnja4p4O2v3Up07Tq19984w6yvwhumtv2gB+8OY+6EHT9JjH1GuDBu699KWCeuoUI19AN4wyIP2Yy/9z7dsqXtnOeUOZZnKTB97yestbpumrvzrZpjy+9zcyyGTsW74leaGf+9xpetrTbs6N7mJ83a8WUzBOlwx+bmz5vsJBoLKl5wfBJGAgMABrw5/6U2m/zyEzZPpnH3vbIfhRCfTmOzQdtGKPgkK3BvwIXEqeH70gpXbGvlpGKd2ez1DOgBSULsoW8IPwR5f00vrJDx2ZybPkRegFPyn1xf+4unnz0NennSVeTJV+CWaZQQM6DOz3IVzGshf1onjZyxTHnOenHPC2RWDS01aMm7KUGzi8SCVvcqxDPdBT17HToNOY6OCFiLyVt8MxZi9J77EZ5sGw4vlxiTAv+6r/tp85byjT8o79RI6f9azkZXvKU3y67vqEJ0wTb27i9dFeLi2J9o9lr6VUC+k1dHt4fqjmkNkTxrDkCgzN3+VWpadw7FJJoVBppXFcA35QcCzxRc8PQju358dZEM2SJwpN3PWRM1N5EfAD8CnNepY0BNAHqAL8oGgOceEDfjAKb3xjaoGKstQewCzeIQBtDIwvY33IxCCWt/T+Knp+kIWl8hjT9wLoCH6Ux6X0PUZ6PAWvf/3NHq28bmnQu+RFfmmAzgAkX8fNzvRTnZeDH/eH5uDne75nmtjvAwAyL+WsCdD4ttvWAx/qpIzh+VlD/f+fB9c+xm4Pzw9VXJaCP4AkP7/Wr+I4pKwleaWVyyItT02tXGaBjGf0/PBWCEtpLTAV+3rZ4IelLw7/A/wcst9HGrF8CvjhsDbensAbtDZ8xmek/CyZEHSRp18X/zueeEBdjiTFZb3pZesEPxo5n1+3azRQuYGr9TXSxElQLe1lPme5qyco12dnPalTGvPwBhITp+u42Zme6nHJaQPfoAPjnh+9PvDRl31ZPy33TMk4XTL4OUCT7kmZBWXjQmWpgRAVRnqy/H9cZjrl2VOtZyq9qAhrabd8Lq0EPy2w0qoXQxs9P8zgCK3y2FslKDgF8EN7twI/gEhemec8lEOWvGgTY4SrWu/cnOeHPOy5iOFUwI9GLrbtOt3bP5ZQeycScW+L8niVaSINcgPf6pN53ve+lOq6gh944nWvKx94yqQmen7e9KZp4ivuX/d1h+31adF9aRz2aSx7LaValj6Cla3Bj7PfrMqT/in4UQkcq7HSSsPaAiutNuWenx7wg8fIsb8s8OMZF3h+EGpmXlt4flBybL7ntflDwQ909xVXlE+LVhpPPD8GzkwBiF3Wfh/aoefn2PwtDY51lZ9Z8mrti4ntIZ2THvVAjL9q947xkmUv8/BmJJOipZ9guUo0+oIvKL/Vx6RG8INj4I//8Wn66I+epi/5ktPpHeM0PD8Hjofgh1kPy2CHBt2JlKMBOLTMY+ZX6akEjlW3tLoMzw99tL8tg74nLfBYQXvADwCBsAX48awfyvPQMO7XBsEPCrJlVAWzEfwAwnjL45BN/Gvbbb5bBfzIz737faSP4Ed59PlVvEqDs7P+1puHL4qzKXfJMSH9tZx2SmTbZS9eR+esJM5SOiVaME4D/BzIR4KfuC/hkCLZdKv7+CoqENusEjyEFkvyaizx/DDjcua6pAzSrvH8kM/6vPLs2IFNz4AflrwIW4AflzyYwUYglGpY/v/TPi29OdPa70OpjmcEPwLby/T86AWwfcspcDVyyMe9+33slXLvJMjnV/EqkFkDfjio9rouec2NpZ4fDtl90YvS0QicuXNKAT695GWvDz8leqxqi+BHZbGqkCwT3h/chVdRwar0VBxZ13b7ab3Qjdl5y6vQagQg1hONSdez7EU6xp8/9/7w7NhhT/CzxZIX9IAvHv/48+WjGo3k/bjnxyXNywQ/AMp3v/ty3qSs0WqP58rv8PwsOy5CujEmtyr4YWLDvkmWue55z2la82mlPXg6lsk4XbLn5/qAn608PwwQgIrvo+hFiYN26veCwagEjtFmlhypm2/HrN3vQzsZx/i2F+AHIDU3FvT3spa8pC/g54d+KHl+8H4xAzs06O3pPdm5pz7OV5kL0JPX9KPnB/DDxEBv1FwZe8XjvbruwcncUs+Pcu9k5CrTiXFmIoQs9QY9X6S/VcGPeofDZvmuX6RJLx33TgefXjL4uR5vezFQKostBk0A4ex3izKPVQbLdnwokNeajx0EKIcYRwBM/rYX5c7t52L8TwH8/MzPTBMfY8RVv4UXirezOB6ej/4eMwA44f8c/OD1WevVO2b7r3pd7j10ma+3Pxo6ZbE33ymme9zj0nlAS9om+CPPdT3jZ44e6B4Cn7g51UMex7JXGqOD/gtUtvT8oHiYbahIDmrgJWR+7WsvodIbVWIs77xze89PjyeJGfJlb+jzoMP3vne7ZRk8P3yc9DJCCfwAxkbYnwL3u1/6/pXfZOutUZ11HTw/vX2O6QQ/6HDlMcbfCvdMfHnV/zIO2e2lL+PEIaqc4XZJevv6LHtt7fm5il6fXsbbK52zzR6wUmsD3hs2wvFqN94elr16yuMbauS5zKCypc1bbHa+zL5QNzLgnh8UFcAWr+II+1MAg4DnY2kA/LBcKQhYmv+qpxf8seR1q3oo6fcWb4buyQvyJ7r+kjz21wf8bOn5edjDLvd13j2Zbs+yBYw9YKXWDseRfT949Tjd2Neba3l4rtJrpdk7TvBDPdcF/PAdME7L/Y7vSLO0y9zsvPf4XYfykQO8Preq4WepGR1yqy55XRUeVl+z72eAn5Wj5rLXlp6fNTOulc2/Vtn0/By65wei8I2st741bR6+KorsuoEfxvPNb56mT/qk9Hr853/+ND3kIdeKZa9dZ/B45N9ju3adnOkQJx/f4x4ziUb0pVLgsY+dJvTJIbbiwA4Mz8+BBBzZAwW29PwAeDhQjy9YP/zhoZITvmWfAbNOvFbXwfMD3XnbBiX1iEfMv3F3wkNzyzTtOc+5Zbpa7egDH1iNGhEnQgG8PZfk8ZEC1wf8bOn5kTrjuowCen4OWfbiPBs2e/JqN8aX69ybXstauV9qlhrw/vzkT07T3e++Xz3HKhnQw98IgwKDAoMC14wC1wf8uFfkmg3QlerOFp4fPCbveteV6vaFxgJ+OFpeIHghcvwYFBgUGBQYFDgFClx98MOyCEaXD7eNcLkU4A0D9hx8zMdcbjsus3Y+Njj2G1zmCIy6BwUGBQYFZilww0/fH+5973v/3B133NGf4VgpecWZXf636hsOx6LzqGdQYFBgUGBQYFDgClHgLne5y43XVacbb21cDFff80N/rsqekIu0H78GBQYFBgUGBQYFBgUugQI33CUjDAoMCgwKDAoMCgwKDArcOhQY4OfWGevR00GBQYFBgUGBQYFBgRsUWLTn50b6G4d+TD89KDcoMCgwKDAoMCgwKDAocAUo8FE32njjI4kjDAoMCgwKDAoMCgwKDAoMCgwKDAoMCgwKDAoMCgwKDAoMCgwKDAoMCgwKDAoMCgwKDAoMCgwKDAoMCgwKDAoMCgwKDAoMCgwKDAoMCgwKDAoMCgwKDAoMCgwKDAoMCgwKDAoMCgwKDAoMCgwKDAoMCgwKDAoMCgwKDAoMCgwKDAoMCgwKDAoMCgwKDAoMCgwKDAoMCgwKDAoMCgwKDAoMCgwKDAoMCgwKDAoMCgwKDAocRoH/B/6yfi/jW1iGAAAAAElFTkSuQmCC;" parent="1" vertex="1">
          <mxGeometry x="60" y="285" width="136.9" height="30" as="geometry" />
        </mxCell>
        <mxCell id="isVZYeZh4vV-a_DudpPx-83" style="edgeStyle=orthogonalEdgeStyle;rounded=0;orthogonalLoop=1;jettySize=auto;html=1;exitX=1;exitY=0.5;exitDx=0;exitDy=0;" parent="1" source="isVZYeZh4vV-a_DudpPx-12" target="isVZYeZh4vV-a_DudpPx-75" edge="1">
          <mxGeometry relative="1" as="geometry" />
        </mxCell>
        <mxCell id="isVZYeZh4vV-a_DudpPx-12" value="" style="shape=image;verticalLabelPosition=bottom;labelBackgroundColor=default;verticalAlign=top;aspect=fixed;imageAspect=0;image=data:image/png,iVBORw0KGgoAAAANSUhEUgAAAj8AAAB+CAYAAADLN3DXAAAMPmlDQ1BJQ0MgUHJvZmlsZQAASImVVwdYU8kWnluSkEBoAQSkhN4EkRpASggt9N5shCRAKCEGgoq9LCq4dlEBG7oqomAFxI7YWRQb9sWCgrIuFuzKmxTQdV/53vm+ufe//5z5z5lz55YBQO0kRyTKRdUByBMWimOD/enJKal0Ug9AAQK0wWjgzOEWiJjR0eEA2tD57/buJvSFds1eqvXP/v9qGjx+ARcAJBridF4BNw/igwDgVVyRuBAAopQ3m1IokmLYgJYYJgjxIinOlOMqKU6X470yn/hYFsStACipcDjiTABUr0CeXsTNhBqq/RA7CnkCIQBqdIh98vLyeRCnQWwNfUQQS/UZ6T/oZP5NM31Yk8PJHMbyuchMKUBQIMrlTPs/y/G/LS9XMhTDEjaVLHFIrHTOsG63cvLDpFgF4j5hemQUxJoQfxDwZP4Qo5QsSUiC3B814BawYM2ADsSOPE5AGMQGEAcJcyPDFXx6hiCIDTFcIehUQSE7HmJdiBfxCwLjFD6bxfmxilhoQ4aYxVTw5zliWVxprAeSnASmQv91Fp+t0MdUi7PikyCmQGxeJEiMhFgVYoeCnLgwhc/Y4ixW5JCPWBIrzd8c4li+MNhfro8VZYiDYhX+pXkFQ/PFNmcJ2JEKvL8wKz5EXh+slcuR5Q/ngl3hC5kJQzr8guTwobnw+AGB8rljPXxhQpxC54Oo0D9WPhaniHKjFf64KT83WMqbQuxSUBSnGIsnFsIFKdfHM0SF0fHyPPHibE5otDwffDkIBywQAOhAAls6yAfZQNDe19gHr+Q9QYADxCAT8IG9ghkakSTrEcJjHCgGf0LEBwXD4/xlvXxQBPmvw6z8aA8yZL1FshE54CnEeSAM5MJriWyUcDhaIngCGcE/onNg48J8c2GT9v97foj9zjAhE65gJEMR6WpDnsRAYgAxhBhEtMH1cR/cCw+HRz/YnHAG7jE0j+/+hKeEDsIjwg1CF+H2JME88U9ZRoAuqB+kqEX6j7XALaGmK+6Pe0N1qIzr4PrAHneBcZi4L4zsClmWIm9pVeg/af9tBj/cDYUf2ZGMkkeQ/cjWP49UtVV1HVaR1vrH+shzTR+uN2u45+f4rB+qz4PnsJ89sUXYAewcdgq7gB3FGgEdO4E1YW3YMSkeXl1PZKtrKFqsLJ8cqCP4R7yhOyutZIFjrWOv4xd5XyF/qvQdDVj5omliQWZWIZ0Jvwh8OlvIdRhFd3J0cgFA+n2Rv77exMi+G4hO23du/h8AeJ8YHBw88p0LPQHAPnf4+B/+zlkz4KdDGYDzh7kScZGcw6UHAnxLqMEnTQ8YATNgDefjBNyAF/ADgSAURIF4kAImwuyz4DoXgylgBpgLSkAZWA7WgAqwCWwFO8EesB80gqPgFDgLLoEr4Aa4C1dPN3gB+sE78BlBEBJCRWiIHmKMWCB2iBPCQHyQQCQciUVSkDQkExEiEmQGMh8pQ1YiFcgWpAbZhxxGTiEXkA7kNvIQ6UVeI59QDFVBtVBD1BIdjTJQJhqGxqMT0Ex0MlqMLkCXouvQanQ32oCeQi+hN9Au9AU6gAFMGdPBTDB7jIGxsCgsFcvAxNgsrBQrx6qxOqwZ3udrWBfWh33EiTgNp+P2cAWH4Ak4F5+Mz8KX4BX4TrwBb8Wv4Q/xfvwbgUowINgRPAlsQjIhkzCFUEIoJ2wnHCKcgc9SN+EdkUjUIVoR3eGzmELMJk4nLiFuINYTTxI7iI+JAyQSSY9kR/ImRZE4pEJSCWk9aTfpBOkqqZv0QUlZyVjJSSlIKVVJqDRPqVxpl9JxpatKz5Q+k9XJFmRPchSZR55GXkbeRm4mXyZ3kz9TNChWFG9KPCWbMpeyjlJHOUO5R3mjrKxsquyhHKMsUJ6jvE55r/J55YfKH1U0VWxVWCrjVSQqS1V2qJxUua3yhkqlWlL9qKnUQupSag31NPUB9YMqTdVBla3KU52tWqnaoHpV9aUaWc1Cjak2Ua1YrVztgNpltT51srqlOkudoz5LvVL9sHqn+oAGTWOMRpRGnsYSjV0aFzR6NEmalpqBmjzNBZpbNU9rPqZhNDMai8alzadto52hdWsRtay02FrZWmVae7Tatfq1NbVdtBO1p2pXah/T7tLBdCx12Dq5Ost09uvc1Pk0wnAEcwR/xOIRdSOujnivO1LXT5evW6pbr3tD95MeXS9QL0dvhV6j3n19XN9WP0Z/iv5G/TP6fSO1RnqN5I4sHbl/5B0D1MDWINZgusFWgzaDAUMjw2BDkeF6w9OGfUY6Rn5G2UarjY4b9RrTjH2MBcarjU8YP6dr05n0XPo6eiu938TAJMREYrLFpN3ks6mVaYLpPNN60/tmFDOGWYbZarMWs35zY/MI8xnmteZ3LMgWDIssi7UW5yzeW1pZJlkutGy07LHStWJbFVvVWt2zplr7Wk+2rra+bkO0Ydjk2GywuWKL2rraZtlW2l62Q+3c7AR2G+w6RhFGeYwSjqoe1WmvYs+0L7KvtX/ooOMQ7jDPodHh5Wjz0amjV4w+N/qbo6tjruM2x7tjNMeEjpk3pnnMaydbJ65TpdN1Z6pzkPNs5ybnVy52LnyXjS63XGmuEa4LXVtcv7q5u4nd6tx63c3d09yr3DsZWoxoxhLGeQ+Ch7/HbI+jHh893TwLPfd7/uVl75XjtcurZ6zVWP7YbWMfe5t6c7y3eHf50H3SfDb7dPma+HJ8q30f+Zn58fy2+z1j2jCzmbuZL/0d/cX+h/zfszxZM1knA7CA4IDSgPZAzcCEwIrAB0GmQZlBtUH9wa7B04NPhhBCwkJWhHSyDdlcdg27P9Q9dGZoa5hKWFxYRdijcNtwcXhzBBoRGrEq4l6kRaQwsjEKRLGjVkXdj7aKnhx9JIYYEx1TGfM0dkzsjNhzcbS4SXG74t7F+8cvi7+bYJ0gSWhJVEscn1iT+D4pIGllUlfy6OSZyZdS9FMEKU2ppNTE1O2pA+MCx60Z1z3edXzJ+JsTrCZMnXBhov7E3InHJqlN4kw6kEZIS0rblfaFE8Wp5gyks9Or0vu5LO5a7gueH281r5fvzV/Jf5bhnbEyoyfTO3NVZm+Wb1Z5Vp+AJagQvMoOyd6U/T4nKmdHzmBuUm59nlJeWt5hoaYwR9iab5Q/Nb9DZCcqEXVN9py8ZnK/OEy8vQApmFDQVKgFf+TbJNaSXyQPi3yKKos+TEmccmCqxlTh1LZpttMWT3tWHFT823R8Ond6ywyTGXNnPJzJnLllFjIrfVbLbLPZC2Z3zwmes3MuZW7O3N/nOc5bOe/t/KT5zQsMF8xZ8PiX4F9qS1RLxCWdC70WblqELxIsal/svHj94m+lvNKLZY5l5WVflnCXXPx1zK/rfh1cmrG0fZnbso3LicuFy2+u8F2xc6XGyuKVj1dFrGpYTV9duvrtmklrLpS7lG9aS1krWdu1Lnxd03rz9cvXf6nIqrhR6V9ZX2VQtbjq/Qbehqsb/TbWbTLcVLbp02bB5ltbgrc0VFtWl28lbi3a+nRb4rZzvzF+q9muv71s+9cdwh1dO2N3tta419TsMti1rBatldT27h6/+8qegD1NdfZ1W+p16sv2gr2Svc/3pe27uT9sf8sBxoG6gxYHqw7RDpU2IA3TGvobsxq7mlKaOg6HHm5p9mo+dMThyI6jJkcrj2kfW3accnzB8cETxScGTopO9p3KPPW4ZVLL3dPJp6+3xrS2nwk7c/5s0NnT55jnTpz3Pn/0gueFwxcZFxsvuV1qaHNtO/S76++H2t3aGy67X2664nGluWNsx/GrvldPXQu4dvY6+/qlG5E3Om4m3LzVOb6z6xbvVs/t3Nuv7hTd+Xx3zj3CvdL76vfLHxg8qP7D5o/6LreuYw8DHrY9int09zH38YsnBU++dC94Sn1a/sz4WU2PU8/R3qDeK8/HPe9+IXrxua/kT40/q15avzz4l99fbf3J/d2vxK8GXy95o/dmx1uXty0D0QMP3uW9+/y+9IPeh50fGR/PfUr69OzzlC+kL+u+2nxt/hb27d5g3uCgiCPmyH4FMNjQjAwAXu8AgJoCAA3uzyjj5Ps/mSHyPasMgf+E5XtEmbkBUAf/32P64N9NJwB7t8HtF9RXGw9ANBWAeA+AOjsPt6G9mmxfKTUi3AdsTvianpcO/o3J95w/5P3zGUhVXcDP538BAEt8i7U6b0IAAABcZVhJZk1NACoAAAAIAAQBBgADAAAAAQACAAABEgADAAAAAQABAAABKAADAAAAAQACAACHaQAEAAAAAQAAAD4AAAAAAAKgAgAEAAAAAQAAAj+gAwAEAAAAAQAAAH4AAAAALcx92wAAArZpVFh0WE1MOmNvbS5hZG9iZS54bXAAAAAAADx4OnhtcG1ldGEgeG1sbnM6eD0iYWRvYmU6bnM6bWV0YS8iIHg6eG1wdGs9IlhNUCBDb3JlIDYuMC4wIj4KICAgPHJkZjpSREYgeG1sbnM6cmRmPSJodHRwOi8vd3d3LnczLm9yZy8xOTk5LzAyLzIyLXJkZi1zeW50YXgtbnMjIj4KICAgICAgPHJkZjpEZXNjcmlwdGlvbiByZGY6YWJvdXQ9IiIKICAgICAgICAgICAgeG1sbnM6dGlmZj0iaHR0cDovL25zLmFkb2JlLmNvbS90aWZmLzEuMC8iCiAgICAgICAgICAgIHhtbG5zOmV4aWY9Imh0dHA6Ly9ucy5hZG9iZS5jb20vZXhpZi8xLjAvIj4KICAgICAgICAgPHRpZmY6UGhvdG9tZXRyaWNJbnRlcnByZXRhdGlvbj4yPC90aWZmOlBob3RvbWV0cmljSW50ZXJwcmV0YXRpb24+CiAgICAgICAgIDx0aWZmOlJlc29sdXRpb25Vbml0PjI8L3RpZmY6UmVzb2x1dGlvblVuaXQ+CiAgICAgICAgIDx0aWZmOkNvbXByZXNzaW9uPjE8L3RpZmY6Q29tcHJlc3Npb24+CiAgICAgICAgIDx0aWZmOk9yaWVudGF0aW9uPjE8L3RpZmY6T3JpZW50YXRpb24+CiAgICAgICAgIDxleGlmOlBpeGVsWURpbWVuc2lvbj4xMjY8L2V4aWY6UGl4ZWxZRGltZW5zaW9uPgogICAgICAgICA8ZXhpZjpQaXhlbFhEaW1lbnNpb24+NTc1PC9leGlmOlBpeGVsWERpbWVuc2lvbj4KICAgICAgPC9yZGY6RGVzY3JpcHRpb24+CiAgIDwvcmRmOlJERj4KPC94OnhtcG1ldGE+CsuCVBMAACXZSURBVHgB7Z0J3FZj/savwoxs2WXsy0SDNGUZDKUMypLJrrSnBaW9hEorrSppoUKkUNaYJNlFNdaxjV32LUuE+ftfV3dRr3d5nrdnOec81/350Pu+zznnvu/vfZ5zfvdvBdxMwARMwARMwARMwARMwARMwARMwARMwARMwARMwARMwARMwARMwARMwARMwARMwARMwARMwARMwARMwARMwARMwARMwARMwARMwARMwARMwARMwARMwARMwARMIKcEKqTT2zbbbPPL7rvvns4pPtYETMAETMAETMAE8kJgyZIln7Hj7Yp2vmHRP5T2uwSfxYsXl3aIPzMBEzABEzABEzCBSBCoUKHCO8UNpGJxf/TfTMAETMAETMAETCCpBCz8JHVlPS8TMAETMAETEIGVPwDLvzCLtQhY+FkLhn80ARMwARMwgUQR+PZroMMpQIvjgM8+TtTU1mcyFn7Wh57PNQETMAETMIGoEvhxJXBpW+C9t4DvvwOGdAH+97+ojjan47Lwk1Pc7swETMAETMAEckDg//4PGNoNeG4R0PNKoGN/4N9PAjMm5KDz6HeRVrRX9KfjEZqACZiACZhAgRP45Rdg/EBg4b1A295AvYaA/rbkMWDaaKDGocD+BxU0JGt+Cnr5PXkTMAETMIHEEbj1OmD2NKBRc+CM1mF6FSoAnSkQ7bATMPAi4OuvEjftdCZk4ScdWj7WBEzABEzABKJM4MG7gAmDgdoN6Oh8CSChZ03bdHP6AF0FfP4JMLxX0Aat+azA/rXwU2AL7umagAmYgAkklMDSJ4ArugPVDwF6jwAqFvOK3/dAoE0P4LF5wF03JRRE2dMqhkzZJ/kIEzABEzABEzCBCBF442Wgbztg5z2AAROBP/yx5MGd1hI4pHbwC9J5Bdgs/BTgonvKJmACJmACCSLw0TKgVwug0maM8JoCbF659MlJI9RzWDhuYCeGwa8o/fgEfmrhJ4GL6imZgAmYgAkUCAE5Lvem4PPD9zR5TQW2/1NqE99qW+DikcC7bwBXX57aOQk6ysJPghbTUzEBEzABEyggAipbcUkb4IN3GcE1Cdhjn/QmX/MI4Jz2wNxZwIK70zs35kdb+In5Anr4JmACJmACBUhAmZoHMWT9paXBuflA5u4pT2tGs9d+tYCRfYIQVZ5rxPAcCz8xXDQP2QRMwARMoIAJKGHhuP4hYkvh7HVOKD+MDTcC+owOkWHy//npx/JfK0ZnWviJ0WJ5qCZgAiZgAiawqkTFndOZwJAmr1Pp77O+rQoTH3YbArzyHDCFfkAF0Cz8FMAie4omYAImYAIJITBvNnAtI7XqngSc1zNzkzqqPnDSOcBM+g4980jmrhvRK1n4iejCeFgmYAImYAImsA6BZx4FhjEz818PA3qwWGlxSQzXOSHNX2RC26Mqq793DVmg0zw9Todb+InTanmsJmACJmAChUngtReBfh2A3f8MXM7K7KUlMSwvoT9uzPIXY5n35zvmC6IApMrwCW0WfhK6sJ6WCZiACZhAQggolF25fJS8cAiTGKpGV7aahKsL+rIC/OPALcwUndBm4SehC+tpmYAJmIAJJIDA8i+Yvbk58PPPTGI4Ddh2h+xPqsEZIYJMzs8KpU9gs/CTwEX1lEzABEzABBJAQFmbL24NfPIhc/pMBnbbOzeTUiX4LoOYLXpHJk9k+Pu3X+em3xz2YuEnh7DdlQmYgAmYgAmkROB/1PQM6BjCz5WHZ/+DUjotYwdttgX9f8YAn30MDO8NKLdQgpqFnwQtpqdiAiaQMAKquD2M4czK5KuXoVthEJCgMfoy4MkHgQvpf3PkcfmZd7UaQCs6Pj9yH3DvLfkZQ5Z63TBL1/VlTcAETMAEykNAZQuemA/MngY8twjY6A8h6+6uNHmce0F5ruhz4kZg+rggbKju1ilN8zt6JVJc+gQzSl/OMhg1068flt/Rl9i7NT8lovEHJmACJpBDAvKrmHUtBZyjgb586X30PtCW5obbKADVOxm4gSaIV5/P4YDcVV4IzJ0JTB0FHNuIWpdueRnCOp0ql1Cv4SHCbAD9f+SHlIBGr6bUW61atX5ZvHhx6if4SBMwARMwgdIJvPsmMGca8K/ZfLGsAKofAjRqDhxxDLDBauX8N8uB1g2AjSsBE+8O/5Z+VX8aRwJPLWCV9rZArSOCg7PqbkWlLWaCxR7NgBPPDs7QURlXGeOoUKHCEh7yO4cpa37KAOePTcAETCDjBJQ87umHuaNuATSnkDN3FlC7fhBsRtO34qjjfxN81Lnyu/RkSYP3KChNHJrx4fiCESDwMutqXX4hsFc1av5o9oqS4CM8Bx0JnEXB7J4ZwMK5EQC2fkNYva1Yv4v4bBMwARMwgRQIKHOuajPNvj4IMltvR+GHzszaTevn0lrNw4HTWtIMNgU4rC5wSO3SjvZncSKw7G2GtLcCttqWSQyvAzbZLJqjb9kl+KGNoDl2nwOAHXeJ5jhTGJXNXilA8iEmYAImsF4E5L8z5wZqeOjP8d034cXRiFqfOjRlyaE51fbjSqBdQ+Cbr1jckhE4lbdK9UwfF1UCX3zKiK7Tw30x9lZglz2jOtIwrg/fY0HVE4Fd9wKu4v0cNQ1VEXo2exUB4l9NwARMIKsEFK6saK3L2gFN6gC3TwUOPgoYwxfc+DuAf5ySnuCjwaqe08UjgeVfAqMuSVzulayuRxQvLk1gn9bAF58Ag+nsHnXBRwyl7ek6BHj52eCYHUWuKYzJZq8UIPkQEzABE0iZgLQzD94VQtWVp2eLLYEzzwMaNmHG3D+lfJkSD9z7L0CLzsDkK4EHKEQd+88SD/UHESbw809A/wuA11+ir89E4C9/jfBgiwxNGsulZwMzWGBVFeblDxSzZrNXzBbMwzUBE4goAWXCveum4BD61eesvl01RG0dQzOVorQy2ZQLqMs5wJsUribT/FVlp0xe3dfKNgFpBa/swQi/27mOg+nzdVa2e8z89RXy3oGCt2qPTb63bJ+1zI8gpSva7JUSJh9kAiZgAmkSUJSOMjCfzd3vTVcDyoo7/EbgOgoleqllWvDR8DbYgFW+R9DsxZ+HMgOvhCG3+BBQHh8JPk07xlPwEWnd15deFXyVhjIfkSIYY9QqxmisHqoJmIAJRIOATBYLmG/ngtOA87n7fXJBMGvd8GDIz1KTeVpUHDKbrcrO7P8y4PmngVuvy2ZPvnYmCUg7qAzOqpzerFMmr5z7a+2xD+//SwHlAFKCzhg1+/zEaLE81DIIyNQw6YrgV6HwYTcTyDQBqfiV5+ROvsA++wj4025BADnu1JABN9P9lXU99av6T1OoBTr4yJAjpqxz/Hn+CDz+AB3e+wKH1gE6D8y+gJyLmSpNw5LHqekcDhzIBJ3SfMagpbU1cYbnGKxooQ7xYSbduooPFQlA2nFPoMPpn/crVBqed6YJvPlKyM0z/w5ADs3KwNuoOV9iRwNK/5/PJoGsVX1gy61DFJkiwtyiR+ClpYySahxqY428Gai0SfTGWN4RqTRLmxPCd0EZyFURPiLNPj8RWQgPI8MEJOwoYkL/bb9jyDux+ZYUfuhEKKdCNxMoLwH50Tw+P7ywVFriwTtDvaXr7meldfr0HFYv/4KP5laZQk93ajzffJW7b2qA3KJHQCVMFNK+XZUQ0p4kwUe0JexcQv+fjz+ITQoGm72i9zXxiFIloBTrV9HnQUnjWnUNqddVC0lOhOP6A4sWAn/jztzNBNIhoPvpPubiUVLCD9/lC4tCdZse9NE4M7pJBWVGOZlahduuC/e8wo/dokHg809YxqR5cFIfOi1kcY7GyDI7ClV8Vwboa4cFzai+LxFutA+k3mz2Sp2Vj8wigS8/CyauRxhNoxTrPa4MquQ1Xf70I7+ExzHz6B/4RWQI5prikGs+978mUBwBqe5nTwvlI/TzfrWAU1sARx4bj3vo+xWsAn8SzXI/hOzPETI9FIe7IP4mQbrz2cD7b1MjcjOfV9WTPW1FfPVsBry4BLiGmtLd/5z3+drslfcl8AAyQmAhhZmWLPooJ8/WDK8cd/u6go86UbmANj2Bd17nDv62jHTriySYgF5QNzL6pnFtYNpoOm0eSt+ZOYBKDSiZW1yEZ5lSeo+kIzY1DWP6JXjBYjI1bcL6dQjmyH5XJ1/w0bLI/0334CabAgMuBFZSEI9oy7OnXkSpeFjRIyBtT7/zQ9VjJXSTQ/M5fLCU9GI6kpqf/blzn8ovolLIu5lAUQIrvg15eST06D7Z/6BwXw2YCOx7YNGj4/F7NY77XPq/yTFbGwW3/BCQBmQYN2CKguo2pLCK0KpAb68RwFuvUfszKD/8U+jVwk8KkHxIHgnIafmhe5jOn8LMKm1P99XanqqlD0oRX+37ABKaZk4q/Vh/WlgEJAzffA2FZwo9chBWWYFrKCwMmgxU3T/+LJpwkyDhTbW/PmU4vlvuCSjsez7NPi27Aseflvv+892jatippItyGsk9IYLNwk8EF8VDWk1A1Y6lNh7QMRTTUwjlOe1L1vYUBad8E3VOCMm3VHrArbAJyCfmFmp1JPTIKXPf6sDVNG8NppNwknwxpA1V8VOZXVRCIWaZd2N/k0rrpppXyn/TmM+vQm1yftb3anhv4KNlkaNg4SdyS+IBrQpRV/Zc+fY89VCItBl3W/mc51pTU/Tzz/TlGGWwhUpANYhmUqsj85aSYEq7I1+xoVOZkI0akiS2nfcIms8ljwF3MCzfLTcEXnshvOyrHwJ07JeMJIblJSffy0vHMOUITYAq//I/Pocj1Cz8RGgxPBQSWKPtGdiJ2XN3BaTtObtd6tqeohB1jX82DaHLSlTnVjgEJPTcei2FnqN4H9HvYq9qdGKmEH3FtHhV0C7viknzoFQPk4bS+f+/5b2Kz0uVgEzsl/FZpWSTfccx2nSjVM9M7nF6/nam389LS7gBZR6gCDULPxFajIIeinx7HqQTs0LUpe05r2eItslEqGRj+kBsunnY9Rc05AKZvCJMbpsCNKlDX57BIRpwzCw6oN7A8PWaBQKB05TfWzcKPpU2pWmvSzCDFc7scztT1XpTQMZXXzAog6bVrbbNbf9R7q3uSaGO2c3jgaVPRGakFn4isxQFPBBpey6jL49UozvtTiGFDs5ntS2/tqcoyi22DBEwTz8MPPNo0U/9e1IIqOzE7GlB6Bk/ENh1b2D0LTRDTA+RXEmZZzrzUORNF+68X38RuGFsOmf62HQIXM377YVnmGmbwmYSnObTmXsqx55/Gb+Pe1EI7xyCUFI5J8vHWPjJMmBfvhQCq7Q9ioigtufphdT29GJ+kluB3fjSynRreO5qp2maP1S2wC05BCT0KBtz4zr05bkckL/LqBnAyJsA+V4UelPaB0UczbgmJJ8rdB6Znv/cmSx0S7+qM9oA9Rpm+urJuJ5yUMn/55vlNDvTDzMCTvgWfpJxa8VvFr9qe7gT+FXbw9DIDTbIzlxU7FElCuT3M292dvrwVXNLQEKPXjpN6Ncytl/wERtBgUeCjxIVuv1G4ALuvHfYCRjSFVB+I7fMEFCxUhVUrvV3Pl/4UncrmcCe+wIdLuFGlxr422mWznOz8JPnBSi47qXtUShoi2ODtqdt7+xpe4rCrd2A0T01gCkjATnDusWTgEK4lT+kad3w4lHSy+EUgmTick2r4td0k82YeG44C0++z+zVg4o/xn9Nj4DSZygVx7ZVglajpISr6V012Uer/tzf+eyfPAx45bm8ztXCT17xF1jnKvCnaAg5X+6yJ78A9zIRFlXF2dL2FMUrB9B2FLY+50PrVuZ2cYsXAQk991Crcy6FntGX8qWzI/PYXE8BaBZQ84jCDitOZSUPODj40slMo2r1buUnIK1j3/Ysqkwt2oAJgPwK3comoGdw9ysA+aINYESvSsvkqVn4yRP4gupW2p4HqO2Rb88zj1AAuTi8sOQAl+umF4B8IJSETKY3t+gTUCTNvXxhNzuGfjx9gG22D+Hqqr110JEWetJZwWZ84ey9HzCCmwDf/+mQ++1YPc+uohnx5WepTaMGQ+Yct9QJbF4ZuGQ0Ny87sPTQitTPy/CRFn4yDNSXK0JA2p5L29LXQNoeCjuTqO05o3XutD1FhrPqV/n+SItwPb+AbtElIKHnPmp1JPToZV15a95H9BVQgkKlz9cu0i09Ako8p+zP2nEr865e5G7pEZCf2X0UvJtcABxVP71zfXQgoDp6MlNLAMpTs/CTJ/CJ73Ztbc/iR5ltVtoe7t533TP/U1c0kGzP9/LF+vbr+R+PR7AuAWWCvf82oDl9A4b1ArRTHHxtqLR+aB0LPevSSv835c5SHq2nFgSNWvpXKNwznlvEkigDmTyyLu/PiwqXQyZmnufNS1pbp1q1av2yePHiTEzb10gyATkCqqiiCpHuVyvYeKMg9KzNfPkXIR/MAYeEF+van/nn/BCQ0KNElzeOBZa9E8wzesEcxhdNnh+U+QGSxV4VatyjKfCfZ+l7d0+IuMxid4m49MfLuIk7JQjjV88GNtsiEdNK+iQqVKjA9NKgqmndZs3Pujz82/oQkLZn3pzg26OaQqqqLtVm1AQfzVEmFGV+1u7330+uz6x97voSUN4l+YS1oC/W0G4hI/GAiSxJQUHo8HoWfNaXb3HnV+Sjvyf9VTbcMIS/R6zuUnFDzuvfFB16KYM1flpJR91JFnzyuhiZ6dzCT2Y4+irS9vRh5NbQrqEAqSK5Tm+VX9+eslalUXNg+z8BE4ZEIulWWcNN5OcfvU8TzAnBJ0y5mPpfw/Wg0HPEPyz0ZHvBt9sRuGgAtT//Bm5mAIBb8QS0qRtJs/0b/6G/1KhobuaKH7n/WgoBCz+lwPFHKRBYpe2hCliRXEsfD9qeUdT2KJQ96k0v29bUNCj1v8wtbrkl8O6bQKczgU8/CoUgVdZEkXjSSrjlhoDqLtU7maUvxgCvPp+bPuPWi9JizL+TmskuNMFSE+mWCAJ+yiRiGfM0ifff4k6I2h2ZKuREee3c6Gt7iqKqywe/avFcRxOACmK65YbAGy+z2jMFn59/DBmZlYDSQk9u2BftpWP/kHdF+bec/HNdOgrWmDSUUV3H00zeYd3P/FusCVj4ifXy5Wnw334dqmW35APh+WdCynJpexRFFbemF67yDn3yIVOuT43b6OM5XuVH6Xw2/U0Ydj2KEYB7VYvnPJIyakXT9bwSeI+auIl80bsFAh+8S/+ejqHWoPyj7HSfqDvDwk+iljPLk5FT5N03hwy7t1EVfOw/GZlDh+HTWkbbt6csLDX+FtTZKvz41edlHe3P14fAs08B3c5lxMyW0Ul9sD7zScq5ypCt77Fy2Kj2UqG377+jg/N5gcLldL6vtGmhE0nc/C38JG5JszQh+fO0pX+AQthVdf0a2sC7cZeoNOVJaMp78v339H1gmLVbdggsWsiMuC2Ck7lyPlXZOTv9+KrlI9C6O83XVZlbid+F5V+W7xpJOEt+jKo8/s5/Q82unXZLwqw8hyIELPwUAeJfixCQX88l3AFpt76Cu6F+VwcfDfnJJKlJoDvxrKDZkiOuW2YJPHJfyPS9KzmPnpHXzK6ZnViCrqYAAGV/luAzimkqJAQUYrtpPPDI/YxC7BXKpxQigwKYs4Wf0hZZqs//MrxRCcEKra3t16M8ONoVTnsgpHNPqu1bdY/+uDGTvtH/wS1zBObNBi6/ENinOkOGbwo5ljJ3dV8pkwT2/gujmjqHl79yLxVaU2LWqRQAj2kYgjcKbf4FNF8LP8UttnY8j/4rpNc/70T++w9g9jRAAkHSW0l+Pee0B7QzTHLbattQ9frxeXTkfjrJM83d3ORDomhA+VWpAruz4uaOfXl7OqMNoALAY/sCHy0r71Xid540voMp+Knwa9chdnCO3wqmNeIK6RxdEOUt9GUf2y+UZthzH6DBmcCCu0MisI03CU6+DWkC2oO28aQ1+fWMHwi8+SpQ/ZAQxZU081ZZa6ZQ36b1QuVwpbB3+HVZxEr+/BY6ik66IjiT9x2XfOG5ZBLx+0TJJ1s3oCBATdCIm+Id0JAKfW1sz28EfLOc/ozUeO2wUypn+ZgYEHB5i7IWSRWkb5nEZH3HstzBE3Tu7R0yzTZqHqpI6wtRu36o5tvqeKBL46AaTkJa+ELx6ynrHtDnG1cCWjFLtRK+Lbw3lTN8TFEC0pxOoelAgs/R1Jz2pw9F0rWGRRnE/Xc5o19wWdCAKslfkpvcGpTjSKHtEtIt+CR5tX+dmzU/QvHiEjphMopJGo/DjwEupLq3pC+ACmLOncWQ0OnMDfMBoBTxJ58TNEQym8SpabdzI7/sc2iO2OgPIYmXwl0L/UWlWlPtafMXH/k5FTqPdO5pCT7SHipnUoMzmM9nUPK1BunwidOxWst+HagFXxC0IUnNxyRBfTqfgx37Aac0jdMKeawpEChJ81PYws/XXzErMZNX3TOD4bcUYi7kza+aQqk0vSBVFPOOG4AlNBdJeFCW2n/yy7PvgdG2F0tbJQFOX/qvvwTqn06NF7UdSQlbT2X9yjpGhVm7cy2VAPGM1mUd7c9FQN8JpUKYOxOQxrQDf7bZMN73hjZ7rerTSX2rkN4iaRsBRSH2Oz88A5W6I6nBHPG+C9dr9BZ+1sanHY0iGSYM5sufAtCpLejU3Kn8iayUD0KaoH/dzlwx3zGq5YCwg5DKP2oPC/v1rH0nlP6zctKo6OOND4WHf+lHF/anMhsPoQD90D1AkwtCxJBfJMm4JxYtBHpTI3w6NwHtuRlISnuLmv7zTwXk2zny5ug9q5PCOc/zsPCzZgHk0T/6UuDZJ4FqNei7Q7V8ptS5331DoWoOtUGMcHn3DWAL7pZOoMP0SfQPqrLTmhHk51/59ah6+RPzQ3K5dr1ZRJK+S35Blbweeji2OYHavGZ8SPKecSuewI8rQyi77q02PYCz2xV/nP8aXwJ6Ziq7+3Bu8v56WHznsWbk2vS2P4X1/BjgMOEu551awyWB/1r40QP6ZjpezpgYJHw9pE88OztqeWmW5DQ9h0LQk3whqB12DF+i5/LBcXhuBQ75rUy/OoTq268nrEU6/x/Bna40elPnAc70+nty368IZQCW8n7v1B9QJKRb8ghonZXh/ccf6CpAU1GcUxbI7N+Lmiyls5DGZ7+ayVsvz+hXAoUt/Mh/QzuXZe8A9U6mxN8nd/4tHy8LO6Z76Qch+/mue9EkxhfEsY2ATTb7dYEy/oP8L+R7MXVU6Nd+PeVD/PknoZbZoXVCJEj5rpLMsyRYX9wqmAa7XwEcRxOCW3IJvPwc/SJPA+pSCFIm6Lg2acBnTQ65fKSZd0s0gZKEn4qJnvUXnwKDLgqOq5roMDon9xmdO8FHfSpqTNmRZ9Iputdw+hVtAozpRydaaoD0r8xjmW7ahbelv5GcTyVsJa0OV6Z5lXa9bbYHzmwDPDwXeGlpaUcW1mcS5Ls2AV55PtQ/suCT/PWvdiA3AvTnmn9HfNNAPHhnEHwa8t614JP8e7aUGVYo5bPffRSbJIfK26AILpUpkLlLPghRylCsHZSixJRH5qcfgZoUhBRieVhdhgVv+DvuKf9Bfj0TGbHw+AP260kZWgoHSuXflGuzw85MgHlrbs2WKQwv54d89nHYUHz4LiNlxgN/OzrnQ3CHeSIgk9GFpwPv0XdSGuw69Inbc994fCdee5Hh7By7onGH0yVhw43yBNHd5pJASZqf5Ak/b7xMOy7NWi8/GxzzOg2g9mPPXLJOva8vPwumqbtod/70w1Dt+uTGYUdSeevUr2O/ntRZlfdImS1H9A6FXY+qX96rxP88Zf5VkVvdu4Mmh7IV8Z+VZ5AOgQ/fC1plaZj/j+b1Xfh8lRCk//aoms6Vcnes7lc5OMsfcwK1P3HLyZY7UonrKfnCj0LMp9Gkdfs0RlltGfx6VJwuDtFM2k09Pj9EiSkKTY7JsqtrZ6VikCU1+/WURCbzfxfr8/hwX0lN4tR/hTXKfC/RvqIiJbvzntR37YppIVoy2iP26LJJ4KvPQw1EabCfWxQKQO/2Z2b1Xi0IyeQehaY0DMrZpQ3xmFlA1QOiMCqPIUcEki38PMZInLH9g/ZEEVyK5Nq8co7QZribt15jziCqZOfNAX6guUXh+DKJqbTG2jmDtOsaT61WIdfhyjD6Mi/39MP022oRwt6VG6qQmjSqPXgfcuO8yncuU+khColhkucq/8pH76cpf26IopKGRflzaksQahC0Q/ma/5h+wc2gN520/3FKvkbhfvNEIJnCj4qQjqPQo/wi+qJdNBDYv1aeEGe4W5myJADJN0i+PFtuQ3PYWcChtek8TXOD/XoyDDyFy+mB3qMZ8Dp9B6YvjHe4bwrT/fUQ+aj1ag78sVLI8xJVM/KvA/YPeSUgn7BHKAg9TI3QC4vDUFQgVUKQhKFcpoy4j5qeYb2YoLFVsAbkFYw7zweBZAk/UmPKvHX96MCy2UXM0tw8mQ5sct5WVmYlTnzywWCzrrSp63Dl41ukPqUBOe9ERuu1YUQdH6pJbzJnXNw6CN9yEt1xl6TP2PPLJAH5Mj58X9AI/Wd1tGTV/X/zEVIB1Ww1mbku4oax+sHA0KnrF0ySrTH6ulknkBzhR+HGCuF+8xVGR9UL9bjynT0568u3ugM5GqqO2OGct+tw5Yr67/u5ojuw4G4K39Q4ZvPh/fuec/uXRQuZ26h9EHiupAZyuyq57d+9JYuANPWqpSUfoVeoTVRT5JUcpWXWL6mYdDgyvf8rP1e7hnQVoP/k+DtcniY9eok6Ov7CzzfLQ+i6QthVSV2V1/9+bKIWyZOJCQHtZptSAFUR3Euuismg0xymXlIDqVHdvSpw5bSg+UnzEj7cBEokoI2ccmc9REFIZmS1v9RcbRqjeWx9BG2lN+nSmBtkamnH3R5C8UMP/n8BEoiv8CM/i/l3MjxxEDMVfxXMW835UJbpx80E8kVgCp0np4/jrnJO2L3maxzZ6HfebAo8PTivGjQXTCkc36ZssPQ1yyaw7O3fBCGZldUOOCj4B0kjpESjqTa9L1SSRtnt+/L7WZuClFtBE4in8KNEWipL8e8nQ9RTZzo0y3HOzQTyTWDFt8x2ezSjWPaiGZbayDikVEiF2Z3TgasuCzmyBk7yJiMVZj4mcwSUTkEaoYX3AIp81feq+iFBI6RCzGWZ+9fcv407AK26ZW5cvlJsCcRL+FlVhPQaFiGd8FsRUkU6bbBBbBfAA08ggbtuCsL5gInBBBb3Kd5CYWfSUGZsrhuSOa6dWiHuc/P440fg7deDf5B8hFQGqGJF4MBDg4/Qkcf93hSrQqUquXLwkcAA3st+X8RvzbMw4vgIPypCqp3n+2/nvghpFsD7kgkmoOSUraiWV0TelPvjG20oU4EShN44lgnqGMnWe0R855Lg261gp6b7821qgeQfJI2Q3g0VuRH+62FBEJLv58rvGcpOB+dNtwim6DhXnS/Yhc7OxOMh/IzqwwroNCEoD0Sny4GDKMG7mUCUCSj9QJ82vF+Zb6rhuVEeafFj04tlPM3Jt08F6p9OR9HB3jEXT8p/jQIB3a+K9H2IQpASKn7wTghh36JyyL4uH7yoZJaOAi+PgZbTCkuI4aCiKGhQTb1lvbDp7OuBr79gEVLaa61yT31hfGT+COhh3JWRJfJPuHFBvJyDVbJDaSPkHNqoOdCBP8u04GYCcSCg797rLwXT2GJaDFp2cZHdOKxbjscYD+Enx1DcnQlkhMBrL4ScIue0B1p3z8gls34RJQodSodQ5StqfH54cSTFaTvr8NyBCZhAXAiUJPx4mxeXFfQ4o0tAhRKPOQW4bQrwyQfRHeeakSmgoB8FHgk+EtZadU1OtNqaOfpfEzABEyiFgIWfUuD4IxNImUBLChBSwyv/T1SbtD3KkN6ndaiH17EfTczUVrmZgAmYQIER2LDA5uvpmkB2CKjEiiq9z2SIrfxnVL8o303CzqsvAM89BTy7CHiRfn8/rAgOoj2uBI4/Ld8jdP8mYAImkBcCFn7ygt2dJpKAtChzZwETh4Tq57n2oSlJ2BFslak47lSgBvOkKFfKltskcgk8KRMwARNIhYCFn1Qo+RgTSIWAcos06wSM7QcsWpj9yJOfflxXs/OSNDvMd6K2B4UdaXYk7ChDroWdwMX/NwETMAESsPDj28AEMkngpLOBOdOo/WGmZGWa3SCDX7EyhR3m6bGwk8nV9LVMwAQSSiCDT+aEEvK0TCAdAhtuBLTpyaKKNIHddytwIoWh8rbShJ0992FSwjOCCetAanYqb13eXnyeCZiACRQcAQs/BbfknnDWCSjdvqpSTx0F1D0J2GSz1LpcJew8H5yT5aQsB+WVP4RzLeykxtBHmYAJmEAKBCz8pADJh5hAWgTk6NzuYuD8RsCsyUDzzsWfXqqwsy/Q4Exrdoon57+agAmYwHoRsPCzXvh8sgmUQKBajVAkdCaFnxNo+tquClCWsHPCWUHYqX6wzVglYPWfTcAETCATBCz8ZIKir2ECxRFQ9uTH5gEDO4ZadWubsfaqRqFojbAjn52tiruC/2YCJmACJpAFAhZ+sgDVlzSBVQR23AU4rSUwYwKwRtip8Tf6A0mzY2HHd4kJmIAJ5IuAhZ98kXe/hUGgFYuHNmEdrUqbFsZ8PUsTMAETiAEB1/aKwSJ5iDEmUJFfMQs+MV5AD90ETCCJBCz8JHFVPScTMAETMAETMIESCVj4KRGNPzABEzABEzABE0giASYkSat9yqPfSesMH2wCJmACJmACJmAC+SGwG7vdLj9du1cTMAETMAETMAETMAETMAETMAETMAETMAETMAETMAETMAETMAETMAETMAETMAETMAETMAETMAETMAETMAETMAETMAETMAETMAETMAETMAETMAETMAETMAETMAETMAETMAETMAETMAETMAETMAETMAETMAETMAETMAETMAETMAETMAETSBKB/wfowuMrYgRagAAAAABJRU5ErkJggg==;" parent="1" vertex="1">
          <mxGeometry x="60" y="250" width="136.9" height="30" as="geometry" />
        </mxCell>
        <mxCell id="isVZYeZh4vV-a_DudpPx-13" value="" style="endArrow=none;dashed=1;html=1;dashPattern=1 3;strokeWidth=2;rounded=0;entryX=0.5;entryY=1;entryDx=0;entryDy=0;" parent="1" edge="1">
          <mxGeometry width="50" height="50" relative="1" as="geometry">
            <mxPoint x="127.95" y="250" as="sourcePoint" />
            <mxPoint x="128.40000000000003" y="180" as="targetPoint" />
          </mxGeometry>
        </mxCell>
        <mxCell id="isVZYeZh4vV-a_DudpPx-14" value="30 seconds" style="text;html=1;align=center;verticalAlign=middle;resizable=0;points=[];autosize=1;strokeColor=none;fillColor=none;" parent="1" vertex="1">
          <mxGeometry x="88.45" y="38" width="80" height="30" as="geometry" />
        </mxCell>
        <mxCell id="isVZYeZh4vV-a_DudpPx-15" value="SaO2" style="text;whiteSpace=wrap;" parent="1" vertex="1">
          <mxGeometry x="20" y="70" width="40" height="20" as="geometry" />
        </mxCell>
        <mxCell id="isVZYeZh4vV-a_DudpPx-16" value="H.R." style="text;html=1;align=center;verticalAlign=middle;resizable=0;points=[];autosize=1;strokeColor=none;fillColor=none;" parent="1" vertex="1">
          <mxGeometry x="15" y="110" width="50" height="30" as="geometry" />
        </mxCell>
        <mxCell id="isVZYeZh4vV-a_DudpPx-17" value="EEG2" style="text;whiteSpace=wrap;" parent="1" vertex="1">
          <mxGeometry x="20" y="150" width="70" height="40" as="geometry" />
        </mxCell>
        <mxCell id="isVZYeZh4vV-a_DudpPx-18" value="NEW AIR" style="text;whiteSpace=wrap;" parent="1" vertex="1">
          <mxGeometry x="8.449999999999989" y="285" width="80" height="40" as="geometry" />
        </mxCell>
        <mxCell id="isVZYeZh4vV-a_DudpPx-20" value="LIGHT" style="text;html=1;align=center;verticalAlign=middle;resizable=0;points=[];autosize=1;strokeColor=none;fillColor=none;" parent="1" vertex="1">
          <mxGeometry x="10" y="250" width="60" height="30" as="geometry" />
        </mxCell>
        <mxCell id="isVZYeZh4vV-a_DudpPx-32" style="edgeStyle=orthogonalEdgeStyle;rounded=0;orthogonalLoop=1;jettySize=auto;html=1;exitX=1;exitY=0.5;exitDx=0;exitDy=0;" parent="1" source="isVZYeZh4vV-a_DudpPx-22" target="isVZYeZh4vV-a_DudpPx-28" edge="1">
          <mxGeometry relative="1" as="geometry" />
        </mxCell>
        <mxCell id="isVZYeZh4vV-a_DudpPx-22" value="&lt;b&gt;CNN&lt;/b&gt;" style="rounded=0;whiteSpace=wrap;html=1;fillColor=#e1d5e7;strokeColor=#9673a6;" parent="1" vertex="1">
          <mxGeometry x="217" y="70" width="40" height="30" as="geometry" />
        </mxCell>
        <mxCell id="isVZYeZh4vV-a_DudpPx-34" style="edgeStyle=orthogonalEdgeStyle;rounded=0;orthogonalLoop=1;jettySize=auto;html=1;exitX=1;exitY=0.5;exitDx=0;exitDy=0;" parent="1" source="isVZYeZh4vV-a_DudpPx-27" target="isVZYeZh4vV-a_DudpPx-29" edge="1">
          <mxGeometry relative="1" as="geometry" />
        </mxCell>
        <mxCell id="isVZYeZh4vV-a_DudpPx-27" value="&lt;b&gt;CNN&lt;/b&gt;" style="rounded=0;whiteSpace=wrap;html=1;fillColor=#e1d5e7;strokeColor=#9673a6;" parent="1" vertex="1">
          <mxGeometry x="355" y="70" width="40" height="30" as="geometry" />
        </mxCell>
        <mxCell id="isVZYeZh4vV-a_DudpPx-33" style="edgeStyle=orthogonalEdgeStyle;rounded=0;orthogonalLoop=1;jettySize=auto;html=1;exitX=1;exitY=0.5;exitDx=0;exitDy=0;" parent="1" source="isVZYeZh4vV-a_DudpPx-28" target="isVZYeZh4vV-a_DudpPx-27" edge="1">
          <mxGeometry relative="1" as="geometry" />
        </mxCell>
        <mxCell id="isVZYeZh4vV-a_DudpPx-28" value="&lt;b&gt;CNN&lt;/b&gt;" style="rounded=0;whiteSpace=wrap;html=1;fillColor=#e1d5e7;strokeColor=#9673a6;" parent="1" vertex="1">
          <mxGeometry x="284.9" y="70" width="40" height="30" as="geometry" />
        </mxCell>
        <mxCell id="isVZYeZh4vV-a_DudpPx-35" style="edgeStyle=orthogonalEdgeStyle;rounded=0;orthogonalLoop=1;jettySize=auto;html=1;exitX=1;exitY=0.5;exitDx=0;exitDy=0;" parent="1" source="isVZYeZh4vV-a_DudpPx-29" target="isVZYeZh4vV-a_DudpPx-30" edge="1">
          <mxGeometry relative="1" as="geometry" />
        </mxCell>
        <mxCell id="isVZYeZh4vV-a_DudpPx-29" value="&lt;b&gt;CNN&lt;/b&gt;" style="rounded=0;whiteSpace=wrap;html=1;fillColor=#e1d5e7;strokeColor=#9673a6;" parent="1" vertex="1">
          <mxGeometry x="420" y="70" width="41" height="30" as="geometry" />
        </mxCell>
        <mxCell id="isVZYeZh4vV-a_DudpPx-107" style="edgeStyle=orthogonalEdgeStyle;rounded=0;orthogonalLoop=1;jettySize=auto;html=1;exitX=1;exitY=0.5;exitDx=0;exitDy=0;" parent="1" source="isVZYeZh4vV-a_DudpPx-30" target="isVZYeZh4vV-a_DudpPx-96" edge="1">
          <mxGeometry relative="1" as="geometry" />
        </mxCell>
        <mxCell id="isVZYeZh4vV-a_DudpPx-30" value="&lt;b&gt;CNN&lt;/b&gt;" style="rounded=0;whiteSpace=wrap;html=1;fillColor=#e1d5e7;strokeColor=#9673a6;" parent="1" vertex="1">
          <mxGeometry x="484.9" y="70" width="40" height="30" as="geometry" />
        </mxCell>
        <mxCell id="isVZYeZh4vV-a_DudpPx-37" style="edgeStyle=orthogonalEdgeStyle;rounded=0;orthogonalLoop=1;jettySize=auto;html=1;exitX=1;exitY=0.5;exitDx=0;exitDy=0;" parent="1" source="isVZYeZh4vV-a_DudpPx-38" target="isVZYeZh4vV-a_DudpPx-42" edge="1">
          <mxGeometry relative="1" as="geometry" />
        </mxCell>
        <mxCell id="isVZYeZh4vV-a_DudpPx-38" value="&lt;b&gt;CNN&lt;/b&gt;" style="rounded=0;whiteSpace=wrap;html=1;fillColor=#BF7AE7;strokeColor=#5050A6;opacity=70;" parent="1" vertex="1">
          <mxGeometry x="217" y="110" width="40.1" height="30" as="geometry" />
        </mxCell>
        <mxCell id="isVZYeZh4vV-a_DudpPx-39" style="edgeStyle=orthogonalEdgeStyle;rounded=0;orthogonalLoop=1;jettySize=auto;html=1;exitX=1;exitY=0.5;exitDx=0;exitDy=0;" parent="1" source="isVZYeZh4vV-a_DudpPx-40" target="isVZYeZh4vV-a_DudpPx-44" edge="1">
          <mxGeometry relative="1" as="geometry" />
        </mxCell>
        <mxCell id="isVZYeZh4vV-a_DudpPx-40" value="&lt;b&gt;CNN&lt;/b&gt;" style="rounded=0;whiteSpace=wrap;html=1;fillColor=#BF7AE7;strokeColor=#5050A6;opacity=70;" parent="1" vertex="1">
          <mxGeometry x="354.95" y="110" width="39.9" height="30" as="geometry" />
        </mxCell>
        <mxCell id="isVZYeZh4vV-a_DudpPx-41" style="edgeStyle=orthogonalEdgeStyle;rounded=0;orthogonalLoop=1;jettySize=auto;html=1;exitX=1;exitY=0.5;exitDx=0;exitDy=0;" parent="1" source="isVZYeZh4vV-a_DudpPx-42" target="isVZYeZh4vV-a_DudpPx-40" edge="1">
          <mxGeometry relative="1" as="geometry" />
        </mxCell>
        <mxCell id="isVZYeZh4vV-a_DudpPx-42" value="&lt;b&gt;CNN&lt;/b&gt;" style="rounded=0;whiteSpace=wrap;html=1;fillColor=#BF7AE7;strokeColor=#5050A6;opacity=70;" parent="1" vertex="1">
          <mxGeometry x="285.05" y="110" width="39.9" height="30" as="geometry" />
        </mxCell>
        <mxCell id="isVZYeZh4vV-a_DudpPx-43" style="edgeStyle=orthogonalEdgeStyle;rounded=0;orthogonalLoop=1;jettySize=auto;html=1;exitX=1;exitY=0.5;exitDx=0;exitDy=0;" parent="1" source="isVZYeZh4vV-a_DudpPx-44" target="isVZYeZh4vV-a_DudpPx-45" edge="1">
          <mxGeometry relative="1" as="geometry" />
        </mxCell>
        <mxCell id="isVZYeZh4vV-a_DudpPx-44" value="&lt;b&gt;CNN&lt;/b&gt;" style="rounded=0;whiteSpace=wrap;html=1;fillColor=#BF7AE7;strokeColor=#5050A6;opacity=70;" parent="1" vertex="1">
          <mxGeometry x="417.1" y="110" width="43.9" height="30" as="geometry" />
        </mxCell>
        <mxCell id="isVZYeZh4vV-a_DudpPx-108" style="edgeStyle=orthogonalEdgeStyle;rounded=0;orthogonalLoop=1;jettySize=auto;html=1;exitX=1;exitY=0.5;exitDx=0;exitDy=0;" parent="1" source="isVZYeZh4vV-a_DudpPx-45" target="isVZYeZh4vV-a_DudpPx-101" edge="1">
          <mxGeometry relative="1" as="geometry" />
        </mxCell>
        <mxCell id="isVZYeZh4vV-a_DudpPx-45" value="&lt;b&gt;CNN&lt;/b&gt;" style="rounded=0;whiteSpace=wrap;html=1;fillColor=#BF7AE7;strokeColor=#5050A6;opacity=70;" parent="1" vertex="1">
          <mxGeometry x="484.9" y="110" width="39.9" height="30" as="geometry" />
        </mxCell>
        <mxCell id="isVZYeZh4vV-a_DudpPx-58" style="edgeStyle=orthogonalEdgeStyle;rounded=0;orthogonalLoop=1;jettySize=auto;html=1;exitX=1;exitY=0.5;exitDx=0;exitDy=0;" parent="1" source="isVZYeZh4vV-a_DudpPx-59" target="isVZYeZh4vV-a_DudpPx-63" edge="1">
          <mxGeometry relative="1" as="geometry" />
        </mxCell>
        <mxCell id="isVZYeZh4vV-a_DudpPx-59" value="&lt;b&gt;CNN&lt;/b&gt;" style="rounded=0;whiteSpace=wrap;html=1;fillColor=#dae8fc;strokeColor=#6c8ebf;" parent="1" vertex="1">
          <mxGeometry x="205.05" y="150" width="60" height="30" as="geometry" />
        </mxCell>
        <mxCell id="isVZYeZh4vV-a_DudpPx-60" style="edgeStyle=orthogonalEdgeStyle;rounded=0;orthogonalLoop=1;jettySize=auto;html=1;exitX=1;exitY=0.5;exitDx=0;exitDy=0;" parent="1" source="isVZYeZh4vV-a_DudpPx-61" target="isVZYeZh4vV-a_DudpPx-65" edge="1">
          <mxGeometry relative="1" as="geometry" />
        </mxCell>
        <mxCell id="isVZYeZh4vV-a_DudpPx-61" value="&lt;b&gt;CNN&lt;/b&gt;" style="rounded=0;whiteSpace=wrap;html=1;fillColor=#dae8fc;strokeColor=#6c8ebf;" parent="1" vertex="1">
          <mxGeometry x="348" y="150" width="60" height="30" as="geometry" />
        </mxCell>
        <mxCell id="47tTqiJObBJcWMFkdcAR-4" style="edgeStyle=orthogonalEdgeStyle;rounded=0;orthogonalLoop=1;jettySize=auto;html=1;exitX=1;exitY=0.5;exitDx=0;exitDy=0;entryX=0;entryY=0.5;entryDx=0;entryDy=0;" edge="1" parent="1" source="isVZYeZh4vV-a_DudpPx-63" target="isVZYeZh4vV-a_DudpPx-61">
          <mxGeometry relative="1" as="geometry" />
        </mxCell>
        <mxCell id="isVZYeZh4vV-a_DudpPx-63" value="&lt;b&gt;CNN&lt;/b&gt;" style="rounded=0;whiteSpace=wrap;html=1;fillColor=#dae8fc;strokeColor=#6c8ebf;" parent="1" vertex="1">
          <mxGeometry x="277.9" y="150" width="60" height="30" as="geometry" />
        </mxCell>
        <mxCell id="isVZYeZh4vV-a_DudpPx-64" style="edgeStyle=orthogonalEdgeStyle;rounded=0;orthogonalLoop=1;jettySize=auto;html=1;exitX=1;exitY=0.5;exitDx=0;exitDy=0;" parent="1" source="isVZYeZh4vV-a_DudpPx-65" target="isVZYeZh4vV-a_DudpPx-66" edge="1">
          <mxGeometry relative="1" as="geometry" />
        </mxCell>
        <mxCell id="isVZYeZh4vV-a_DudpPx-65" value="&lt;b&gt;CNN&lt;/b&gt;" style="rounded=0;whiteSpace=wrap;html=1;fillColor=#dae8fc;strokeColor=#6c8ebf;" parent="1" vertex="1">
          <mxGeometry x="418.1" y="150" width="56" height="30" as="geometry" />
        </mxCell>
        <mxCell id="isVZYeZh4vV-a_DudpPx-109" style="edgeStyle=orthogonalEdgeStyle;rounded=0;orthogonalLoop=1;jettySize=auto;html=1;exitX=1;exitY=0.5;exitDx=0;exitDy=0;" parent="1" source="isVZYeZh4vV-a_DudpPx-66" target="isVZYeZh4vV-a_DudpPx-100" edge="1">
          <mxGeometry relative="1" as="geometry" />
        </mxCell>
        <mxCell id="isVZYeZh4vV-a_DudpPx-66" value="&lt;b&gt;CNN&lt;/b&gt;" style="rounded=0;whiteSpace=wrap;html=1;fillColor=#dae8fc;strokeColor=#6c8ebf;" parent="1" vertex="1">
          <mxGeometry x="484" y="150" width="60" height="30" as="geometry" />
        </mxCell>
        <mxCell id="47tTqiJObBJcWMFkdcAR-10" style="edgeStyle=orthogonalEdgeStyle;rounded=0;orthogonalLoop=1;jettySize=auto;html=1;exitX=1;exitY=0.5;exitDx=0;exitDy=0;" edge="1" parent="1" source="isVZYeZh4vV-a_DudpPx-75" target="47tTqiJObBJcWMFkdcAR-5">
          <mxGeometry relative="1" as="geometry" />
        </mxCell>
        <mxCell id="isVZYeZh4vV-a_DudpPx-75" value="&lt;b&gt;CNN&lt;/b&gt;" style="rounded=0;whiteSpace=wrap;html=1;fillColor=#ffe6cc;strokeColor=#d79b00;" parent="1" vertex="1">
          <mxGeometry x="211.95" y="250" width="45.9" height="30" as="geometry" />
        </mxCell>
        <mxCell id="isVZYeZh4vV-a_DudpPx-85" style="edgeStyle=orthogonalEdgeStyle;rounded=0;orthogonalLoop=1;jettySize=auto;html=1;exitX=1;exitY=0.5;exitDx=0;exitDy=0;" parent="1" source="isVZYeZh4vV-a_DudpPx-86" target="isVZYeZh4vV-a_DudpPx-90" edge="1">
          <mxGeometry relative="1" as="geometry" />
        </mxCell>
        <mxCell id="isVZYeZh4vV-a_DudpPx-86" value="&lt;b&gt;CNN&lt;/b&gt;" style="rounded=0;whiteSpace=wrap;html=1;fillColor=#f8cecc;strokeColor=#b85450;" parent="1" vertex="1">
          <mxGeometry x="209.9" y="285" width="50" height="30" as="geometry" />
        </mxCell>
        <mxCell id="isVZYeZh4vV-a_DudpPx-87" style="edgeStyle=orthogonalEdgeStyle;rounded=0;orthogonalLoop=1;jettySize=auto;html=1;exitX=1;exitY=0.5;exitDx=0;exitDy=0;" parent="1" source="isVZYeZh4vV-a_DudpPx-88" target="isVZYeZh4vV-a_DudpPx-92" edge="1">
          <mxGeometry relative="1" as="geometry" />
        </mxCell>
        <mxCell id="isVZYeZh4vV-a_DudpPx-88" value="&lt;b&gt;CNN&lt;/b&gt;" style="rounded=0;whiteSpace=wrap;html=1;fillColor=#f8cecc;strokeColor=#b85450;" parent="1" vertex="1">
          <mxGeometry x="349.9" y="285" width="50" height="30" as="geometry" />
        </mxCell>
        <mxCell id="isVZYeZh4vV-a_DudpPx-89" style="edgeStyle=orthogonalEdgeStyle;rounded=0;orthogonalLoop=1;jettySize=auto;html=1;exitX=1;exitY=0.5;exitDx=0;exitDy=0;" parent="1" source="isVZYeZh4vV-a_DudpPx-90" target="isVZYeZh4vV-a_DudpPx-88" edge="1">
          <mxGeometry relative="1" as="geometry" />
        </mxCell>
        <mxCell id="isVZYeZh4vV-a_DudpPx-90" value="&lt;b&gt;CNN&lt;/b&gt;" style="rounded=0;whiteSpace=wrap;html=1;fillColor=#f8cecc;strokeColor=#b85450;" parent="1" vertex="1">
          <mxGeometry x="279.9" y="285" width="50" height="30" as="geometry" />
        </mxCell>
        <mxCell id="isVZYeZh4vV-a_DudpPx-91" style="edgeStyle=orthogonalEdgeStyle;rounded=0;orthogonalLoop=1;jettySize=auto;html=1;exitX=1;exitY=0.5;exitDx=0;exitDy=0;" parent="1" source="isVZYeZh4vV-a_DudpPx-92" target="isVZYeZh4vV-a_DudpPx-93" edge="1">
          <mxGeometry relative="1" as="geometry" />
        </mxCell>
        <mxCell id="isVZYeZh4vV-a_DudpPx-92" value="&lt;b&gt;CNN&lt;/b&gt;" style="rounded=0;whiteSpace=wrap;html=1;fillColor=#f8cecc;strokeColor=#b85450;" parent="1" vertex="1">
          <mxGeometry x="413.9" y="285" width="50" height="30" as="geometry" />
        </mxCell>
        <mxCell id="isVZYeZh4vV-a_DudpPx-111" style="edgeStyle=orthogonalEdgeStyle;rounded=0;orthogonalLoop=1;jettySize=auto;html=1;exitX=1;exitY=0.5;exitDx=0;exitDy=0;" parent="1" source="isVZYeZh4vV-a_DudpPx-93" target="isVZYeZh4vV-a_DudpPx-102" edge="1">
          <mxGeometry relative="1" as="geometry" />
        </mxCell>
        <mxCell id="isVZYeZh4vV-a_DudpPx-93" value="&lt;b&gt;CNN&lt;/b&gt;" style="rounded=0;whiteSpace=wrap;html=1;fillColor=#f8cecc;strokeColor=#b85450;" parent="1" vertex="1">
          <mxGeometry x="479.9" y="285" width="50" height="30" as="geometry" />
        </mxCell>
        <mxCell id="isVZYeZh4vV-a_DudpPx-123" style="edgeStyle=orthogonalEdgeStyle;rounded=0;orthogonalLoop=1;jettySize=auto;html=1;exitX=1;exitY=0.5;exitDx=0;exitDy=0;" parent="1" source="isVZYeZh4vV-a_DudpPx-95" target="isVZYeZh4vV-a_DudpPx-122" edge="1">
          <mxGeometry relative="1" as="geometry" />
        </mxCell>
        <mxCell id="isVZYeZh4vV-a_DudpPx-95" value="FC" style="rounded=0;whiteSpace=wrap;html=1;" parent="1" vertex="1">
          <mxGeometry x="630" y="80" width="20" height="230" as="geometry" />
        </mxCell>
        <mxCell id="isVZYeZh4vV-a_DudpPx-112" style="edgeStyle=orthogonalEdgeStyle;rounded=0;orthogonalLoop=1;jettySize=auto;html=1;exitX=1;exitY=0.5;exitDx=0;exitDy=0;entryX=0;entryY=0.5;entryDx=0;entryDy=0;" parent="1" source="isVZYeZh4vV-a_DudpPx-96" target="isVZYeZh4vV-a_DudpPx-95" edge="1">
          <mxGeometry relative="1" as="geometry">
            <Array as="points">
              <mxPoint x="610" y="85" />
              <mxPoint x="610" y="195" />
            </Array>
          </mxGeometry>
        </mxCell>
        <mxCell id="isVZYeZh4vV-a_DudpPx-96" value="AvgPool" style="whiteSpace=wrap;html=1;fillColor=#d5e8d4;strokeColor=#82b366;" parent="1" vertex="1">
          <mxGeometry x="555" y="70" width="50" height="30" as="geometry" />
        </mxCell>
        <mxCell id="isVZYeZh4vV-a_DudpPx-118" style="edgeStyle=orthogonalEdgeStyle;rounded=0;orthogonalLoop=1;jettySize=auto;html=1;exitX=1;exitY=0.5;exitDx=0;exitDy=0;entryX=0;entryY=0.5;entryDx=0;entryDy=0;" parent="1" source="isVZYeZh4vV-a_DudpPx-100" target="isVZYeZh4vV-a_DudpPx-95" edge="1">
          <mxGeometry relative="1" as="geometry">
            <Array as="points">
              <mxPoint x="610" y="165" />
              <mxPoint x="610" y="195" />
            </Array>
          </mxGeometry>
        </mxCell>
        <mxCell id="isVZYeZh4vV-a_DudpPx-100" value="AvgPool" style="whiteSpace=wrap;html=1;fillColor=#d5e8d4;strokeColor=#82b366;" parent="1" vertex="1">
          <mxGeometry x="555" y="150" width="50" height="30" as="geometry" />
        </mxCell>
        <mxCell id="isVZYeZh4vV-a_DudpPx-121" style="edgeStyle=orthogonalEdgeStyle;rounded=0;orthogonalLoop=1;jettySize=auto;html=1;exitX=1;exitY=0.5;exitDx=0;exitDy=0;entryX=0;entryY=0.5;entryDx=0;entryDy=0;" parent="1" source="isVZYeZh4vV-a_DudpPx-101" target="isVZYeZh4vV-a_DudpPx-95" edge="1">
          <mxGeometry relative="1" as="geometry">
            <Array as="points">
              <mxPoint x="610" y="125" />
              <mxPoint x="610" y="195" />
            </Array>
          </mxGeometry>
        </mxCell>
        <mxCell id="isVZYeZh4vV-a_DudpPx-101" value="AvgPool" style="whiteSpace=wrap;html=1;fillColor=#d5e8d4;strokeColor=#82b366;" parent="1" vertex="1">
          <mxGeometry x="555" y="110" width="50" height="30" as="geometry" />
        </mxCell>
        <mxCell id="isVZYeZh4vV-a_DudpPx-120" style="edgeStyle=orthogonalEdgeStyle;rounded=0;orthogonalLoop=1;jettySize=auto;html=1;exitX=1;exitY=0.5;exitDx=0;exitDy=0;entryX=0;entryY=0.5;entryDx=0;entryDy=0;" parent="1" source="isVZYeZh4vV-a_DudpPx-102" target="isVZYeZh4vV-a_DudpPx-95" edge="1">
          <mxGeometry relative="1" as="geometry">
            <Array as="points">
              <mxPoint x="610" y="300" />
              <mxPoint x="610" y="195" />
            </Array>
          </mxGeometry>
        </mxCell>
        <mxCell id="isVZYeZh4vV-a_DudpPx-102" value="AvgPool" style="whiteSpace=wrap;html=1;fillColor=#d5e8d4;strokeColor=#82b366;" parent="1" vertex="1">
          <mxGeometry x="555" y="285" width="50" height="30" as="geometry" />
        </mxCell>
        <mxCell id="isVZYeZh4vV-a_DudpPx-119" style="edgeStyle=orthogonalEdgeStyle;rounded=0;orthogonalLoop=1;jettySize=auto;html=1;exitX=1;exitY=0.5;exitDx=0;exitDy=0;entryX=0;entryY=0.5;entryDx=0;entryDy=0;" parent="1" source="isVZYeZh4vV-a_DudpPx-106" target="isVZYeZh4vV-a_DudpPx-95" edge="1">
          <mxGeometry relative="1" as="geometry">
            <mxPoint x="630" y="200" as="targetPoint" />
            <Array as="points">
              <mxPoint x="610" y="265" />
              <mxPoint x="610" y="195" />
            </Array>
          </mxGeometry>
        </mxCell>
        <mxCell id="isVZYeZh4vV-a_DudpPx-106" value="AvgPool" style="whiteSpace=wrap;html=1;fillColor=#d5e8d4;strokeColor=#82b366;" parent="1" vertex="1">
          <mxGeometry x="555" y="250" width="50" height="30" as="geometry" />
        </mxCell>
        <mxCell id="isVZYeZh4vV-a_DudpPx-127" style="edgeStyle=orthogonalEdgeStyle;rounded=0;orthogonalLoop=1;jettySize=auto;html=1;exitX=1;exitY=0.5;exitDx=0;exitDy=0;" parent="1" source="isVZYeZh4vV-a_DudpPx-122" target="isVZYeZh4vV-a_DudpPx-124" edge="1">
          <mxGeometry relative="1" as="geometry" />
        </mxCell>
        <mxCell id="isVZYeZh4vV-a_DudpPx-122" value="FC" style="rounded=0;whiteSpace=wrap;html=1;" parent="1" vertex="1">
          <mxGeometry x="668" y="120" width="20" height="150" as="geometry" />
        </mxCell>
        <mxCell id="isVZYeZh4vV-a_DudpPx-124" value="FC" style="rounded=0;whiteSpace=wrap;html=1;" parent="1" vertex="1">
          <mxGeometry x="706" y="165" width="20" height="60" as="geometry" />
        </mxCell>
        <mxCell id="isVZYeZh4vV-a_DudpPx-128" value="&lt;ol style=&quot;font-size: 10px;&quot;&gt;&lt;li style=&quot;font-size: 10px;&quot;&gt;&lt;div style=&quot;font-size: 10px;&quot; align=&quot;left&quot;&gt;Wake&lt;/div&gt;&lt;/li&gt;&lt;li style=&quot;font-size: 10px;&quot;&gt;Stage 1 sleep&lt;/li&gt;&lt;li style=&quot;font-size: 10px;&quot;&gt;Stage 2 sleep&lt;/li&gt;&lt;li style=&quot;font-size: 10px;&quot;&gt;Stage 3 sleep&lt;/li&gt;&lt;li style=&quot;font-size: 10px;&quot;&gt;Stage 4 sleep&lt;/li&gt;&lt;li style=&quot;font-size: 10px;&quot;&gt;&lt;div style=&quot;font-size: 10px;&quot; align=&quot;left&quot;&gt;REM sleep&lt;br style=&quot;font-size: 10px;&quot;&gt;&lt;/div&gt;&lt;/li&gt;&lt;/ol&gt;" style="text;html=1;align=center;verticalAlign=middle;resizable=0;points=[];autosize=1;strokeColor=none;fillColor=none;fontSize=10;" parent="1" vertex="1">
          <mxGeometry x="710" y="140" width="120" height="110" as="geometry" />
        </mxCell>
        <mxCell id="isVZYeZh4vV-a_DudpPx-129" value="" style="shape=curlyBracket;whiteSpace=wrap;html=1;rounded=1;labelPosition=left;verticalLabelPosition=middle;align=right;verticalAlign=middle;" parent="1" vertex="1">
          <mxGeometry x="731" y="155" width="20" height="80" as="geometry" />
        </mxCell>
        <mxCell id="47tTqiJObBJcWMFkdcAR-11" style="edgeStyle=orthogonalEdgeStyle;rounded=0;orthogonalLoop=1;jettySize=auto;html=1;exitX=1;exitY=0.5;exitDx=0;exitDy=0;entryX=0;entryY=0.5;entryDx=0;entryDy=0;" edge="1" parent="1" source="47tTqiJObBJcWMFkdcAR-5" target="47tTqiJObBJcWMFkdcAR-6">
          <mxGeometry relative="1" as="geometry" />
        </mxCell>
        <mxCell id="47tTqiJObBJcWMFkdcAR-5" value="&lt;b&gt;CNN&lt;/b&gt;" style="rounded=0;whiteSpace=wrap;html=1;fillColor=#ffe6cc;strokeColor=#d79b00;" vertex="1" parent="1">
          <mxGeometry x="281.95" y="250" width="45.9" height="30" as="geometry" />
        </mxCell>
        <mxCell id="47tTqiJObBJcWMFkdcAR-12" style="edgeStyle=orthogonalEdgeStyle;rounded=0;orthogonalLoop=1;jettySize=auto;html=1;exitX=1;exitY=0.5;exitDx=0;exitDy=0;entryX=0;entryY=0.5;entryDx=0;entryDy=0;" edge="1" parent="1" source="47tTqiJObBJcWMFkdcAR-6" target="47tTqiJObBJcWMFkdcAR-7">
          <mxGeometry relative="1" as="geometry" />
        </mxCell>
        <mxCell id="47tTqiJObBJcWMFkdcAR-6" value="&lt;b&gt;CNN&lt;/b&gt;" style="rounded=0;whiteSpace=wrap;html=1;fillColor=#ffe6cc;strokeColor=#d79b00;" vertex="1" parent="1">
          <mxGeometry x="352.04999999999995" y="250" width="45.9" height="30" as="geometry" />
        </mxCell>
        <mxCell id="47tTqiJObBJcWMFkdcAR-13" style="edgeStyle=orthogonalEdgeStyle;rounded=0;orthogonalLoop=1;jettySize=auto;html=1;exitX=1;exitY=0.5;exitDx=0;exitDy=0;entryX=0;entryY=0.5;entryDx=0;entryDy=0;" edge="1" parent="1" source="47tTqiJObBJcWMFkdcAR-7" target="47tTqiJObBJcWMFkdcAR-8">
          <mxGeometry relative="1" as="geometry" />
        </mxCell>
        <mxCell id="47tTqiJObBJcWMFkdcAR-7" value="&lt;b&gt;CNN&lt;/b&gt;" style="rounded=0;whiteSpace=wrap;html=1;fillColor=#ffe6cc;strokeColor=#d79b00;" vertex="1" parent="1">
          <mxGeometry x="415.95" y="250" width="45.9" height="30" as="geometry" />
        </mxCell>
        <mxCell id="47tTqiJObBJcWMFkdcAR-14" style="edgeStyle=orthogonalEdgeStyle;rounded=0;orthogonalLoop=1;jettySize=auto;html=1;exitX=1;exitY=0.5;exitDx=0;exitDy=0;entryX=0;entryY=0.5;entryDx=0;entryDy=0;" edge="1" parent="1" source="47tTqiJObBJcWMFkdcAR-8" target="isVZYeZh4vV-a_DudpPx-106">
          <mxGeometry relative="1" as="geometry" />
        </mxCell>
        <mxCell id="47tTqiJObBJcWMFkdcAR-8" value="&lt;b&gt;CNN&lt;/b&gt;" style="rounded=0;whiteSpace=wrap;html=1;fillColor=#ffe6cc;strokeColor=#d79b00;" vertex="1" parent="1">
          <mxGeometry x="481.95" y="250" width="45.9" height="30" as="geometry" />
        </mxCell>
      </root>
    </mxGraphModel>
  </diagram>
</mxfile>
